<?xml version="1.0" encoding="utf-8"?>
<!-- Generator: Adobe Illustrator 23.0.1, SVG Export Plug-In . SVG Version: 6.00 Build 0)  -->
<svg version="1.1" id="Layer_1" xmlns="http://www.w3.org/2000/svg" xmlns:xlink="http://www.w3.org/1999/xlink" x="0px" y="0px"
	 viewBox="0 0 500 500" style="enable-background:new 0 0 500 500;" xml:space="preserve">
<style type="text/css">
	.st0{fill:none;}
	.st1{fill:#E80000;}
	.st2{fill:#FFFFFF;}
	.st3{fill:#EE0000;}
	.st4{clip-path:url(#SVGID_2_);fill:url(#SVGID_3_);}
	.st5{clip-path:url(#SVGID_5_);}
	.st6{fill:none;stroke:#EE0000;stroke-width:4;stroke-linecap:round;stroke-linejoin:round;stroke-miterlimit:10;}
	.st7{fill:url(#SVGID_6_);}
	.st8{fill:url(#SVGID_7_);}
	.st9{clip-path:url(#SVGID_9_);fill:url(#SVGID_10_);}
	.st10{clip-path:url(#SVGID_12_);}
	.st11{fill:url(#SVGID_13_);}
	.st12{fill:url(#SVGID_14_);}
</style>
<pattern  x="-2299.5" width="28.8" height="28.8" patternUnits="userSpaceOnUse" id="New_Pattern_6" viewBox="0 -30.2 28.8 28.8" style="overflow:visible;">
	<g>
		<rect y="-30.2" class="st0" width="28.8" height="28.8"/>
		<g>
			<g>
				<path class="st1" d="M29.5,0c0.4,0,0.7-0.3,0.7-0.7c0-0.4-0.3-0.7-0.7-0.7c-0.4,0-0.7,0.3-0.7,0.7C28.8-0.3,29.1,0,29.5,0z"/>
				<path class="st1" d="M22.5,0c0.4,0,0.7-0.3,0.7-0.7c0-0.4-0.3-0.7-0.7-0.7c-0.4,0-0.7,0.3-0.7,0.7C21.8-0.3,22.1,0,22.5,0z"/>
				<path class="st1" d="M29.5-7c0.4,0,0.7-0.3,0.7-0.7c0-0.4-0.3-0.7-0.7-0.7c-0.4,0-0.7,0.3-0.7,0.7C28.8-7.4,29.1-7,29.5-7z"/>
				<path class="st1" d="M22.5-7c0.4,0,0.7-0.3,0.7-0.7c0-0.4-0.3-0.7-0.7-0.7c-0.4,0-0.7,0.3-0.7,0.7C21.8-7.4,22.1-7,22.5-7z"/>
				<path class="st1" d="M19-3.5c0.4,0,0.7-0.3,0.7-0.7c0-0.4-0.3-0.7-0.7-0.7c-0.4,0-0.7,0.3-0.7,0.7C18.3-3.8,18.6-3.5,19-3.5z"/>
				<path class="st1" d="M26-3.5c0.4,0,0.7-0.3,0.7-0.7c0-0.4-0.3-0.7-0.7-0.7c-0.4,0-0.7,0.3-0.7,0.7C25.3-3.8,25.6-3.5,26-3.5z"/>
				<path class="st1" d="M19-10.6c0.4,0,0.7-0.3,0.7-0.7c0-0.4-0.3-0.7-0.7-0.7c-0.4,0-0.7,0.3-0.7,0.7C18.3-10.9,18.6-10.6,19-10.6
					z"/>
				<path class="st1" d="M26-10.6c0.4,0,0.7-0.3,0.7-0.7c0-0.4-0.3-0.7-0.7-0.7c-0.4,0-0.7,0.3-0.7,0.7C25.3-10.9,25.6-10.6,26-10.6
					z"/>
			</g>
			<g>
				<path class="st1" d="M15.3,0C15.7,0,16-0.3,16-0.7c0-0.4-0.3-0.7-0.7-0.7c-0.4,0-0.7,0.3-0.7,0.7C14.6-0.3,15,0,15.3,0z"/>
				<path class="st1" d="M8.3,0C8.7,0,9-0.3,9-0.7c0-0.4-0.3-0.7-0.7-0.7c-0.4,0-0.7,0.3-0.7,0.7C7.6-0.3,7.9,0,8.3,0z"/>
				<path class="st1" d="M15.3-7C15.7-7,16-7.4,16-7.8c0-0.4-0.3-0.7-0.7-0.7c-0.4,0-0.7,0.3-0.7,0.7C14.6-7.4,15-7,15.3-7z"/>
				<path class="st1" d="M8.3-7C8.7-7,9-7.4,9-7.8c0-0.4-0.3-0.7-0.7-0.7c-0.4,0-0.7,0.3-0.7,0.7C7.6-7.4,7.9-7,8.3-7z"/>
				<path class="st1" d="M4.8-3.5c0.4,0,0.7-0.3,0.7-0.7c0-0.4-0.3-0.7-0.7-0.7c-0.4,0-0.7,0.3-0.7,0.7C4.1-3.8,4.4-3.5,4.8-3.5z"/>
				<path class="st1" d="M11.8-3.5c0.4,0,0.7-0.3,0.7-0.7c0-0.4-0.3-0.7-0.7-0.7c-0.4,0-0.7,0.3-0.7,0.7C11.1-3.8,11.4-3.5,11.8-3.5
					z"/>
				<path class="st1" d="M4.8-10.6c0.4,0,0.7-0.3,0.7-0.7c0-0.4-0.3-0.7-0.7-0.7c-0.4,0-0.7,0.3-0.7,0.7C4.1-10.9,4.4-10.6,4.8-10.6
					z"/>
				<path class="st1" d="M11.8-10.6c0.4,0,0.7-0.3,0.7-0.7c0-0.4-0.3-0.7-0.7-0.7c-0.4,0-0.7,0.3-0.7,0.7
					C11.1-10.9,11.4-10.6,11.8-10.6z"/>
			</g>
			<g>
				<path class="st1" d="M15.3-14.2c0.4,0,0.7-0.3,0.7-0.7c0-0.4-0.3-0.7-0.7-0.7c-0.4,0-0.7,0.3-0.7,0.7
					C14.6-14.5,15-14.2,15.3-14.2z"/>
				<path class="st1" d="M8.3-14.2c0.4,0,0.7-0.3,0.7-0.7c0-0.4-0.3-0.7-0.7-0.7c-0.4,0-0.7,0.3-0.7,0.7C7.6-14.5,7.9-14.2,8.3-14.2
					z"/>
				<path class="st1" d="M15.3-21.2c0.4,0,0.7-0.3,0.7-0.7c0-0.4-0.3-0.7-0.7-0.7c-0.4,0-0.7,0.3-0.7,0.7
					C14.6-21.6,15-21.2,15.3-21.2z"/>
				<path class="st1" d="M8.3-21.2c0.4,0,0.7-0.3,0.7-0.7c0-0.4-0.3-0.7-0.7-0.7c-0.4,0-0.7,0.3-0.7,0.7C7.6-21.6,7.9-21.2,8.3-21.2
					z"/>
				<path class="st1" d="M4.8-17.7c0.4,0,0.7-0.3,0.7-0.7c0-0.4-0.3-0.7-0.7-0.7c-0.4,0-0.7,0.3-0.7,0.7C4.1-18,4.4-17.7,4.8-17.7z"
					/>
				<path class="st1" d="M11.8-17.7c0.4,0,0.7-0.3,0.7-0.7c0-0.4-0.3-0.7-0.7-0.7c-0.4,0-0.7,0.3-0.7,0.7
					C11.1-18,11.4-17.7,11.8-17.7z"/>
				<path class="st1" d="M4.8-24.8c0.4,0,0.7-0.3,0.7-0.7c0-0.4-0.3-0.7-0.7-0.7c-0.4,0-0.7,0.3-0.7,0.7C4.1-25.1,4.4-24.8,4.8-24.8
					z"/>
				<path class="st1" d="M11.8-24.8c0.4,0,0.7-0.3,0.7-0.7c0-0.4-0.3-0.7-0.7-0.7c-0.4,0-0.7,0.3-0.7,0.7
					C11.1-25.1,11.4-24.8,11.8-24.8z"/>
			</g>
			<g>
				<path class="st1" d="M29.5-14.2c0.4,0,0.7-0.3,0.7-0.7c0-0.4-0.3-0.7-0.7-0.7c-0.4,0-0.7,0.3-0.7,0.7
					C28.8-14.5,29.1-14.2,29.5-14.2z"/>
				<path class="st1" d="M22.5-14.2c0.4,0,0.7-0.3,0.7-0.7c0-0.4-0.3-0.7-0.7-0.7c-0.4,0-0.7,0.3-0.7,0.7
					C21.8-14.5,22.1-14.2,22.5-14.2z"/>
				<path class="st1" d="M29.5-21.2c0.4,0,0.7-0.3,0.7-0.7c0-0.4-0.3-0.7-0.7-0.7c-0.4,0-0.7,0.3-0.7,0.7
					C28.8-21.6,29.1-21.2,29.5-21.2z"/>
				<path class="st1" d="M22.5-21.2c0.4,0,0.7-0.3,0.7-0.7c0-0.4-0.3-0.7-0.7-0.7c-0.4,0-0.7,0.3-0.7,0.7
					C21.8-21.6,22.1-21.2,22.5-21.2z"/>
				<path class="st1" d="M19-17.7c0.4,0,0.7-0.3,0.7-0.7c0-0.4-0.3-0.7-0.7-0.7c-0.4,0-0.7,0.3-0.7,0.7C18.3-18,18.6-17.7,19-17.7z"
					/>
				<path class="st1" d="M26-17.7c0.4,0,0.7-0.3,0.7-0.7c0-0.4-0.3-0.7-0.7-0.7c-0.4,0-0.7,0.3-0.7,0.7C25.3-18,25.6-17.7,26-17.7z"
					/>
				<path class="st1" d="M19-24.8c0.4,0,0.7-0.3,0.7-0.7c0-0.4-0.3-0.7-0.7-0.7c-0.4,0-0.7,0.3-0.7,0.7C18.3-25.1,18.6-24.8,19-24.8
					z"/>
				<path class="st1" d="M26-24.8c0.4,0,0.7-0.3,0.7-0.7c0-0.4-0.3-0.7-0.7-0.7c-0.4,0-0.7,0.3-0.7,0.7C25.3-25.1,25.6-24.8,26-24.8
					z"/>
			</g>
		</g>
		<g>
			<g>
				<path class="st1" d="M0.7-7c0.4,0,0.7-0.3,0.7-0.7c0-0.4-0.3-0.7-0.7-0.7C0.3-8.5,0-8.1,0-7.8C0-7.4,0.3-7,0.7-7z"/>
			</g>
			<g>
				<path class="st1" d="M0.7-14.2c0.4,0,0.7-0.3,0.7-0.7c0-0.4-0.3-0.7-0.7-0.7c-0.4,0-0.7,0.3-0.7,0.7C0-14.5,0.3-14.2,0.7-14.2z"
					/>
				<path class="st1" d="M0.7-21.2c0.4,0,0.7-0.3,0.7-0.7c0-0.4-0.3-0.7-0.7-0.7c-0.4,0-0.7,0.3-0.7,0.7C0-21.6,0.3-21.2,0.7-21.2z"
					/>
			</g>
		</g>
		<g>
			<g>
				<path class="st1" d="M22.5-28.8c0.4,0,0.7-0.3,0.7-0.7c0-0.4-0.3-0.7-0.7-0.7c-0.4,0-0.7,0.3-0.7,0.7
					C21.8-29.1,22.1-28.8,22.5-28.8z"/>
			</g>
			<g>
				<path class="st1" d="M15.3-28.8c0.4,0,0.7-0.3,0.7-0.7c0-0.4-0.3-0.7-0.7-0.7c-0.4,0-0.7,0.3-0.7,0.7
					C14.6-29.1,15-28.8,15.3-28.8z"/>
				<path class="st1" d="M8.3-28.8c0.4,0,0.7-0.3,0.7-0.7c0-0.4-0.3-0.7-0.7-0.7c-0.4,0-0.7,0.3-0.7,0.7C7.6-29.1,7.9-28.8,8.3-28.8
					z"/>
			</g>
		</g>
		<g>
			<g>
				<path class="st1" d="M0.7-28.8c0.4,0,0.7-0.3,0.7-0.7c0-0.4-0.3-0.7-0.7-0.7c-0.4,0-0.7,0.3-0.7,0.7C0-29.1,0.3-28.8,0.7-28.8z"
					/>
			</g>
		</g>
	</g>
</pattern>
<pattern  x="-2299.5" width="28.8" height="28.8" patternUnits="userSpaceOnUse" id="New_Pattern_8" viewBox="0.6 -30.2 28.8 28.8" style="overflow:visible;">
	<g>
		<rect x="0.6" y="-30.2" class="st0" width="28.8" height="28.8"/>
		<g>
			<g>
				<path class="st2" d="M29.8,0c0.6,0,1-0.4,1-1c0-0.6-0.4-1-1-1c-0.6,0-1,0.4-1,1C28.8-0.4,29.2,0,29.8,0z"/>
				<path class="st2" d="M19.8,0c0.6,0,1-0.4,1-1c0-0.6-0.4-1-1-1c-0.6,0-1,0.4-1,1C18.8-0.4,19.2,0,19.8,0z"/>
				<path class="st2" d="M29.8-10c0.6,0,1-0.5,1-1c0-0.6-0.4-1-1-1c-0.6,0-1,0.4-1,1C28.8-10.5,29.2-10,29.8-10z"/>
				<path class="st2" d="M19.8-10c0.6,0,1-0.5,1-1c0-0.6-0.4-1-1-1c-0.6,0-1,0.4-1,1C18.8-10.5,19.2-10,19.8-10z"/>
				<path class="st2" d="M14.8-5c0.6,0,1-0.4,1-1c0-0.6-0.4-1-1-1c-0.6,0-1,0.4-1,1C13.7-5.5,14.2-5,14.8-5z"/>
				<path class="st2" d="M24.8-5c0.6,0,1-0.4,1-1c0-0.6-0.4-1-1-1c-0.6,0-1,0.4-1,1C23.8-5.5,24.2-5,24.8-5z"/>
				<path class="st2" d="M14.8-15.1c0.6,0,1-0.4,1-1c0-0.6-0.4-1-1-1c-0.6,0-1,0.4-1,1C13.7-15.5,14.2-15.1,14.8-15.1z"/>
				<path class="st2" d="M24.8-15.1c0.6,0,1-0.4,1-1c0-0.6-0.4-1-1-1c-0.6,0-1,0.4-1,1C23.8-15.5,24.2-15.1,24.8-15.1z"/>
			</g>
			<g>
				<path class="st2" d="M19.8,0c0.6,0,1-0.4,1-1c0-0.6-0.4-1-1-1c-0.6,0-1,0.4-1,1C18.8-0.4,19.2,0,19.8,0z"/>
				<path class="st2" d="M9.7,0c0.6,0,1-0.4,1-1c0-0.6-0.4-1-1-1c-0.6,0-1,0.4-1,1C8.7-0.4,9.2,0,9.7,0z"/>
				<path class="st2" d="M19.8-10c0.6,0,1-0.5,1-1c0-0.6-0.4-1-1-1c-0.6,0-1,0.4-1,1C18.8-10.5,19.2-10,19.8-10z"/>
				<path class="st2" d="M9.7-10c0.6,0,1-0.5,1-1c0-0.6-0.4-1-1-1c-0.6,0-1,0.4-1,1C8.7-10.5,9.2-10,9.7-10z"/>
				<path class="st2" d="M4.7-5c0.6,0,1-0.4,1-1c0-0.6-0.4-1-1-1c-0.6,0-1,0.4-1,1C3.7-5.5,4.1-5,4.7-5z"/>
				<path class="st2" d="M14.7-5c0.6,0,1-0.4,1-1c0-0.6-0.4-1-1-1c-0.6,0-1,0.4-1,1C13.7-5.5,14.2-5,14.7-5z"/>
				<path class="st2" d="M4.7-15.1c0.6,0,1-0.4,1-1c0-0.6-0.4-1-1-1c-0.6,0-1,0.4-1,1C3.7-15.5,4.1-15.1,4.7-15.1z"/>
				<path class="st2" d="M14.7-15.1c0.6,0,1-0.4,1-1c0-0.6-0.4-1-1-1c-0.6,0-1,0.4-1,1C13.7-15.5,14.2-15.1,14.7-15.1z"/>
			</g>
			<g>
				<path class="st2" d="M19.8-10c0.6,0,1-0.4,1-1c0-0.6-0.4-1-1-1c-0.6,0-1,0.4-1,1C18.8-10.5,19.2-10,19.8-10z"/>
				<path class="st2" d="M9.7-10c0.6,0,1-0.4,1-1c0-0.6-0.4-1-1-1c-0.6,0-1,0.4-1,1C8.7-10.5,9.2-10,9.7-10z"/>
				<path class="st2" d="M19.8-20.1c0.6,0,1-0.5,1-1c0-0.6-0.4-1-1-1c-0.6,0-1,0.4-1,1C18.8-20.5,19.2-20.1,19.8-20.1z"/>
				<path class="st2" d="M9.7-20.1c0.6,0,1-0.5,1-1c0-0.6-0.4-1-1-1c-0.6,0-1,0.4-1,1C8.7-20.5,9.2-20.1,9.7-20.1z"/>
				<path class="st2" d="M4.7-15.1c0.6,0,1-0.4,1-1c0-0.6-0.4-1-1-1c-0.6,0-1,0.4-1,1C3.7-15.5,4.1-15.1,4.7-15.1z"/>
				<path class="st2" d="M14.7-15.1c0.6,0,1-0.4,1-1c0-0.6-0.4-1-1-1c-0.6,0-1,0.4-1,1C13.7-15.5,14.2-15.1,14.7-15.1z"/>
				<path class="st2" d="M4.7-25.1c0.6,0,1-0.4,1-1c0-0.6-0.4-1-1-1c-0.6,0-1,0.4-1,1C3.7-25.5,4.1-25.1,4.7-25.1z"/>
				<path class="st2" d="M14.7-25.1c0.6,0,1-0.4,1-1c0-0.6-0.4-1-1-1c-0.6,0-1,0.4-1,1C13.7-25.5,14.2-25.1,14.7-25.1z"/>
			</g>
			<g>
				<path class="st2" d="M29.8-10c0.6,0,1-0.4,1-1c0-0.6-0.4-1-1-1c-0.6,0-1,0.4-1,1C28.8-10.5,29.2-10,29.8-10z"/>
				<path class="st2" d="M19.8-10c0.6,0,1-0.4,1-1c0-0.6-0.4-1-1-1c-0.6,0-1,0.4-1,1C18.8-10.5,19.2-10,19.8-10z"/>
				<path class="st2" d="M29.8-20.1c0.6,0,1-0.5,1-1c0-0.6-0.4-1-1-1c-0.6,0-1,0.4-1,1C28.8-20.5,29.2-20.1,29.8-20.1z"/>
				<path class="st2" d="M19.8-20.1c0.6,0,1-0.5,1-1c0-0.6-0.4-1-1-1c-0.6,0-1,0.4-1,1C18.8-20.5,19.2-20.1,19.8-20.1z"/>
				<path class="st2" d="M14.8-15.1c0.6,0,1-0.4,1-1c0-0.6-0.4-1-1-1c-0.6,0-1,0.4-1,1C13.7-15.5,14.2-15.1,14.8-15.1z"/>
				<path class="st2" d="M24.8-15.1c0.6,0,1-0.4,1-1c0-0.6-0.4-1-1-1c-0.6,0-1,0.4-1,1C23.8-15.5,24.2-15.1,24.8-15.1z"/>
				<path class="st2" d="M14.8-25.1c0.6,0,1-0.4,1-1c0-0.6-0.4-1-1-1c-0.6,0-1,0.4-1,1C13.7-25.5,14.2-25.1,14.8-25.1z"/>
				<path class="st2" d="M24.8-25.1c0.6,0,1-0.4,1-1c0-0.6-0.4-1-1-1c-0.6,0-1,0.4-1,1C23.8-25.5,24.2-25.1,24.8-25.1z"/>
			</g>
		</g>
		<g>
			<g>
				<path class="st2" d="M1,0c0.6,0,1-0.4,1-1c0-0.6-0.4-1-1-1C0.4-2,0-1.6,0-1C0-0.4,0.4,0,1,0z"/>
				<path class="st2" d="M1-10c0.6,0,1-0.5,1-1c0-0.6-0.4-1-1-1c-0.6,0-1,0.4-1,1C0-10.5,0.4-10,1-10z"/>
			</g>
			<g>
				<path class="st2" d="M1-10c0.6,0,1-0.4,1-1c0-0.6-0.4-1-1-1c-0.6,0-1,0.4-1,1C0-10.5,0.4-10,1-10z"/>
				<path class="st2" d="M1-20.1c0.6,0,1-0.5,1-1c0-0.6-0.4-1-1-1c-0.6,0-1,0.4-1,1C0-20.5,0.4-20.1,1-20.1z"/>
			</g>
		</g>
		<g>
			<g>
				<path class="st2" d="M29.8-28.8c0.6,0,1-0.4,1-1c0-0.6-0.4-1-1-1c-0.6,0-1,0.4-1,1C28.8-29.2,29.2-28.8,29.8-28.8z"/>
				<path class="st2" d="M19.8-28.8c0.6,0,1-0.4,1-1c0-0.6-0.4-1-1-1c-0.6,0-1,0.4-1,1C18.8-29.2,19.2-28.8,19.8-28.8z"/>
			</g>
			<g>
				<path class="st2" d="M19.8-28.8c0.6,0,1-0.4,1-1c0-0.6-0.4-1-1-1c-0.6,0-1,0.4-1,1C18.8-29.2,19.2-28.8,19.8-28.8z"/>
				<path class="st2" d="M9.7-28.8c0.6,0,1-0.4,1-1c0-0.6-0.4-1-1-1c-0.6,0-1,0.4-1,1C8.7-29.2,9.2-28.8,9.7-28.8z"/>
			</g>
		</g>
		<g>
			<g>
				<path class="st2" d="M1-28.8c0.6,0,1-0.4,1-1c0-0.6-0.4-1-1-1c-0.6,0-1,0.4-1,1C0-29.2,0.4-28.8,1-28.8z"/>
			</g>
		</g>
	</g>
</pattern>
<g>
	<g>
		<polygon class="st3" points="0,88.5 0,88.6 72.8,130.6 145.7,88.5 145.7,4.4 		"/>
	</g>
	<g>
		<polygon class="st3" points="70.8,218.8 70.8,134.7 0,93.8 0,259.6 		"/>
	</g>
	<g>
		<polygon class="st3" points="149.7,345.2 292.5,262.7 222.6,222.4 149.7,264.5 		"/>
	</g>
	<g>
		<polygon class="st3" points="3.8,262.2 145.7,344.2 145.7,264.5 72.8,222.4 		"/>
	</g>
	<g>
		<polygon class="st3" points="149.7,4.3 149.7,88.5 222.6,130.6 295.5,88.5 295.5,87.6 150.5,3.9 		"/>
	</g>
	<g>
		<polygon class="st3" points="296.6,260.3 297.1,260.1 297.1,92.9 224.6,134.7 224.6,218.8 		"/>
	</g>
	<g>
		<polygon class="st3" points="220.6,218.8 220.6,134.7 147.7,92.6 74.8,134.7 74.8,218.8 147.7,260.9 		"/>
		<polygon class="st3" points="220.6,218.8 220.6,134.7 147.7,92.6 74.8,134.7 74.8,218.8 147.7,260.9 		"/>
	</g>
</g>
<polygon class="st3" points="227.3,300.8 297.1,260.5 297.1,225.5 227.3,265.8 "/>
<g>
	<g>
		<path class="st3" d="M-1888.5,282.5c-15.9-51.9-64.3-87.8-118.8-87.8c-54.7,0-102.6,35.6-118.7,87.3c-8.9-3.2-18.2-4.8-27.7-4.8
			c-38.7,0-71.9,26.6-80.7,63.8c-34.5,1.3-46.1,25.3-53.8,59.2c-0.3,1.5,0,3.1,1,4.4c1,1.2,2.5,1.9,4,1.9h435.2
			c2.5,0,4.7-1.8,5.1-4.3c1.1-6.3,19.1-12.1,19.1-17.8C-1823.6,335.2-1840.6,292.8-1888.5,282.5z M-2295.7,394.3
			c0,30.1,24.4,54.5,54.5,54.5c30.1,0,54.5-24.4,54.5-54.5c0-30.1-24.4-54.5-54.5-54.5C-2271.3,339.8-2295.7,364.2-2295.7,394.3z
			 M-1971.6,364.6c0,46.5,37.7,84.1,84.1,84.1s84.1-37.7,84.1-84.1s-37.7-84.1-84.1-84.1S-1971.6,318.1-1971.6,364.6z
			 M-1887.5,390.3h-356.4v58.4h356.4V390.3z"/>
		<g>
			<defs>
				<path id="SVGID_1_" d="M-2298.3,402.9c57.1-63.1,130.8-21.6,130.8-21.6c-24.9-42-66.7-40.2-66.7-40.2
					c107.4-52.4,170.6-3.4,170.6-3.4c-23.7-45.7-62.2-55.7-62.2-55.7c87.1-68.1,195.1-65.2,226.3-31.6
					c35.3,38.2,15.9,13.1,15.9,13.1c2.4-9.6-4.7,19-4.7,19c9.2,28.2,5.5,50.6,5.5,50.6c19.2-4,70.2,27.4,75.3,69.2l12-101.7
					l-163.7-234l-331.3,293.7L-2298.3,402.9z"/>
			</defs>
			<clipPath id="SVGID_2_">
				<use xlink:href="#SVGID_1_"  style="overflow:visible;"/>
			</clipPath>
			<pattern  id="SVGID_3_" xlink:href="#New_Pattern_8" patternTransform="matrix(1.7521 0 0 1.7521 4135.1714 5735.6484)">
			</pattern>
			<path class="st4" d="M-1888.5,282.5c-15.9-51.9-64.3-87.8-118.8-87.8c-54.7,0-102.6,35.6-118.7,87.3c-8.9-3.2-18.2-4.8-27.7-4.8
				c-38.7,0-71.9,26.6-80.7,63.8c-34.5,1.3-63.6,25.3-71.3,59.2c-0.3,1.5,0,3.1,1,4.4c1,1.2,2.5,1.9,4,1.9h487.8
				c2.5,0,4.7-1.8,5.1-4.3c1.1-6.3,5.1-27.9,5.1-33.5C-1802.6,319.4-1848.1,272.6-1888.5,282.5z"/>
		</g>
	</g>
</g>
<g>
	<defs>
		<polygon id="SVGID_4_" points="496,364.9 496,193.3 347.4,107.5 198.9,193.3 198.9,364.9 347.4,450.6 		"/>
	</defs>
	<clipPath id="SVGID_5_">
		<use xlink:href="#SVGID_4_"  style="overflow:visible;"/>
	</clipPath>
	<g class="st5">
		<polygon class="st2" points="200.9,363.7 200.9,194.5 347.4,109.9 494,194.5 494,363.7 347.4,448.3 		"/>
		<path class="st3" d="M347.4,112.2L492,195.6v166.9L347.4,446l-144.6-83.5V195.6L347.4,112.2 M347.4,107.5l-148.6,85.8v171.5
			l148.6,85.8L496,364.9V193.3L347.4,107.5L347.4,107.5z"/>
	</g>
	<g class="st5">
		<g>
			<polygon class="st6" points="346.6,454.5 346.6,368 271.7,324.7 196.8,368 196.8,454.5 271.7,497.7 			"/>
			<polygon class="st6" points="346.6,194.4 346.6,108 271.7,64.7 196.8,108 196.8,194.4 271.7,237.7 			"/>
			<polygon class="st6" points="421.5,324.9 421.5,238.4 346.6,195.1 271.7,238.4 271.7,324.9 346.6,368.1 			"/>
			<polygon class="st6" points="271.7,324.9 271.7,238.4 196.8,195.1 121.9,238.4 121.9,324.9 196.8,368.1 			"/>
		</g>
		<g>
			<polygon class="st6" points="496.4,454.5 496.4,368 421.5,324.7 346.6,368 346.6,454.5 421.5,497.7 			"/>
			<polygon class="st6" points="496.4,194.4 496.4,108 421.5,64.7 346.6,108 346.6,194.4 421.5,237.7 			"/>
			<polygon class="st6" points="571.3,324.9 571.3,238.4 496.4,195.1 421.5,238.4 421.5,324.9 496.4,368.1 			"/>
			<polygon class="st6" points="421.5,324.9 421.5,238.4 346.6,195.1 271.7,238.4 271.7,324.9 346.6,368.1 			"/>
		</g>
	</g>
	<g class="st5">
		<rect x="269.8" y="206.9" class="st2" width="153.4" height="19.8"/>
		<path class="st3" d="M439.9,195.3c0-2.8-2.3-5.1-5.1-5.1H259c-2.8,0-5.1,2.3-5.1,5.1v43.7h186V195.3z M279.2,220.7
			c-2.8,0-5.1-2.3-5.1-5.1s2.3-5.1,5.1-5.1h54.1c2.8,0,5.1,2.3,5.1,5.1s-2.3,5.1-5.1,5.1 M414.6,220.7h-27.1c-2.8,0-5.1-2.3-5.1-5.1
			v0c0-2.8,2.3-5.1,5.1-5.1h27.1c2.8,0,5.1,2.3,5.1,5.1v0C419.6,218.4,417.3,220.7,414.6,220.7z"/>
		<g>
			<path class="st2" d="M259,375.5c-1.7,0-3.1-1.4-3.1-3.1V241.1h182v131.3c0,1.7-1.4,3.1-3.1,3.1H259z"/>
			<path class="st3" d="M435.9,243.1v129.3c0,0.6-0.5,1.1-1.1,1.1H259c-0.6,0-1.1-0.5-1.1-1.1V243.1H435.9 M439.9,239.1h-186v133.3
				c0,2.8,2.3,5.1,5.1,5.1h175.9c2.8,0,5.1-2.3,5.1-5.1V239.1L439.9,239.1z"/>
		</g>
		<g>
			<pattern  id="SVGID_6_" xlink:href="#New_Pattern_6" patternTransform="matrix(2.4 0 0 2.4 7805.5239 10382.6934)">
			</pattern>
			<rect x="280.1" y="265.5" class="st7" width="35" height="85.8"/>
			<path class="st3" d="M313,267.5v81.8h-31v-81.8H313 M317,263.5h-39v89.8h39V263.5L317,263.5z"/>
		</g>
		<g>
			<pattern  id="SVGID_7_" xlink:href="#New_Pattern_6" patternTransform="matrix(2.4 0 0 2.4 7805.5239 10382.6934)">
			</pattern>
			<rect x="339.9" y="265.5" class="st8" width="73.5" height="85.8"/>
			<path class="st3" d="M411.3,267.5v81.8h-69.5v-81.8H411.3 M415.3,263.5h-77.5v89.8h77.5V263.5L415.3,263.5z"/>
		</g>
	</g>
</g>
<g>
	<defs>
		<path id="SVGID_8_" d="M145.7,4.4v84.1l-72.9,42.1L0,88.6v0L145.7,4.4z M70.8,218.8v-84L0,93.8v165.8L70.8,218.8z M149.7,345.2
			l142.8-82.4l-69.9-40.4l-72.9,42.1V345.2z M3.8,262.2l141.9,81.9v-79.7l-72.9-42.1L3.8,262.2z M149.7,4.3v84.2l72.9,42.1
			l72.9-42.1v-0.9l-145-83.7L149.7,4.3z M296.6,260.3l0.5-0.3V92.9l-72.5,41.9v84L296.6,260.3z M220.6,218.8v-84l-72.9-42.1
			l-72.9,42.1v84l72.9,42.1L220.6,218.8z"/>
	</defs>
	<clipPath id="SVGID_9_">
		<use xlink:href="#SVGID_8_"  style="overflow:visible;"/>
	</clipPath>
	<pattern  id="SVGID_10_" xlink:href="#New_Pattern_8" patternTransform="matrix(-1.6316 0 0 1.6316 -14891.0928 4741.7026)">
	</pattern>
	<polygon class="st9" points="476,353.9 476,182.3 327.4,96.5 178.9,182.3 178.9,353.9 327.4,439.6 	"/>
</g>
<g>
	<defs>
		<polygon id="SVGID_11_" points="499,364.9 499,193.3 350.4,107.5 201.9,193.3 201.9,364.9 350.4,450.6 		"/>
	</defs>
	<clipPath id="SVGID_12_">
		<use xlink:href="#SVGID_11_"  style="overflow:visible;"/>
	</clipPath>
	<g class="st10">
		<polygon class="st2" points="203.6,363.6 203.6,194.4 350.2,109.7 496.7,194.4 496.7,363.6 350.2,448.2 		"/>
		<path class="st3" d="M350.2,112.1l144.6,83.5v166.9l-144.6,83.5l-144.6-83.5V195.5L350.2,112.1 M350.2,107.4l-148.6,85.8v171.5
			l148.6,85.8l148.6-85.8V193.2L350.2,107.4L350.2,107.4z"/>
	</g>
	<g class="st10">
		<rect x="273" y="202" class="st2" width="153.4" height="19.8"/>
		<path class="st3" d="M443.2,190.4c0-2.8-2.3-5.1-5.1-5.1H262.2c-2.8,0-5.1,2.3-5.1,5.1v43.7h186V190.4z M282.5,215.8
			c-2.8,0-5.1-2.3-5.1-5.1s2.3-5.1,5.1-5.1h54.1c2.8,0,5.1,2.3,5.1,5.1s-2.3,5.1-5.1,5.1 M417.8,215.8h-27.1c-2.8,0-5.1-2.3-5.1-5.1
			v0c0-2.8,2.3-5.1,5.1-5.1h27.1c2.8,0,5.1,2.3,5.1,5.1v0C422.9,213.5,420.6,215.8,417.8,215.8z"/>
		<g>
			<path class="st2" d="M262.2,370.6c-1.7,0-3.1-1.4-3.1-3.1V236.2h182v131.3c0,1.7-1.4,3.1-3.1,3.1H262.2z"/>
			<path class="st3" d="M439.2,238.2v129.3c0,0.6-0.5,1.1-1.1,1.1H262.2c-0.6,0-1.1-0.5-1.1-1.1V238.2H439.2 M443.2,234.2h-186
				v133.3c0,2.8,2.3,5.1,5.1,5.1h175.9c2.8,0,5.1-2.3,5.1-5.1V234.2L443.2,234.2z"/>
		</g>
		<g>
			<pattern  id="SVGID_13_" xlink:href="#New_Pattern_6" patternTransform="matrix(2.4 0 0 2.4 7808.7979 10377.7949)">
			</pattern>
			<rect x="283.3" y="260.6" class="st11" width="35" height="85.8"/>
			<path class="st3" d="M316.3,262.6v81.8h-31v-81.8H316.3 M320.3,258.6h-39v89.8h39V258.6L320.3,258.6z"/>
		</g>
		<g>
			<pattern  id="SVGID_14_" xlink:href="#New_Pattern_6" patternTransform="matrix(2.4 0 0 2.4 7808.7979 10377.7949)">
			</pattern>
			<rect x="343.2" y="260.6" class="st12" width="73.5" height="85.8"/>
			<path class="st3" d="M414.6,262.6v81.8h-69.5v-81.8H414.6 M418.6,258.6h-77.5v89.8h77.5V258.6L418.6,258.6z"/>
		</g>
	</g>
</g>
</svg>
