<?xml version="1.0" encoding="utf-8"?>
<!-- Generator: Adobe Illustrator 23.0.1, SVG Export Plug-In . SVG Version: 6.00 Build 0)  -->
<svg version="1.1" id="Layer_1" xmlns="http://www.w3.org/2000/svg" xmlns:xlink="http://www.w3.org/1999/xlink" x="0px" y="0px"
	 viewBox="0 0 500 500" style="enable-background:new 0 0 500 500;" xml:space="preserve">
<style type="text/css">
	.st0{fill:none;}
	.st1{fill:#E80000;}
	.st2{fill:#FFFFFF;}
	.st3{fill:none;stroke:#EE0000;stroke-width:4;stroke-linecap:round;stroke-linejoin:round;stroke-miterlimit:10;}
	.st4{fill:#EE0000;}
	.st5{clip-path:url(#SVGID_2_);fill:url(#SVGID_3_);}
	.st6{clip-path:url(#SVGID_5_);}
	.st7{fill:url(#SVGID_6_);}
</style>
<pattern  x="-1736.9" width="28.8" height="28.8" patternUnits="userSpaceOnUse" id="New_Pattern_6" viewBox="0 -30.2 28.8 28.8" style="overflow:visible;">
	<g>
		<rect y="-30.2" class="st0" width="28.8" height="28.8"/>
		<g>
			<g>
				<path class="st1" d="M29.5,0c0.4,0,0.7-0.3,0.7-0.7c0-0.4-0.3-0.7-0.7-0.7c-0.4,0-0.7,0.3-0.7,0.7C28.8-0.3,29.1,0,29.5,0z"/>
				<path class="st1" d="M22.5,0c0.4,0,0.7-0.3,0.7-0.7c0-0.4-0.3-0.7-0.7-0.7c-0.4,0-0.7,0.3-0.7,0.7C21.8-0.3,22.1,0,22.5,0z"/>
				<path class="st1" d="M29.5-7c0.4,0,0.7-0.3,0.7-0.7c0-0.4-0.3-0.7-0.7-0.7c-0.4,0-0.7,0.3-0.7,0.7C28.8-7.4,29.1-7,29.5-7z"/>
				<path class="st1" d="M22.5-7c0.4,0,0.7-0.3,0.7-0.7c0-0.4-0.3-0.7-0.7-0.7c-0.4,0-0.7,0.3-0.7,0.7C21.8-7.4,22.1-7,22.5-7z"/>
				<path class="st1" d="M19-3.5c0.4,0,0.7-0.3,0.7-0.7c0-0.4-0.3-0.7-0.7-0.7c-0.4,0-0.7,0.3-0.7,0.7C18.3-3.8,18.6-3.5,19-3.5z"/>
				<path class="st1" d="M26-3.5c0.4,0,0.7-0.3,0.7-0.7c0-0.4-0.3-0.7-0.7-0.7c-0.4,0-0.7,0.3-0.7,0.7C25.3-3.8,25.6-3.5,26-3.5z"/>
				<path class="st1" d="M19-10.6c0.4,0,0.7-0.3,0.7-0.7c0-0.4-0.3-0.7-0.7-0.7c-0.4,0-0.7,0.3-0.7,0.7C18.3-10.9,18.6-10.6,19-10.6
					z"/>
				<path class="st1" d="M26-10.6c0.4,0,0.7-0.3,0.7-0.7c0-0.4-0.3-0.7-0.7-0.7c-0.4,0-0.7,0.3-0.7,0.7C25.3-10.9,25.6-10.6,26-10.6
					z"/>
			</g>
			<g>
				<path class="st1" d="M15.3,0C15.7,0,16-0.3,16-0.7c0-0.4-0.3-0.7-0.7-0.7c-0.4,0-0.7,0.3-0.7,0.7C14.6-0.3,15,0,15.3,0z"/>
				<path class="st1" d="M8.3,0C8.7,0,9-0.3,9-0.7c0-0.4-0.3-0.7-0.7-0.7c-0.4,0-0.7,0.3-0.7,0.7C7.6-0.3,7.9,0,8.3,0z"/>
				<path class="st1" d="M15.3-7C15.7-7,16-7.4,16-7.8c0-0.4-0.3-0.7-0.7-0.7c-0.4,0-0.7,0.3-0.7,0.7C14.6-7.4,15-7,15.3-7z"/>
				<path class="st1" d="M8.3-7C8.7-7,9-7.4,9-7.8c0-0.4-0.3-0.7-0.7-0.7c-0.4,0-0.7,0.3-0.7,0.7C7.6-7.4,7.9-7,8.3-7z"/>
				<path class="st1" d="M4.8-3.5c0.4,0,0.7-0.3,0.7-0.7c0-0.4-0.3-0.7-0.7-0.7c-0.4,0-0.7,0.3-0.7,0.7C4.1-3.8,4.4-3.5,4.8-3.5z"/>
				<path class="st1" d="M11.8-3.5c0.4,0,0.7-0.3,0.7-0.7c0-0.4-0.3-0.7-0.7-0.7c-0.4,0-0.7,0.3-0.7,0.7C11.1-3.8,11.4-3.5,11.8-3.5
					z"/>
				<path class="st1" d="M4.8-10.6c0.4,0,0.7-0.3,0.7-0.7c0-0.4-0.3-0.7-0.7-0.7c-0.4,0-0.7,0.3-0.7,0.7C4.1-10.9,4.4-10.6,4.8-10.6
					z"/>
				<path class="st1" d="M11.8-10.6c0.4,0,0.7-0.3,0.7-0.7c0-0.4-0.3-0.7-0.7-0.7c-0.4,0-0.7,0.3-0.7,0.7
					C11.1-10.9,11.4-10.6,11.8-10.6z"/>
			</g>
			<g>
				<path class="st1" d="M15.3-14.2c0.4,0,0.7-0.3,0.7-0.7c0-0.4-0.3-0.7-0.7-0.7c-0.4,0-0.7,0.3-0.7,0.7
					C14.6-14.5,15-14.2,15.3-14.2z"/>
				<path class="st1" d="M8.3-14.2c0.4,0,0.7-0.3,0.7-0.7c0-0.4-0.3-0.7-0.7-0.7c-0.4,0-0.7,0.3-0.7,0.7C7.6-14.5,7.9-14.2,8.3-14.2
					z"/>
				<path class="st1" d="M15.3-21.2c0.4,0,0.7-0.3,0.7-0.7c0-0.4-0.3-0.7-0.7-0.7c-0.4,0-0.7,0.3-0.7,0.7
					C14.6-21.6,15-21.2,15.3-21.2z"/>
				<path class="st1" d="M8.3-21.2c0.4,0,0.7-0.3,0.7-0.7c0-0.4-0.3-0.7-0.7-0.7c-0.4,0-0.7,0.3-0.7,0.7C7.6-21.6,7.9-21.2,8.3-21.2
					z"/>
				<path class="st1" d="M4.8-17.7c0.4,0,0.7-0.3,0.7-0.7c0-0.4-0.3-0.7-0.7-0.7c-0.4,0-0.7,0.3-0.7,0.7C4.1-18,4.4-17.7,4.8-17.7z"
					/>
				<path class="st1" d="M11.8-17.7c0.4,0,0.7-0.3,0.7-0.7c0-0.4-0.3-0.7-0.7-0.7c-0.4,0-0.7,0.3-0.7,0.7
					C11.1-18,11.4-17.7,11.8-17.7z"/>
				<path class="st1" d="M4.8-24.8c0.4,0,0.7-0.3,0.7-0.7c0-0.4-0.3-0.7-0.7-0.7c-0.4,0-0.7,0.3-0.7,0.7C4.1-25.1,4.4-24.8,4.8-24.8
					z"/>
				<path class="st1" d="M11.8-24.8c0.4,0,0.7-0.3,0.7-0.7c0-0.4-0.3-0.7-0.7-0.7c-0.4,0-0.7,0.3-0.7,0.7
					C11.1-25.1,11.4-24.8,11.8-24.8z"/>
			</g>
			<g>
				<path class="st1" d="M29.5-14.2c0.4,0,0.7-0.3,0.7-0.7c0-0.4-0.3-0.7-0.7-0.7c-0.4,0-0.7,0.3-0.7,0.7
					C28.8-14.5,29.1-14.2,29.5-14.2z"/>
				<path class="st1" d="M22.5-14.2c0.4,0,0.7-0.3,0.7-0.7c0-0.4-0.3-0.7-0.7-0.7c-0.4,0-0.7,0.3-0.7,0.7
					C21.8-14.5,22.1-14.2,22.5-14.2z"/>
				<path class="st1" d="M29.5-21.2c0.4,0,0.7-0.3,0.7-0.7c0-0.4-0.3-0.7-0.7-0.7c-0.4,0-0.7,0.3-0.7,0.7
					C28.8-21.6,29.1-21.2,29.5-21.2z"/>
				<path class="st1" d="M22.5-21.2c0.4,0,0.7-0.3,0.7-0.7c0-0.4-0.3-0.7-0.7-0.7c-0.4,0-0.7,0.3-0.7,0.7
					C21.8-21.6,22.1-21.2,22.5-21.2z"/>
				<path class="st1" d="M19-17.7c0.4,0,0.7-0.3,0.7-0.7c0-0.4-0.3-0.7-0.7-0.7c-0.4,0-0.7,0.3-0.7,0.7C18.3-18,18.6-17.7,19-17.7z"
					/>
				<path class="st1" d="M26-17.7c0.4,0,0.7-0.3,0.7-0.7c0-0.4-0.3-0.7-0.7-0.7c-0.4,0-0.7,0.3-0.7,0.7C25.3-18,25.6-17.7,26-17.7z"
					/>
				<path class="st1" d="M19-24.8c0.4,0,0.7-0.3,0.7-0.7c0-0.4-0.3-0.7-0.7-0.7c-0.4,0-0.7,0.3-0.7,0.7C18.3-25.1,18.6-24.8,19-24.8
					z"/>
				<path class="st1" d="M26-24.8c0.4,0,0.7-0.3,0.7-0.7c0-0.4-0.3-0.7-0.7-0.7c-0.4,0-0.7,0.3-0.7,0.7C25.3-25.1,25.6-24.8,26-24.8
					z"/>
			</g>
		</g>
		<g>
			<g>
				<path class="st1" d="M0.7-7c0.4,0,0.7-0.3,0.7-0.7c0-0.4-0.3-0.7-0.7-0.7C0.3-8.5,0-8.1,0-7.8C0-7.4,0.3-7,0.7-7z"/>
			</g>
			<g>
				<path class="st1" d="M0.7-14.2c0.4,0,0.7-0.3,0.7-0.7c0-0.4-0.3-0.7-0.7-0.7c-0.4,0-0.7,0.3-0.7,0.7C0-14.5,0.3-14.2,0.7-14.2z"
					/>
				<path class="st1" d="M0.7-21.2c0.4,0,0.7-0.3,0.7-0.7c0-0.4-0.3-0.7-0.7-0.7c-0.4,0-0.7,0.3-0.7,0.7C0-21.6,0.3-21.2,0.7-21.2z"
					/>
			</g>
		</g>
		<g>
			<g>
				<path class="st1" d="M22.5-28.8c0.4,0,0.7-0.3,0.7-0.7c0-0.4-0.3-0.7-0.7-0.7c-0.4,0-0.7,0.3-0.7,0.7
					C21.8-29.1,22.1-28.8,22.5-28.8z"/>
			</g>
			<g>
				<path class="st1" d="M15.3-28.8c0.4,0,0.7-0.3,0.7-0.7c0-0.4-0.3-0.7-0.7-0.7c-0.4,0-0.7,0.3-0.7,0.7
					C14.6-29.1,15-28.8,15.3-28.8z"/>
				<path class="st1" d="M8.3-28.8c0.4,0,0.7-0.3,0.7-0.7c0-0.4-0.3-0.7-0.7-0.7c-0.4,0-0.7,0.3-0.7,0.7C7.6-29.1,7.9-28.8,8.3-28.8
					z"/>
			</g>
		</g>
		<g>
			<g>
				<path class="st1" d="M0.7-28.8c0.4,0,0.7-0.3,0.7-0.7c0-0.4-0.3-0.7-0.7-0.7c-0.4,0-0.7,0.3-0.7,0.7C0-29.1,0.3-28.8,0.7-28.8z"
					/>
			</g>
		</g>
	</g>
</pattern>
<pattern  x="-1736.9" width="28.8" height="28.8" patternUnits="userSpaceOnUse" id="New_Pattern_8" viewBox="0.6 -30.2 28.8 28.8" style="overflow:visible;">
	<g>
		<rect x="0.6" y="-30.2" class="st0" width="28.8" height="28.8"/>
		<g>
			<g>
				<path class="st2" d="M29.8,0c0.6,0,1-0.4,1-1c0-0.6-0.4-1-1-1c-0.6,0-1,0.4-1,1C28.8-0.4,29.2,0,29.8,0z"/>
				<path class="st2" d="M19.8,0c0.6,0,1-0.4,1-1c0-0.6-0.4-1-1-1c-0.6,0-1,0.4-1,1C18.8-0.4,19.2,0,19.8,0z"/>
				<path class="st2" d="M29.8-10c0.6,0,1-0.5,1-1c0-0.6-0.4-1-1-1c-0.6,0-1,0.4-1,1C28.8-10.5,29.2-10,29.8-10z"/>
				<path class="st2" d="M19.8-10c0.6,0,1-0.5,1-1c0-0.6-0.4-1-1-1c-0.6,0-1,0.4-1,1C18.8-10.5,19.2-10,19.8-10z"/>
				<path class="st2" d="M14.8-5c0.6,0,1-0.4,1-1c0-0.6-0.4-1-1-1c-0.6,0-1,0.4-1,1C13.7-5.5,14.2-5,14.8-5z"/>
				<path class="st2" d="M24.8-5c0.6,0,1-0.4,1-1c0-0.6-0.4-1-1-1c-0.6,0-1,0.4-1,1C23.8-5.5,24.2-5,24.8-5z"/>
				<path class="st2" d="M14.8-15.1c0.6,0,1-0.4,1-1c0-0.6-0.4-1-1-1c-0.6,0-1,0.4-1,1C13.7-15.5,14.2-15.1,14.8-15.1z"/>
				<path class="st2" d="M24.8-15.1c0.6,0,1-0.4,1-1c0-0.6-0.4-1-1-1c-0.6,0-1,0.4-1,1C23.8-15.5,24.2-15.1,24.8-15.1z"/>
			</g>
			<g>
				<path class="st2" d="M19.8,0c0.6,0,1-0.4,1-1c0-0.6-0.4-1-1-1c-0.6,0-1,0.4-1,1C18.8-0.4,19.2,0,19.8,0z"/>
				<path class="st2" d="M9.7,0c0.6,0,1-0.4,1-1c0-0.6-0.4-1-1-1c-0.6,0-1,0.4-1,1C8.7-0.4,9.2,0,9.7,0z"/>
				<path class="st2" d="M19.8-10c0.6,0,1-0.5,1-1c0-0.6-0.4-1-1-1c-0.6,0-1,0.4-1,1C18.8-10.5,19.2-10,19.8-10z"/>
				<path class="st2" d="M9.7-10c0.6,0,1-0.5,1-1c0-0.6-0.4-1-1-1c-0.6,0-1,0.4-1,1C8.7-10.5,9.2-10,9.7-10z"/>
				<path class="st2" d="M4.7-5c0.6,0,1-0.4,1-1c0-0.6-0.4-1-1-1c-0.6,0-1,0.4-1,1C3.7-5.5,4.1-5,4.7-5z"/>
				<path class="st2" d="M14.7-5c0.6,0,1-0.4,1-1c0-0.6-0.4-1-1-1c-0.6,0-1,0.4-1,1C13.7-5.5,14.2-5,14.7-5z"/>
				<path class="st2" d="M4.7-15.1c0.6,0,1-0.4,1-1c0-0.6-0.4-1-1-1c-0.6,0-1,0.4-1,1C3.7-15.5,4.1-15.1,4.7-15.1z"/>
				<path class="st2" d="M14.7-15.1c0.6,0,1-0.4,1-1c0-0.6-0.4-1-1-1c-0.6,0-1,0.4-1,1C13.7-15.5,14.2-15.1,14.7-15.1z"/>
			</g>
			<g>
				<path class="st2" d="M19.8-10c0.6,0,1-0.4,1-1c0-0.6-0.4-1-1-1c-0.6,0-1,0.4-1,1C18.8-10.5,19.2-10,19.8-10z"/>
				<path class="st2" d="M9.7-10c0.6,0,1-0.4,1-1c0-0.6-0.4-1-1-1c-0.6,0-1,0.4-1,1C8.7-10.5,9.2-10,9.7-10z"/>
				<path class="st2" d="M19.8-20.1c0.6,0,1-0.5,1-1c0-0.6-0.4-1-1-1c-0.6,0-1,0.4-1,1C18.8-20.5,19.2-20.1,19.8-20.1z"/>
				<path class="st2" d="M9.7-20.1c0.6,0,1-0.5,1-1c0-0.6-0.4-1-1-1c-0.6,0-1,0.4-1,1C8.7-20.5,9.2-20.1,9.7-20.1z"/>
				<path class="st2" d="M4.7-15.1c0.6,0,1-0.4,1-1c0-0.6-0.4-1-1-1c-0.6,0-1,0.4-1,1C3.7-15.5,4.1-15.1,4.7-15.1z"/>
				<path class="st2" d="M14.7-15.1c0.6,0,1-0.4,1-1c0-0.6-0.4-1-1-1c-0.6,0-1,0.4-1,1C13.7-15.5,14.2-15.1,14.7-15.1z"/>
				<path class="st2" d="M4.7-25.1c0.6,0,1-0.4,1-1c0-0.6-0.4-1-1-1c-0.6,0-1,0.4-1,1C3.7-25.5,4.1-25.1,4.7-25.1z"/>
				<path class="st2" d="M14.7-25.1c0.6,0,1-0.4,1-1c0-0.6-0.4-1-1-1c-0.6,0-1,0.4-1,1C13.7-25.5,14.2-25.1,14.7-25.1z"/>
			</g>
			<g>
				<path class="st2" d="M29.8-10c0.6,0,1-0.4,1-1c0-0.6-0.4-1-1-1c-0.6,0-1,0.4-1,1C28.8-10.5,29.2-10,29.8-10z"/>
				<path class="st2" d="M19.8-10c0.6,0,1-0.4,1-1c0-0.6-0.4-1-1-1c-0.6,0-1,0.4-1,1C18.8-10.5,19.2-10,19.8-10z"/>
				<path class="st2" d="M29.8-20.1c0.6,0,1-0.5,1-1c0-0.6-0.4-1-1-1c-0.6,0-1,0.4-1,1C28.8-20.5,29.2-20.1,29.8-20.1z"/>
				<path class="st2" d="M19.8-20.1c0.6,0,1-0.5,1-1c0-0.6-0.4-1-1-1c-0.6,0-1,0.4-1,1C18.8-20.5,19.2-20.1,19.8-20.1z"/>
				<path class="st2" d="M14.8-15.1c0.6,0,1-0.4,1-1c0-0.6-0.4-1-1-1c-0.6,0-1,0.4-1,1C13.7-15.5,14.2-15.1,14.8-15.1z"/>
				<path class="st2" d="M24.8-15.1c0.6,0,1-0.4,1-1c0-0.6-0.4-1-1-1c-0.6,0-1,0.4-1,1C23.8-15.5,24.2-15.1,24.8-15.1z"/>
				<path class="st2" d="M14.8-25.1c0.6,0,1-0.4,1-1c0-0.6-0.4-1-1-1c-0.6,0-1,0.4-1,1C13.7-25.5,14.2-25.1,14.8-25.1z"/>
				<path class="st2" d="M24.8-25.1c0.6,0,1-0.4,1-1c0-0.6-0.4-1-1-1c-0.6,0-1,0.4-1,1C23.8-25.5,24.2-25.1,24.8-25.1z"/>
			</g>
		</g>
		<g>
			<g>
				<path class="st2" d="M1,0c0.6,0,1-0.4,1-1c0-0.6-0.4-1-1-1C0.4-2,0-1.6,0-1C0-0.4,0.4,0,1,0z"/>
				<path class="st2" d="M1-10c0.6,0,1-0.5,1-1c0-0.6-0.4-1-1-1c-0.6,0-1,0.4-1,1C0-10.5,0.4-10,1-10z"/>
			</g>
			<g>
				<path class="st2" d="M1-10c0.6,0,1-0.4,1-1c0-0.6-0.4-1-1-1c-0.6,0-1,0.4-1,1C0-10.5,0.4-10,1-10z"/>
				<path class="st2" d="M1-20.1c0.6,0,1-0.5,1-1c0-0.6-0.4-1-1-1c-0.6,0-1,0.4-1,1C0-20.5,0.4-20.1,1-20.1z"/>
			</g>
		</g>
		<g>
			<g>
				<path class="st2" d="M29.8-28.8c0.6,0,1-0.4,1-1c0-0.6-0.4-1-1-1c-0.6,0-1,0.4-1,1C28.8-29.2,29.2-28.8,29.8-28.8z"/>
				<path class="st2" d="M19.8-28.8c0.6,0,1-0.4,1-1c0-0.6-0.4-1-1-1c-0.6,0-1,0.4-1,1C18.8-29.2,19.2-28.8,19.8-28.8z"/>
			</g>
			<g>
				<path class="st2" d="M19.8-28.8c0.6,0,1-0.4,1-1c0-0.6-0.4-1-1-1c-0.6,0-1,0.4-1,1C18.8-29.2,19.2-28.8,19.8-28.8z"/>
				<path class="st2" d="M9.7-28.8c0.6,0,1-0.4,1-1c0-0.6-0.4-1-1-1c-0.6,0-1,0.4-1,1C8.7-29.2,9.2-28.8,9.7-28.8z"/>
			</g>
		</g>
		<g>
			<g>
				<path class="st2" d="M1-28.8c0.6,0,1-0.4,1-1c0-0.6-0.4-1-1-1c-0.6,0-1,0.4-1,1C0-29.2,0.4-28.8,1-28.8z"/>
			</g>
		</g>
	</g>
</pattern>
<path class="st3" d="M42.7,225.6c0-114.5,92.8-207.3,207.3-207.3c72.6,0,136.5,37.4,173.5,93.9"/>
<path class="st3" d="M457.3,225.6c0,114.5-92.8,207.3-207.3,207.3c-71.5,0-134.6-36.2-171.9-91.4"/>
<g>
	<g>
		<path class="st4" d="M-1325.8,282.5c-15.9-51.9-64.3-87.8-118.8-87.8c-54.7,0-102.6,35.6-118.7,87.3c-8.9-3.2-18.2-4.8-27.7-4.8
			c-38.7,0-71.9,26.6-80.7,63.8c-34.5,1.3-46.1,25.3-53.8,59.2c-0.3,1.5,0,3.1,1,4.4c1,1.2,2.5,1.9,4,1.9h435.2
			c2.5,0,4.7-1.8,5.1-4.3c1.1-6.3,19.1-12.1,19.1-17.8C-1261,335.2-1277.9,292.8-1325.8,282.5z M-1733.1,394.3
			c0,30.1,24.4,54.5,54.5,54.5c30.1,0,54.5-24.4,54.5-54.5c0-30.1-24.4-54.5-54.5-54.5C-1708.7,339.8-1733.1,364.2-1733.1,394.3z
			 M-1409,364.6c0,46.5,37.7,84.1,84.1,84.1s84.1-37.7,84.1-84.1s-37.7-84.1-84.1-84.1S-1409,318.1-1409,364.6z M-1324.9,390.3
			h-356.4v58.4h356.4V390.3z"/>
		<g>
			<defs>
				<path id="SVGID_1_" d="M-1735.7,402.9c57.1-63.1,130.8-21.6,130.8-21.6c-24.9-42-66.7-40.2-66.7-40.2
					c107.4-52.4,170.6-3.4,170.6-3.4c-23.7-45.7-62.2-55.7-62.2-55.7c87.1-68.1,195.1-65.2,226.3-31.6
					c35.3,38.2,15.9,13.1,15.9,13.1c2.4-9.6-4.7,19-4.7,19c9.2,28.2,5.5,50.6,5.5,50.6c19.2-4,70.2,27.4,75.3,69.2l12-101.7
					l-163.7-234l-331.3,293.7L-1735.7,402.9z"/>
			</defs>
			<clipPath id="SVGID_2_">
				<use xlink:href="#SVGID_1_"  style="overflow:visible;"/>
			</clipPath>
			<pattern  id="SVGID_3_" xlink:href="#New_Pattern_8" patternTransform="matrix(1.7521 0 0 1.7521 4558.2856 5735.6484)">
			</pattern>
			<path class="st5" d="M-1325.8,282.5c-15.9-51.9-64.3-87.8-118.8-87.8c-54.7,0-102.6,35.6-118.7,87.3c-8.9-3.2-18.2-4.8-27.7-4.8
				c-38.7,0-71.9,26.6-80.7,63.8c-34.5,1.3-63.6,25.3-71.3,59.2c-0.3,1.5,0,3.1,1,4.4c1,1.2,2.5,1.9,4,1.9h487.8
				c2.5,0,4.7-1.8,5.1-4.3c1.1-6.3,5.1-27.9,5.1-33.5C-1240,319.4-1285.5,272.6-1325.8,282.5z"/>
		</g>
	</g>
</g>
<g>
	<g>
		<rect x="26.7" y="28.6" class="st2" width="263.3" height="34"/>
		<path class="st4" d="M318.7,8.7c0-4.8-3.9-8.7-8.7-8.7H8.2C3.4,0-0.5,3.9-0.5,8.7v75.1h319.2V8.7z M43,52.2
			c-4.8,0-8.7-3.9-8.7-8.7s3.9-8.7,8.7-8.7h92.9c4.8,0,8.7,3.9,8.7,8.7s-3.9,8.7-8.7,8.7 M236.7,46.9c-0.5,1-1,2-1.8,2.8
			c-0.8,0.8-1.7,1.5-2.8,2c-1,0.4-2.2,0.6-3.4,0.6c-2.3,0-4.5-0.9-6.2-2.6c-1.6-1.6-2.6-3.8-2.6-6.2c0-1.2,0.2-2.2,0.7-3.2
			c0.4-1.2,1-2.1,1.9-2.9c2.4-2.3,6.3-3.1,9.5-1.9c1,0.5,2,1,2.8,1.9c0.8,0.8,1.4,1.7,1.8,2.9c0.5,1,0.7,2.1,0.7,3.2
			C237.4,44.7,237.2,45.8,236.7,46.9z M259.9,46.9c-0.3,1-1,2-1.8,2.8c-0.8,0.8-1.7,1.5-2.8,2c-1,0.4-2.2,0.6-3.4,0.6
			c-2.3,0-4.5-0.8-6.2-2.6c-0.8-0.8-1.5-1.7-1.9-2.8c-0.5-1-0.7-2.2-0.7-3.4c0-1.2,0.2-2.2,0.7-3.2c0.5-1.1,1-2.1,1.9-2.9
			c3.1-3.1,9.1-3.3,12.3,0c0.8,0.8,1.4,1.8,1.8,2.9c0.5,1,0.7,2.1,0.7,3.2C260.6,44.7,260.4,45.8,259.9,46.9z M281.3,49.6
			c-0.8,0.8-1.7,1.5-2.8,2c-1,0.4-2.2,0.6-3.4,0.6c-2.3,0-4.5-0.9-6.2-2.6c-1.6-1.6-2.6-3.8-2.6-6.2c0-2.2,0.9-4.5,2.6-6.1
			c2.4-2.4,6.3-3.3,9.5-1.9c1,0.5,2,1,2.8,1.9c1.6,1.6,2.6,3.9,2.6,6.1C283.8,45.8,282.9,48,281.3,49.6z"/>
		<g>
			<path class="st2" d="M8.2,319.2c-3.7,0-6.7-3-6.7-6.7V85.8h315.2v226.8c0,3.7-3,6.7-6.7,6.7H8.2z"/>
			<path class="st4" d="M314.7,87.8v224.8c0,2.6-2.1,4.7-4.7,4.7H8.2c-2.6,0-4.7-2.1-4.7-4.7V87.8H314.7 M318.7,83.8H-0.5v228.8
				c0,4.8,3.9,8.7,8.7,8.7H310c4.8,0,8.7-3.9,8.7-8.7V83.8L318.7,83.8z"/>
		</g>
	</g>
	<g>
		<circle class="st3" cx="65.4" cy="251.8" r="29.7"/>
	</g>
	<g>
		<line class="st3" x1="37.3" y1="124.3" x2="93.6" y2="180.5"/>
		<line class="st3" x1="93.6" y1="124.3" x2="37.3" y2="180.5"/>
	</g>
	<g>
		<circle class="st3" cx="157.1" cy="154" r="29.7"/>
	</g>
	<line class="st3" x1="113.2" y1="251.8" x2="237.4" y2="251.8"/>
	<g>
		<defs>
			<path id="SVGID_4_" d="M8.2,321.2H310c4.8,0,8.7-3.9,8.7-8.7V83.8H-0.5v228.8C-0.5,317.3,3.4,321.2,8.2,321.2z"/>
		</defs>
		<clipPath id="SVGID_5_">
			<use xlink:href="#SVGID_4_"  style="overflow:visible;"/>
		</clipPath>
		<g class="st6">
			<pattern  id="SVGID_6_" xlink:href="#New_Pattern_6" patternTransform="matrix(2.4 0 0 2.4 8602.1689 10389.6934)">
			</pattern>
			<path class="st7" d="M471.3,114.7H169.5c-4.8,0-8.7,3.9-8.7,8.7v72.1v232.8c0,4.8,3.9,8.7,8.7,8.7h301.8c4.8,0,8.7-3.9,8.7-8.7
				V195.5v-72.1C480,118.6,476.1,114.7,471.3,114.7z"/>
		</g>
	</g>
</g>
<g>
	<rect x="208.1" y="159.3" class="st2" width="263.3" height="34"/>
	<path class="st4" d="M500,139.4c0-4.8-3.9-8.7-8.7-8.7H189.5c-4.8,0-8.7,3.9-8.7,8.7v75.1H500V139.4z M224.4,183
		c-4.8,0-8.7-3.9-8.7-8.7s3.9-8.7,8.7-8.7h92.9c4.8,0,8.7,3.9,8.7,8.7s-3.9,8.7-8.7,8.7 M418.1,177.6c-0.5,1-1,2-1.8,2.8
		c-0.8,0.8-1.7,1.5-2.8,2c-1,0.4-2.2,0.6-3.4,0.6c-2.3,0-4.5-0.9-6.2-2.6c-1.6-1.6-2.6-3.8-2.6-6.2c0-1.2,0.2-2.2,0.7-3.2
		c0.4-1.2,1-2.1,1.9-2.9c2.4-2.3,6.3-3.1,9.5-1.9c1,0.5,2,1,2.8,1.9c0.8,0.8,1.4,1.7,1.8,2.9c0.5,1,0.7,2.1,0.7,3.2
		C418.8,175.4,418.5,176.5,418.1,177.6z M441.3,177.6c-0.3,1-1,2-1.8,2.8c-0.8,0.8-1.7,1.5-2.8,2c-1,0.4-2.2,0.6-3.4,0.6
		c-2.3,0-4.5-0.8-6.2-2.6c-0.8-0.8-1.5-1.7-1.9-2.8c-0.5-1-0.7-2.2-0.7-3.4c0-1.2,0.2-2.2,0.7-3.2c0.5-1.1,1-2.1,1.9-2.9
		c3.1-3.1,9.1-3.3,12.3,0c0.8,0.8,1.4,1.8,1.8,2.9c0.5,1,0.7,2.1,0.7,3.2C442,175.4,441.7,176.5,441.3,177.6z M462.6,180.4
		c-0.8,0.8-1.7,1.5-2.8,2c-1,0.4-2.2,0.6-3.4,0.6c-2.3,0-4.5-0.9-6.2-2.6c-1.6-1.6-2.6-3.8-2.6-6.2c0-2.2,0.9-4.5,2.6-6.1
		c2.4-2.4,6.3-3.3,9.5-1.9c1,0.5,2,1,2.8,1.9c1.6,1.6,2.6,3.9,2.6,6.1C465.2,176.5,464.3,178.7,462.6,180.4z"/>
	<g>
		<path class="st2" d="M189.5,450c-3.7,0-6.7-3-6.7-6.7V216.5H498v226.8c0,3.7-3,6.7-6.7,6.7H189.5z"/>
		<path class="st4" d="M496,218.5v224.8c0,2.6-2.1,4.7-4.7,4.7H189.5c-2.6,0-4.7-2.1-4.7-4.7V218.5H496 M500,214.5H180.8v228.8
			c0,4.8,3.9,8.7,8.7,8.7h301.8c4.8,0,8.7-3.9,8.7-8.7V214.5L500,214.5z"/>
	</g>
</g>
<g>
	<circle class="st3" cx="338.4" cy="382.5" r="29.7"/>
</g>
<g>
	<line class="st3" x1="246.8" y1="283.1" x2="274.9" y2="311.3"/>
	<line class="st3" x1="246.8" y1="283.1" x2="218.7" y2="311.3"/>
</g>
<g>
	<line class="st3" x1="310.3" y1="255" x2="366.5" y2="311.3"/>
	<line class="st3" x1="366.5" y1="255" x2="310.3" y2="311.3"/>
</g>
<g>
	<line class="st3" x1="401.9" y1="255" x2="458.2" y2="311.3"/>
	<line class="st3" x1="458.2" y1="255" x2="401.9" y2="311.3"/>
</g>
<polyline class="st3" points="291.9,382.5 246.8,382.5 246.8,284.7 "/>
</svg>
