<?xml version="1.0" encoding="utf-8"?>
<!-- Generator: Adobe Illustrator 23.0.1, SVG Export Plug-In . SVG Version: 6.00 Build 0)  -->
<svg version="1.1" id="Layer_1" xmlns="http://www.w3.org/2000/svg" xmlns:xlink="http://www.w3.org/1999/xlink" x="0px" y="0px"
	 viewBox="0 0 500 500" style="enable-background:new 0 0 500 500;" xml:space="preserve">
<style type="text/css">
	.st0{fill:none;}
	.st1{fill:#FFFFFF;}
	.st2{fill:#EE0000;}
	.st3{fill:none;stroke:#EE0000;stroke-width:4;stroke-linecap:round;stroke-linejoin:round;stroke-miterlimit:10;}
	.st4{clip-path:url(#SVGID_2_);fill:url(#SVGID_3_);}
</style>
<pattern  width="28.8" height="28.8" patternUnits="userSpaceOnUse" id="New_Pattern_8" viewBox="0.6 -30.2 28.8 28.8" style="overflow:visible;">
	<g>
		<rect x="0.6" y="-30.2" class="st0" width="28.8" height="28.8"/>
		<g>
			<g>
				<path class="st1" d="M29.8,0c0.6,0,1-0.4,1-1c0-0.6-0.4-1-1-1c-0.6,0-1,0.4-1,1C28.8-0.4,29.2,0,29.8,0z"/>
				<path class="st1" d="M19.8,0c0.6,0,1-0.4,1-1c0-0.6-0.4-1-1-1c-0.6,0-1,0.4-1,1C18.8-0.4,19.2,0,19.8,0z"/>
				<path class="st1" d="M29.8-10c0.6,0,1-0.5,1-1c0-0.6-0.4-1-1-1c-0.6,0-1,0.4-1,1C28.8-10.5,29.2-10,29.8-10z"/>
				<path class="st1" d="M19.8-10c0.6,0,1-0.5,1-1c0-0.6-0.4-1-1-1c-0.6,0-1,0.4-1,1C18.8-10.5,19.2-10,19.8-10z"/>
				<path class="st1" d="M14.8-5c0.6,0,1-0.4,1-1c0-0.6-0.4-1-1-1c-0.6,0-1,0.4-1,1C13.7-5.5,14.2-5,14.8-5z"/>
				<path class="st1" d="M24.8-5c0.6,0,1-0.4,1-1c0-0.6-0.4-1-1-1c-0.6,0-1,0.4-1,1C23.8-5.5,24.2-5,24.8-5z"/>
				<path class="st1" d="M14.8-15.1c0.6,0,1-0.4,1-1c0-0.6-0.4-1-1-1c-0.6,0-1,0.4-1,1C13.7-15.5,14.2-15.1,14.8-15.1z"/>
				<path class="st1" d="M24.8-15.1c0.6,0,1-0.4,1-1c0-0.6-0.4-1-1-1c-0.6,0-1,0.4-1,1C23.8-15.5,24.2-15.1,24.8-15.1z"/>
			</g>
			<g>
				<path class="st1" d="M19.8,0c0.6,0,1-0.4,1-1c0-0.6-0.4-1-1-1c-0.6,0-1,0.4-1,1C18.8-0.4,19.2,0,19.8,0z"/>
				<path class="st1" d="M9.7,0c0.6,0,1-0.4,1-1c0-0.6-0.4-1-1-1c-0.6,0-1,0.4-1,1C8.7-0.4,9.2,0,9.7,0z"/>
				<path class="st1" d="M19.8-10c0.6,0,1-0.5,1-1c0-0.6-0.4-1-1-1c-0.6,0-1,0.4-1,1C18.8-10.5,19.2-10,19.8-10z"/>
				<path class="st1" d="M9.7-10c0.6,0,1-0.5,1-1c0-0.6-0.4-1-1-1c-0.6,0-1,0.4-1,1C8.7-10.5,9.2-10,9.7-10z"/>
				<path class="st1" d="M4.7-5c0.6,0,1-0.4,1-1c0-0.6-0.4-1-1-1c-0.6,0-1,0.4-1,1C3.7-5.5,4.1-5,4.7-5z"/>
				<path class="st1" d="M14.7-5c0.6,0,1-0.4,1-1c0-0.6-0.4-1-1-1c-0.6,0-1,0.4-1,1C13.7-5.5,14.2-5,14.7-5z"/>
				<path class="st1" d="M4.7-15.1c0.6,0,1-0.4,1-1c0-0.6-0.4-1-1-1c-0.6,0-1,0.4-1,1C3.7-15.5,4.1-15.1,4.7-15.1z"/>
				<path class="st1" d="M14.7-15.1c0.6,0,1-0.4,1-1c0-0.6-0.4-1-1-1c-0.6,0-1,0.4-1,1C13.7-15.5,14.2-15.1,14.7-15.1z"/>
			</g>
			<g>
				<path class="st1" d="M19.8-10c0.6,0,1-0.4,1-1c0-0.6-0.4-1-1-1c-0.6,0-1,0.4-1,1C18.8-10.5,19.2-10,19.8-10z"/>
				<path class="st1" d="M9.7-10c0.6,0,1-0.4,1-1c0-0.6-0.4-1-1-1c-0.6,0-1,0.4-1,1C8.7-10.5,9.2-10,9.7-10z"/>
				<path class="st1" d="M19.8-20.1c0.6,0,1-0.5,1-1c0-0.6-0.4-1-1-1c-0.6,0-1,0.4-1,1C18.8-20.5,19.2-20.1,19.8-20.1z"/>
				<path class="st1" d="M9.7-20.1c0.6,0,1-0.5,1-1c0-0.6-0.4-1-1-1c-0.6,0-1,0.4-1,1C8.7-20.5,9.2-20.1,9.7-20.1z"/>
				<path class="st1" d="M4.7-15.1c0.6,0,1-0.4,1-1c0-0.6-0.4-1-1-1c-0.6,0-1,0.4-1,1C3.7-15.5,4.1-15.1,4.7-15.1z"/>
				<path class="st1" d="M14.7-15.1c0.6,0,1-0.4,1-1c0-0.6-0.4-1-1-1c-0.6,0-1,0.4-1,1C13.7-15.5,14.2-15.1,14.7-15.1z"/>
				<path class="st1" d="M4.7-25.1c0.6,0,1-0.4,1-1c0-0.6-0.4-1-1-1c-0.6,0-1,0.4-1,1C3.7-25.5,4.1-25.1,4.7-25.1z"/>
				<path class="st1" d="M14.7-25.1c0.6,0,1-0.4,1-1c0-0.6-0.4-1-1-1c-0.6,0-1,0.4-1,1C13.7-25.5,14.2-25.1,14.7-25.1z"/>
			</g>
			<g>
				<path class="st1" d="M29.8-10c0.6,0,1-0.4,1-1c0-0.6-0.4-1-1-1c-0.6,0-1,0.4-1,1C28.8-10.5,29.2-10,29.8-10z"/>
				<path class="st1" d="M19.8-10c0.6,0,1-0.4,1-1c0-0.6-0.4-1-1-1c-0.6,0-1,0.4-1,1C18.8-10.5,19.2-10,19.8-10z"/>
				<path class="st1" d="M29.8-20.1c0.6,0,1-0.5,1-1c0-0.6-0.4-1-1-1c-0.6,0-1,0.4-1,1C28.8-20.5,29.2-20.1,29.8-20.1z"/>
				<path class="st1" d="M19.8-20.1c0.6,0,1-0.5,1-1c0-0.6-0.4-1-1-1c-0.6,0-1,0.4-1,1C18.8-20.5,19.2-20.1,19.8-20.1z"/>
				<path class="st1" d="M14.8-15.1c0.6,0,1-0.4,1-1c0-0.6-0.4-1-1-1c-0.6,0-1,0.4-1,1C13.7-15.5,14.2-15.1,14.8-15.1z"/>
				<path class="st1" d="M24.8-15.1c0.6,0,1-0.4,1-1c0-0.6-0.4-1-1-1c-0.6,0-1,0.4-1,1C23.8-15.5,24.2-15.1,24.8-15.1z"/>
				<path class="st1" d="M14.8-25.1c0.6,0,1-0.4,1-1c0-0.6-0.4-1-1-1c-0.6,0-1,0.4-1,1C13.7-25.5,14.2-25.1,14.8-25.1z"/>
				<path class="st1" d="M24.8-25.1c0.6,0,1-0.4,1-1c0-0.6-0.4-1-1-1c-0.6,0-1,0.4-1,1C23.8-25.5,24.2-25.1,24.8-25.1z"/>
			</g>
		</g>
		<g>
			<g>
				<path class="st1" d="M1,0c0.6,0,1-0.4,1-1c0-0.6-0.4-1-1-1C0.4-2,0-1.6,0-1C0-0.4,0.4,0,1,0z"/>
				<path class="st1" d="M1-10c0.6,0,1-0.5,1-1c0-0.6-0.4-1-1-1c-0.6,0-1,0.4-1,1C0-10.5,0.4-10,1-10z"/>
			</g>
			<g>
				<path class="st1" d="M1-10c0.6,0,1-0.4,1-1c0-0.6-0.4-1-1-1c-0.6,0-1,0.4-1,1C0-10.5,0.4-10,1-10z"/>
				<path class="st1" d="M1-20.1c0.6,0,1-0.5,1-1c0-0.6-0.4-1-1-1c-0.6,0-1,0.4-1,1C0-20.5,0.4-20.1,1-20.1z"/>
			</g>
		</g>
		<g>
			<g>
				<path class="st1" d="M29.8-28.8c0.6,0,1-0.4,1-1c0-0.6-0.4-1-1-1c-0.6,0-1,0.4-1,1C28.8-29.2,29.2-28.8,29.8-28.8z"/>
				<path class="st1" d="M19.8-28.8c0.6,0,1-0.4,1-1c0-0.6-0.4-1-1-1c-0.6,0-1,0.4-1,1C18.8-29.2,19.2-28.8,19.8-28.8z"/>
			</g>
			<g>
				<path class="st1" d="M19.8-28.8c0.6,0,1-0.4,1-1c0-0.6-0.4-1-1-1c-0.6,0-1,0.4-1,1C18.8-29.2,19.2-28.8,19.8-28.8z"/>
				<path class="st1" d="M9.7-28.8c0.6,0,1-0.4,1-1c0-0.6-0.4-1-1-1c-0.6,0-1,0.4-1,1C8.7-29.2,9.2-28.8,9.7-28.8z"/>
			</g>
		</g>
		<g>
			<g>
				<path class="st1" d="M1-28.8c0.6,0,1-0.4,1-1c0-0.6-0.4-1-1-1c-0.6,0-1,0.4-1,1C0-29.2,0.4-28.8,1-28.8z"/>
			</g>
		</g>
	</g>
</pattern>
<g>
	<rect x="129" y="33.3" class="st1" width="290.9" height="37.5"/>
	<path class="st2" d="M451.6,11.3c0-5.3-4.3-9.6-9.6-9.6H108.5c-5.3,0-9.6,4.3-9.6,9.6v82.9h352.7V11.3z M147,59.4
		c-5.3,0-9.6-4.3-9.6-9.6s4.3-9.6,9.6-9.6h102.6c5.3,0,9.6,4.3,9.6,9.6s-4.3,9.6-9.6,9.6 M361,53.5c-0.5,1.2-1.2,2.2-2,3.1
		c-0.9,0.9-1.9,1.7-3.1,2.2c-1.2,0.4-2.4,0.6-3.7,0.6c-2.6,0-5-1-6.8-2.8c-1.8-1.8-2.8-4.2-2.8-6.8c0-1.3,0.3-2.4,0.8-3.6
		c0.4-1.3,1.2-2.3,2.1-3.2c2.7-2.6,6.9-3.5,10.5-2.1c1.2,0.5,2.2,1.2,3.1,2.1c0.9,0.9,1.5,1.9,2,3.2c0.5,1.2,0.8,2.3,0.8,3.6
		C361.8,51.1,361.5,52.3,361,53.5z M386.7,53.5c-0.4,1.2-1.2,2.2-2,3.1c-0.9,0.9-1.9,1.7-3.1,2.2c-1.2,0.4-2.4,0.6-3.7,0.6
		c-2.6,0-5-0.9-6.8-2.8c-0.9-0.9-1.7-1.9-2.1-3.1c-0.5-1.2-0.8-2.4-0.8-3.7c0-1.3,0.3-2.4,0.8-3.6c0.5-1.2,1.2-2.3,2.1-3.2
		c3.5-3.5,10-3.6,13.6,0c0.9,0.9,1.5,2,2,3.2c0.5,1.2,0.8,2.3,0.8,3.6C387.5,51.1,387.2,52.3,386.7,53.5z M410.3,56.6
		c-0.9,0.9-1.9,1.7-3.1,2.2c-1.2,0.4-2.4,0.6-3.7,0.6c-2.6,0-5-1-6.8-2.8c-1.8-1.8-2.8-4.2-2.8-6.8c0-2.4,1-5,2.8-6.8
		c2.7-2.7,6.9-3.6,10.5-2.1c1.2,0.5,2.2,1.2,3.1,2.1c1.8,1.8,2.8,4.4,2.8,6.8C413.1,52.3,412.1,54.8,410.3,56.6z"/>
	<g>
		<path class="st1" d="M108.5,383.4c-4.2,0-7.6-3.4-7.6-7.6V96.3h348.7v279.5c0,4.2-3.4,7.6-7.6,7.6H108.5z"/>
		<path class="st2" d="M447.6,98.3v277.5c0,3.1-2.5,5.6-5.6,5.6H108.5c-3.1,0-5.6-2.5-5.6-5.6V98.3H447.6 M451.6,94.3H98.9v281.5
			c0,5.3,4.3,9.6,9.6,9.6H442c5.3,0,9.6-4.3,9.6-9.6V94.3L451.6,94.3z"/>
	</g>
	<rect x="128.9" y="119.4" class="st3" width="104.3" height="204.9"/>
	<g>
		<path class="st2" d="M418,123.4v196.9H261.5V123.4H418 M422,119.4H257.5v204.9H422V119.4L422,119.4z"/>
	</g>
</g>
<g>
	<g>
		<path class="st2" d="M411.1,282.5c-15.9-51.9-64.3-87.8-118.8-87.8c-54.7,0-102.6,35.6-118.7,87.3c-8.9-3.2-18.2-4.8-27.7-4.8
			c-38.7,0-71.9,26.6-80.7,63.8c-34.5,1.3-46.1,25.3-53.8,59.2c-0.3,1.5,0,3.1,1,4.4c1,1.2,2.5,1.9,4,1.9h435.2
			c2.5,0,4.7-1.8,5.1-4.3c1.1-6.3,19.1-12.1,19.1-17.8C475.9,335.2,459,292.8,411.1,282.5z M3.9,394.3c0,30.1,24.4,54.5,54.5,54.5
			s54.5-24.4,54.5-54.5c0-30.1-24.4-54.5-54.5-54.5S3.9,364.2,3.9,394.3z M327.9,364.6c0,46.5,37.7,84.1,84.1,84.1
			s84.1-37.7,84.1-84.1s-37.7-84.1-84.1-84.1S327.9,318.1,327.9,364.6z M412.1,390.3H55.7v58.4h356.4V390.3z"/>
		<g>
			<defs>
				<path id="SVGID_1_" d="M1.2,402.9C58.3,339.8,132,381.3,132,381.3C107,339.3,65.2,341,65.2,341c107.4-52.4,170.6-3.4,170.6-3.4
					C212.1,292,173.6,282,173.6,282c87.1-68.1,195.1-65.2,226.3-31.6c35.3,38.2,15.9,13.1,15.9,13.1c2.4-9.6-4.7,19-4.7,19
					c9.2,28.2,5.5,50.6,5.5,50.6c19.2-4,70.2,27.4,75.3,69.2l12-101.7l-163.7-234L8.8,360.3L1.2,402.9z"/>
			</defs>
			<clipPath id="SVGID_2_">
				<use xlink:href="#SVGID_1_"  style="overflow:visible;"/>
			</clipPath>
			<pattern  id="SVGID_3_" xlink:href="#New_Pattern_8" patternTransform="matrix(1.7521 0 0 1.7521 5864.5669 5735.6484)">
			</pattern>
			<path class="st4" d="M411.1,282.5c-15.9-51.9-64.3-87.8-118.8-87.8c-54.7,0-102.6,35.6-118.7,87.3c-8.9-3.2-18.2-4.8-27.7-4.8
				c-38.7,0-71.9,26.6-80.7,63.8c-34.5,1.3-63.6,25.3-71.3,59.2c-0.3,1.5,0,3.1,1,4.4c1,1.2,2.5,1.9,4,1.9h487.8
				c2.5,0,4.7-1.8,5.1-4.3c1.1-6.3,5.1-27.9,5.1-33.5C496.9,319.4,451.4,272.6,411.1,282.5z"/>
		</g>
	</g>
</g>
</svg>
