<?xml version="1.0" encoding="utf-8"?>
<!-- Generator: Adobe Illustrator 23.0.1, SVG Export Plug-In . SVG Version: 6.00 Build 0)  -->
<svg version="1.1" id="Layer_1" xmlns="http://www.w3.org/2000/svg" xmlns:xlink="http://www.w3.org/1999/xlink" x="0px" y="0px"
	 viewBox="0 0 500 500" style="enable-background:new 0 0 500 500;" xml:space="preserve">
<style type="text/css">
	.st0{fill:none;}
	.st1{fill:#FFFFFF;}
	.st2{fill:none;stroke:#EE0000;stroke-width:4;stroke-linecap:round;stroke-linejoin:round;stroke-miterlimit:10;}
	.st3{fill:#EE0000;}
	.st4{clip-path:url(#SVGID_2_);fill:url(#SVGID_3_);}
	.st5{fill:#FFFFFF;stroke:#EE0000;stroke-width:4;stroke-linecap:round;stroke-linejoin:round;stroke-miterlimit:10;}
</style>
<pattern  x="-580.5" width="28.8" height="28.8" patternUnits="userSpaceOnUse" id="New_Pattern_8" viewBox="0.6 -30.2 28.8 28.8" style="overflow:visible;">
	<g>
		<rect x="0.6" y="-30.2" class="st0" width="28.8" height="28.8"/>
		<g>
			<g>
				<path class="st1" d="M29.8,0c0.6,0,1-0.4,1-1c0-0.6-0.4-1-1-1c-0.6,0-1,0.4-1,1C28.8-0.4,29.2,0,29.8,0z"/>
				<path class="st1" d="M19.8,0c0.6,0,1-0.4,1-1c0-0.6-0.4-1-1-1c-0.6,0-1,0.4-1,1C18.8-0.4,19.2,0,19.8,0z"/>
				<path class="st1" d="M29.8-10c0.6,0,1-0.5,1-1c0-0.6-0.4-1-1-1c-0.6,0-1,0.4-1,1C28.8-10.5,29.2-10,29.8-10z"/>
				<path class="st1" d="M19.8-10c0.6,0,1-0.5,1-1c0-0.6-0.4-1-1-1c-0.6,0-1,0.4-1,1C18.8-10.5,19.2-10,19.8-10z"/>
				<path class="st1" d="M14.8-5c0.6,0,1-0.4,1-1c0-0.6-0.4-1-1-1c-0.6,0-1,0.4-1,1C13.7-5.5,14.2-5,14.8-5z"/>
				<path class="st1" d="M24.8-5c0.6,0,1-0.4,1-1c0-0.6-0.4-1-1-1c-0.6,0-1,0.4-1,1C23.8-5.5,24.2-5,24.8-5z"/>
				<path class="st1" d="M14.8-15.1c0.6,0,1-0.4,1-1c0-0.6-0.4-1-1-1c-0.6,0-1,0.4-1,1C13.7-15.5,14.2-15.1,14.8-15.1z"/>
				<path class="st1" d="M24.8-15.1c0.6,0,1-0.4,1-1c0-0.6-0.4-1-1-1c-0.6,0-1,0.4-1,1C23.8-15.5,24.2-15.1,24.8-15.1z"/>
			</g>
			<g>
				<path class="st1" d="M19.8,0c0.6,0,1-0.4,1-1c0-0.6-0.4-1-1-1c-0.6,0-1,0.4-1,1C18.8-0.4,19.2,0,19.8,0z"/>
				<path class="st1" d="M9.7,0c0.6,0,1-0.4,1-1c0-0.6-0.4-1-1-1c-0.6,0-1,0.4-1,1C8.7-0.4,9.2,0,9.7,0z"/>
				<path class="st1" d="M19.8-10c0.6,0,1-0.5,1-1c0-0.6-0.4-1-1-1c-0.6,0-1,0.4-1,1C18.8-10.5,19.2-10,19.8-10z"/>
				<path class="st1" d="M9.7-10c0.6,0,1-0.5,1-1c0-0.6-0.4-1-1-1c-0.6,0-1,0.4-1,1C8.7-10.5,9.2-10,9.7-10z"/>
				<path class="st1" d="M4.7-5c0.6,0,1-0.4,1-1c0-0.6-0.4-1-1-1c-0.6,0-1,0.4-1,1C3.7-5.5,4.1-5,4.7-5z"/>
				<path class="st1" d="M14.7-5c0.6,0,1-0.4,1-1c0-0.6-0.4-1-1-1c-0.6,0-1,0.4-1,1C13.7-5.5,14.2-5,14.7-5z"/>
				<path class="st1" d="M4.7-15.1c0.6,0,1-0.4,1-1c0-0.6-0.4-1-1-1c-0.6,0-1,0.4-1,1C3.7-15.5,4.1-15.1,4.7-15.1z"/>
				<path class="st1" d="M14.7-15.1c0.6,0,1-0.4,1-1c0-0.6-0.4-1-1-1c-0.6,0-1,0.4-1,1C13.7-15.5,14.2-15.1,14.7-15.1z"/>
			</g>
			<g>
				<path class="st1" d="M19.8-10c0.6,0,1-0.4,1-1c0-0.6-0.4-1-1-1c-0.6,0-1,0.4-1,1C18.8-10.5,19.2-10,19.8-10z"/>
				<path class="st1" d="M9.7-10c0.6,0,1-0.4,1-1c0-0.6-0.4-1-1-1c-0.6,0-1,0.4-1,1C8.7-10.5,9.2-10,9.7-10z"/>
				<path class="st1" d="M19.8-20.1c0.6,0,1-0.5,1-1c0-0.6-0.4-1-1-1c-0.6,0-1,0.4-1,1C18.8-20.5,19.2-20.1,19.8-20.1z"/>
				<path class="st1" d="M9.7-20.1c0.6,0,1-0.5,1-1c0-0.6-0.4-1-1-1c-0.6,0-1,0.4-1,1C8.7-20.5,9.2-20.1,9.7-20.1z"/>
				<path class="st1" d="M4.7-15.1c0.6,0,1-0.4,1-1c0-0.6-0.4-1-1-1c-0.6,0-1,0.4-1,1C3.7-15.5,4.1-15.1,4.7-15.1z"/>
				<path class="st1" d="M14.7-15.1c0.6,0,1-0.4,1-1c0-0.6-0.4-1-1-1c-0.6,0-1,0.4-1,1C13.7-15.5,14.2-15.1,14.7-15.1z"/>
				<path class="st1" d="M4.7-25.1c0.6,0,1-0.4,1-1c0-0.6-0.4-1-1-1c-0.6,0-1,0.4-1,1C3.7-25.5,4.1-25.1,4.7-25.1z"/>
				<path class="st1" d="M14.7-25.1c0.6,0,1-0.4,1-1c0-0.6-0.4-1-1-1c-0.6,0-1,0.4-1,1C13.7-25.5,14.2-25.1,14.7-25.1z"/>
			</g>
			<g>
				<path class="st1" d="M29.8-10c0.6,0,1-0.4,1-1c0-0.6-0.4-1-1-1c-0.6,0-1,0.4-1,1C28.8-10.5,29.2-10,29.8-10z"/>
				<path class="st1" d="M19.8-10c0.6,0,1-0.4,1-1c0-0.6-0.4-1-1-1c-0.6,0-1,0.4-1,1C18.8-10.5,19.2-10,19.8-10z"/>
				<path class="st1" d="M29.8-20.1c0.6,0,1-0.5,1-1c0-0.6-0.4-1-1-1c-0.6,0-1,0.4-1,1C28.8-20.5,29.2-20.1,29.8-20.1z"/>
				<path class="st1" d="M19.8-20.1c0.6,0,1-0.5,1-1c0-0.6-0.4-1-1-1c-0.6,0-1,0.4-1,1C18.8-20.5,19.2-20.1,19.8-20.1z"/>
				<path class="st1" d="M14.8-15.1c0.6,0,1-0.4,1-1c0-0.6-0.4-1-1-1c-0.6,0-1,0.4-1,1C13.7-15.5,14.2-15.1,14.8-15.1z"/>
				<path class="st1" d="M24.8-15.1c0.6,0,1-0.4,1-1c0-0.6-0.4-1-1-1c-0.6,0-1,0.4-1,1C23.8-15.5,24.2-15.1,24.8-15.1z"/>
				<path class="st1" d="M14.8-25.1c0.6,0,1-0.4,1-1c0-0.6-0.4-1-1-1c-0.6,0-1,0.4-1,1C13.7-25.5,14.2-25.1,14.8-25.1z"/>
				<path class="st1" d="M24.8-25.1c0.6,0,1-0.4,1-1c0-0.6-0.4-1-1-1c-0.6,0-1,0.4-1,1C23.8-25.5,24.2-25.1,24.8-25.1z"/>
			</g>
		</g>
		<g>
			<g>
				<path class="st1" d="M1,0c0.6,0,1-0.4,1-1c0-0.6-0.4-1-1-1C0.4-2,0-1.6,0-1C0-0.4,0.4,0,1,0z"/>
				<path class="st1" d="M1-10c0.6,0,1-0.5,1-1c0-0.6-0.4-1-1-1c-0.6,0-1,0.4-1,1C0-10.5,0.4-10,1-10z"/>
			</g>
			<g>
				<path class="st1" d="M1-10c0.6,0,1-0.4,1-1c0-0.6-0.4-1-1-1c-0.6,0-1,0.4-1,1C0-10.5,0.4-10,1-10z"/>
				<path class="st1" d="M1-20.1c0.6,0,1-0.5,1-1c0-0.6-0.4-1-1-1c-0.6,0-1,0.4-1,1C0-20.5,0.4-20.1,1-20.1z"/>
			</g>
		</g>
		<g>
			<g>
				<path class="st1" d="M29.8-28.8c0.6,0,1-0.4,1-1c0-0.6-0.4-1-1-1c-0.6,0-1,0.4-1,1C28.8-29.2,29.2-28.8,29.8-28.8z"/>
				<path class="st1" d="M19.8-28.8c0.6,0,1-0.4,1-1c0-0.6-0.4-1-1-1c-0.6,0-1,0.4-1,1C18.8-29.2,19.2-28.8,19.8-28.8z"/>
			</g>
			<g>
				<path class="st1" d="M19.8-28.8c0.6,0,1-0.4,1-1c0-0.6-0.4-1-1-1c-0.6,0-1,0.4-1,1C18.8-29.2,19.2-28.8,19.8-28.8z"/>
				<path class="st1" d="M9.7-28.8c0.6,0,1-0.4,1-1c0-0.6-0.4-1-1-1c-0.6,0-1,0.4-1,1C8.7-29.2,9.2-28.8,9.7-28.8z"/>
			</g>
		</g>
		<g>
			<g>
				<path class="st1" d="M1-28.8c0.6,0,1-0.4,1-1c0-0.6-0.4-1-1-1c-0.6,0-1,0.4-1,1C0-29.2,0.4-28.8,1-28.8z"/>
			</g>
		</g>
	</g>
</pattern>
<path class="st2" d="M435.3,175.6c13,26.3,20.3,56,20.3,87.3c0,59.1-26,112.1-67.1,148.3"/>
<path class="st2" d="M123,406.6c-38.2-36-62-87-62-143.6c0-44.2,14.5-85,39.1-117.9"/>
<g>
	<g>
		<path class="st3" d="M26,179c0,5.3,16.8,10.7,17.8,16.5c0.4,2.3,2.4,4,4.7,4h405.3c1.5,0,2.8-0.7,3.8-1.8c0.9-1.1,1.3-2.6,0.9-4.1
			c-7.2-31.6-18-54-50.1-55.2c-8.2-34.7-39.1-59.5-75.1-59.5c-8.9,0-17.5,1.5-25.8,4.5C292.6,35.3,247.9,2.2,197,2.2
			c-50.8,0-95.8,33.5-110.6,81.8C41.7,93.6,26,133.1,26,179z M414.9,137.3c-28,0-50.7,22.7-50.7,50.7s22.7,50.7,50.7,50.7
			s50.7-22.7,50.7-50.7S442.9,137.3,414.9,137.3z M85.4,82.1c-43.3,0-78.3,35.1-78.3,78.3s35.1,78.3,78.3,78.3s78.3-35.1,78.3-78.3
			S128.7,82.1,85.4,82.1z M85.4,238.8h331.9v-54.4H85.4V238.8z"/>
		<g>
			<defs>
				<path id="SVGID_1_" d="M468.1,196.1C414.9,137.3,346.3,176,346.3,176c23.2-39.1,62.2-37.5,62.2-37.5
					c-100.1-48.8-158.9-3.2-158.9-3.2c22.1-42.6,57.9-51.8,57.9-51.8C226.4,20.1,125.8,22.8,96.7,54.1C63.8,89.6,82,66.3,82,66.3
					C79.8,57.3,86.4,84,86.4,84c-8.6,26.2-5.1,47.1-5.1,47.1c-17.9-3.7-65.4,25.5-70.1,64.4L0,100.8l152.4-218l308.5,273.5
					L468.1,196.1z"/>
			</defs>
			<clipPath id="SVGID_2_">
				<use xlink:href="#SVGID_1_"  style="overflow:visible;"/>
			</clipPath>
			<pattern  id="SVGID_3_" xlink:href="#New_Pattern_8" patternTransform="matrix(-1.6316 0 0 1.6316 -19424.0703 4724.7026)">
			</pattern>
			<path class="st4" d="M6.4,164.3c0,5.3,3.8,25.3,4.8,31.2c0.4,2.3,2.4,4,4.7,4h454.3c1.5,0,2.8-0.7,3.8-1.8
				c0.9-1.1,1.3-2.6,0.9-4.1c-7.2-31.6-34.3-54-66.4-55.2c-8.2-34.7-39.1-59.5-75.1-59.5c-8.9,0-17.5,1.5-25.8,4.5
				C292.6,35.3,247.9,2.2,197,2.2c-50.8,0-95.8,33.5-110.6,81.8C48.8,74.7,6.4,118.4,6.4,164.3z"/>
		</g>
	</g>
</g>
<path class="st5" d="M433.6,334.3c-3.6,0-7.1,0.3-10.5,1c-6.2-24.9-27.7-43.7-53.8-46c-14-54.4-63.4-94.7-122.2-94.7
	c-58.9,0-108.3,40.3-122.2,94.9c-39.6,4.3-70.4,37.8-70.4,78.5c0,43.6,35.3,78.9,78.9,78.9h300.2c31.1,0,56.3-25.2,56.3-56.3
	C489.9,359.5,464.7,334.3,433.6,334.3z"/>
<g>
	<circle class="st3" cx="245.1" cy="324.3" r="18.2"/>
	<path class="st3" d="M247.9,368h-5.6c-2.5,0-4.5-2-4.5-4.5v-31.1c0-2.5,2-4.5,4.5-4.5h5.6c2.5,0,4.5,2,4.5,4.5v31.1
		C252.4,366,250.4,368,247.9,368z"/>
</g>
</svg>
