<?xml version="1.0" encoding="utf-8"?>
<!-- Generator: Adobe Illustrator 23.0.1, SVG Export Plug-In . SVG Version: 6.00 Build 0)  -->
<svg version="1.1" id="Layer_1" xmlns="http://www.w3.org/2000/svg" xmlns:xlink="http://www.w3.org/1999/xlink" x="0px" y="0px"
	 viewBox="0 0 500 500" style="enable-background:new 0 0 500 500;" xml:space="preserve">
<style type="text/css">
	.st0{fill:none;}
	.st1{fill:#E80000;}
	.st2{fill:#FFFFFF;}
	.st3{fill:#FFFFFF;stroke:#EE0000;stroke-width:4;stroke-linecap:round;stroke-linejoin:round;stroke-miterlimit:10;}
	.st4{fill:#EE0000;}
	.st5{clip-path:url(#SVGID_2_);}
	.st6{fill:url(#SVGID_3_);}
	.st7{clip-path:url(#SVGID_5_);fill:url(#SVGID_6_);}
	.st8{fill:url(#SVGID_7_);}
	.st9{fill:#EE0000;stroke:#FFFFFF;stroke-width:4;stroke-linecap:round;stroke-linejoin:round;stroke-miterlimit:10;}
</style>
<pattern  x="-1163.2" width="28.8" height="28.8" patternUnits="userSpaceOnUse" id="New_Pattern_6" viewBox="0 -30.2 28.8 28.8" style="overflow:visible;">
	<g>
		<rect y="-30.2" class="st0" width="28.8" height="28.8"/>
		<g>
			<g>
				<path class="st1" d="M29.5,0c0.4,0,0.7-0.3,0.7-0.7c0-0.4-0.3-0.7-0.7-0.7c-0.4,0-0.7,0.3-0.7,0.7C28.8-0.3,29.1,0,29.5,0z"/>
				<path class="st1" d="M22.5,0c0.4,0,0.7-0.3,0.7-0.7c0-0.4-0.3-0.7-0.7-0.7c-0.4,0-0.7,0.3-0.7,0.7C21.8-0.3,22.1,0,22.5,0z"/>
				<path class="st1" d="M29.5-7c0.4,0,0.7-0.3,0.7-0.7c0-0.4-0.3-0.7-0.7-0.7c-0.4,0-0.7,0.3-0.7,0.7C28.8-7.4,29.1-7,29.5-7z"/>
				<path class="st1" d="M22.5-7c0.4,0,0.7-0.3,0.7-0.7c0-0.4-0.3-0.7-0.7-0.7c-0.4,0-0.7,0.3-0.7,0.7C21.8-7.4,22.1-7,22.5-7z"/>
				<path class="st1" d="M19-3.5c0.4,0,0.7-0.3,0.7-0.7c0-0.4-0.3-0.7-0.7-0.7c-0.4,0-0.7,0.3-0.7,0.7C18.3-3.8,18.6-3.5,19-3.5z"/>
				<path class="st1" d="M26-3.5c0.4,0,0.7-0.3,0.7-0.7c0-0.4-0.3-0.7-0.7-0.7c-0.4,0-0.7,0.3-0.7,0.7C25.3-3.8,25.6-3.5,26-3.5z"/>
				<path class="st1" d="M19-10.6c0.4,0,0.7-0.3,0.7-0.7c0-0.4-0.3-0.7-0.7-0.7c-0.4,0-0.7,0.3-0.7,0.7C18.3-10.9,18.6-10.6,19-10.6
					z"/>
				<path class="st1" d="M26-10.6c0.4,0,0.7-0.3,0.7-0.7c0-0.4-0.3-0.7-0.7-0.7c-0.4,0-0.7,0.3-0.7,0.7C25.3-10.9,25.6-10.6,26-10.6
					z"/>
			</g>
			<g>
				<path class="st1" d="M15.3,0C15.7,0,16-0.3,16-0.7c0-0.4-0.3-0.7-0.7-0.7c-0.4,0-0.7,0.3-0.7,0.7C14.6-0.3,15,0,15.3,0z"/>
				<path class="st1" d="M8.3,0C8.7,0,9-0.3,9-0.7c0-0.4-0.3-0.7-0.7-0.7c-0.4,0-0.7,0.3-0.7,0.7C7.6-0.3,7.9,0,8.3,0z"/>
				<path class="st1" d="M15.3-7C15.7-7,16-7.4,16-7.8c0-0.4-0.3-0.7-0.7-0.7c-0.4,0-0.7,0.3-0.7,0.7C14.6-7.4,15-7,15.3-7z"/>
				<path class="st1" d="M8.3-7C8.7-7,9-7.4,9-7.8c0-0.4-0.3-0.7-0.7-0.7c-0.4,0-0.7,0.3-0.7,0.7C7.6-7.4,7.9-7,8.3-7z"/>
				<path class="st1" d="M4.8-3.5c0.4,0,0.7-0.3,0.7-0.7c0-0.4-0.3-0.7-0.7-0.7c-0.4,0-0.7,0.3-0.7,0.7C4.1-3.8,4.4-3.5,4.8-3.5z"/>
				<path class="st1" d="M11.8-3.5c0.4,0,0.7-0.3,0.7-0.7c0-0.4-0.3-0.7-0.7-0.7c-0.4,0-0.7,0.3-0.7,0.7C11.1-3.8,11.4-3.5,11.8-3.5
					z"/>
				<path class="st1" d="M4.8-10.6c0.4,0,0.7-0.3,0.7-0.7c0-0.4-0.3-0.7-0.7-0.7c-0.4,0-0.7,0.3-0.7,0.7C4.1-10.9,4.4-10.6,4.8-10.6
					z"/>
				<path class="st1" d="M11.8-10.6c0.4,0,0.7-0.3,0.7-0.7c0-0.4-0.3-0.7-0.7-0.7c-0.4,0-0.7,0.3-0.7,0.7
					C11.1-10.9,11.4-10.6,11.8-10.6z"/>
			</g>
			<g>
				<path class="st1" d="M15.3-14.2c0.4,0,0.7-0.3,0.7-0.7c0-0.4-0.3-0.7-0.7-0.7c-0.4,0-0.7,0.3-0.7,0.7
					C14.6-14.5,15-14.2,15.3-14.2z"/>
				<path class="st1" d="M8.3-14.2c0.4,0,0.7-0.3,0.7-0.7c0-0.4-0.3-0.7-0.7-0.7c-0.4,0-0.7,0.3-0.7,0.7C7.6-14.5,7.9-14.2,8.3-14.2
					z"/>
				<path class="st1" d="M15.3-21.2c0.4,0,0.7-0.3,0.7-0.7c0-0.4-0.3-0.7-0.7-0.7c-0.4,0-0.7,0.3-0.7,0.7
					C14.6-21.6,15-21.2,15.3-21.2z"/>
				<path class="st1" d="M8.3-21.2c0.4,0,0.7-0.3,0.7-0.7c0-0.4-0.3-0.7-0.7-0.7c-0.4,0-0.7,0.3-0.7,0.7C7.6-21.6,7.9-21.2,8.3-21.2
					z"/>
				<path class="st1" d="M4.8-17.7c0.4,0,0.7-0.3,0.7-0.7c0-0.4-0.3-0.7-0.7-0.7c-0.4,0-0.7,0.3-0.7,0.7C4.1-18,4.4-17.7,4.8-17.7z"
					/>
				<path class="st1" d="M11.8-17.7c0.4,0,0.7-0.3,0.7-0.7c0-0.4-0.3-0.7-0.7-0.7c-0.4,0-0.7,0.3-0.7,0.7
					C11.1-18,11.4-17.7,11.8-17.7z"/>
				<path class="st1" d="M4.8-24.8c0.4,0,0.7-0.3,0.7-0.7c0-0.4-0.3-0.7-0.7-0.7c-0.4,0-0.7,0.3-0.7,0.7C4.1-25.1,4.4-24.8,4.8-24.8
					z"/>
				<path class="st1" d="M11.8-24.8c0.4,0,0.7-0.3,0.7-0.7c0-0.4-0.3-0.7-0.7-0.7c-0.4,0-0.7,0.3-0.7,0.7
					C11.1-25.1,11.4-24.8,11.8-24.8z"/>
			</g>
			<g>
				<path class="st1" d="M29.5-14.2c0.4,0,0.7-0.3,0.7-0.7c0-0.4-0.3-0.7-0.7-0.7c-0.4,0-0.7,0.3-0.7,0.7
					C28.8-14.5,29.1-14.2,29.5-14.2z"/>
				<path class="st1" d="M22.5-14.2c0.4,0,0.7-0.3,0.7-0.7c0-0.4-0.3-0.7-0.7-0.7c-0.4,0-0.7,0.3-0.7,0.7
					C21.8-14.5,22.1-14.2,22.5-14.2z"/>
				<path class="st1" d="M29.5-21.2c0.4,0,0.7-0.3,0.7-0.7c0-0.4-0.3-0.7-0.7-0.7c-0.4,0-0.7,0.3-0.7,0.7
					C28.8-21.6,29.1-21.2,29.5-21.2z"/>
				<path class="st1" d="M22.5-21.2c0.4,0,0.7-0.3,0.7-0.7c0-0.4-0.3-0.7-0.7-0.7c-0.4,0-0.7,0.3-0.7,0.7
					C21.8-21.6,22.1-21.2,22.5-21.2z"/>
				<path class="st1" d="M19-17.7c0.4,0,0.7-0.3,0.7-0.7c0-0.4-0.3-0.7-0.7-0.7c-0.4,0-0.7,0.3-0.7,0.7C18.3-18,18.6-17.7,19-17.7z"
					/>
				<path class="st1" d="M26-17.7c0.4,0,0.7-0.3,0.7-0.7c0-0.4-0.3-0.7-0.7-0.7c-0.4,0-0.7,0.3-0.7,0.7C25.3-18,25.6-17.7,26-17.7z"
					/>
				<path class="st1" d="M19-24.8c0.4,0,0.7-0.3,0.7-0.7c0-0.4-0.3-0.7-0.7-0.7c-0.4,0-0.7,0.3-0.7,0.7C18.3-25.1,18.6-24.8,19-24.8
					z"/>
				<path class="st1" d="M26-24.8c0.4,0,0.7-0.3,0.7-0.7c0-0.4-0.3-0.7-0.7-0.7c-0.4,0-0.7,0.3-0.7,0.7C25.3-25.1,25.6-24.8,26-24.8
					z"/>
			</g>
		</g>
		<g>
			<g>
				<path class="st1" d="M0.7-7c0.4,0,0.7-0.3,0.7-0.7c0-0.4-0.3-0.7-0.7-0.7C0.3-8.5,0-8.1,0-7.8C0-7.4,0.3-7,0.7-7z"/>
			</g>
			<g>
				<path class="st1" d="M0.7-14.2c0.4,0,0.7-0.3,0.7-0.7c0-0.4-0.3-0.7-0.7-0.7c-0.4,0-0.7,0.3-0.7,0.7C0-14.5,0.3-14.2,0.7-14.2z"
					/>
				<path class="st1" d="M0.7-21.2c0.4,0,0.7-0.3,0.7-0.7c0-0.4-0.3-0.7-0.7-0.7c-0.4,0-0.7,0.3-0.7,0.7C0-21.6,0.3-21.2,0.7-21.2z"
					/>
			</g>
		</g>
		<g>
			<g>
				<path class="st1" d="M22.5-28.8c0.4,0,0.7-0.3,0.7-0.7c0-0.4-0.3-0.7-0.7-0.7c-0.4,0-0.7,0.3-0.7,0.7
					C21.8-29.1,22.1-28.8,22.5-28.8z"/>
			</g>
			<g>
				<path class="st1" d="M15.3-28.8c0.4,0,0.7-0.3,0.7-0.7c0-0.4-0.3-0.7-0.7-0.7c-0.4,0-0.7,0.3-0.7,0.7
					C14.6-29.1,15-28.8,15.3-28.8z"/>
				<path class="st1" d="M8.3-28.8c0.4,0,0.7-0.3,0.7-0.7c0-0.4-0.3-0.7-0.7-0.7c-0.4,0-0.7,0.3-0.7,0.7C7.6-29.1,7.9-28.8,8.3-28.8
					z"/>
			</g>
		</g>
		<g>
			<g>
				<path class="st1" d="M0.7-28.8c0.4,0,0.7-0.3,0.7-0.7c0-0.4-0.3-0.7-0.7-0.7c-0.4,0-0.7,0.3-0.7,0.7C0-29.1,0.3-28.8,0.7-28.8z"
					/>
			</g>
		</g>
	</g>
</pattern>
<pattern  x="-1163.2" width="28.8" height="28.8" patternUnits="userSpaceOnUse" id="New_Pattern_8" viewBox="0.6 -30.2 28.8 28.8" style="overflow:visible;">
	<g>
		<rect x="0.6" y="-30.2" class="st0" width="28.8" height="28.8"/>
		<g>
			<g>
				<path class="st2" d="M29.8,0c0.6,0,1-0.4,1-1c0-0.6-0.4-1-1-1c-0.6,0-1,0.4-1,1C28.8-0.4,29.2,0,29.8,0z"/>
				<path class="st2" d="M19.8,0c0.6,0,1-0.4,1-1c0-0.6-0.4-1-1-1c-0.6,0-1,0.4-1,1C18.8-0.4,19.2,0,19.8,0z"/>
				<path class="st2" d="M29.8-10c0.6,0,1-0.5,1-1c0-0.6-0.4-1-1-1c-0.6,0-1,0.4-1,1C28.8-10.5,29.2-10,29.8-10z"/>
				<path class="st2" d="M19.8-10c0.6,0,1-0.5,1-1c0-0.6-0.4-1-1-1c-0.6,0-1,0.4-1,1C18.8-10.5,19.2-10,19.8-10z"/>
				<path class="st2" d="M14.8-5c0.6,0,1-0.4,1-1c0-0.6-0.4-1-1-1c-0.6,0-1,0.4-1,1C13.7-5.5,14.2-5,14.8-5z"/>
				<path class="st2" d="M24.8-5c0.6,0,1-0.4,1-1c0-0.6-0.4-1-1-1c-0.6,0-1,0.4-1,1C23.8-5.5,24.2-5,24.8-5z"/>
				<path class="st2" d="M14.8-15.1c0.6,0,1-0.4,1-1c0-0.6-0.4-1-1-1c-0.6,0-1,0.4-1,1C13.7-15.5,14.2-15.1,14.8-15.1z"/>
				<path class="st2" d="M24.8-15.1c0.6,0,1-0.4,1-1c0-0.6-0.4-1-1-1c-0.6,0-1,0.4-1,1C23.8-15.5,24.2-15.1,24.8-15.1z"/>
			</g>
			<g>
				<path class="st2" d="M19.8,0c0.6,0,1-0.4,1-1c0-0.6-0.4-1-1-1c-0.6,0-1,0.4-1,1C18.8-0.4,19.2,0,19.8,0z"/>
				<path class="st2" d="M9.7,0c0.6,0,1-0.4,1-1c0-0.6-0.4-1-1-1c-0.6,0-1,0.4-1,1C8.7-0.4,9.2,0,9.7,0z"/>
				<path class="st2" d="M19.8-10c0.6,0,1-0.5,1-1c0-0.6-0.4-1-1-1c-0.6,0-1,0.4-1,1C18.8-10.5,19.2-10,19.8-10z"/>
				<path class="st2" d="M9.7-10c0.6,0,1-0.5,1-1c0-0.6-0.4-1-1-1c-0.6,0-1,0.4-1,1C8.7-10.5,9.2-10,9.7-10z"/>
				<path class="st2" d="M4.7-5c0.6,0,1-0.4,1-1c0-0.6-0.4-1-1-1c-0.6,0-1,0.4-1,1C3.7-5.5,4.1-5,4.7-5z"/>
				<path class="st2" d="M14.7-5c0.6,0,1-0.4,1-1c0-0.6-0.4-1-1-1c-0.6,0-1,0.4-1,1C13.7-5.5,14.2-5,14.7-5z"/>
				<path class="st2" d="M4.7-15.1c0.6,0,1-0.4,1-1c0-0.6-0.4-1-1-1c-0.6,0-1,0.4-1,1C3.7-15.5,4.1-15.1,4.7-15.1z"/>
				<path class="st2" d="M14.7-15.1c0.6,0,1-0.4,1-1c0-0.6-0.4-1-1-1c-0.6,0-1,0.4-1,1C13.7-15.5,14.2-15.1,14.7-15.1z"/>
			</g>
			<g>
				<path class="st2" d="M19.8-10c0.6,0,1-0.4,1-1c0-0.6-0.4-1-1-1c-0.6,0-1,0.4-1,1C18.8-10.5,19.2-10,19.8-10z"/>
				<path class="st2" d="M9.7-10c0.6,0,1-0.4,1-1c0-0.6-0.4-1-1-1c-0.6,0-1,0.4-1,1C8.7-10.5,9.2-10,9.7-10z"/>
				<path class="st2" d="M19.8-20.1c0.6,0,1-0.5,1-1c0-0.6-0.4-1-1-1c-0.6,0-1,0.4-1,1C18.8-20.5,19.2-20.1,19.8-20.1z"/>
				<path class="st2" d="M9.7-20.1c0.6,0,1-0.5,1-1c0-0.6-0.4-1-1-1c-0.6,0-1,0.4-1,1C8.7-20.5,9.2-20.1,9.7-20.1z"/>
				<path class="st2" d="M4.7-15.1c0.6,0,1-0.4,1-1c0-0.6-0.4-1-1-1c-0.6,0-1,0.4-1,1C3.7-15.5,4.1-15.1,4.7-15.1z"/>
				<path class="st2" d="M14.7-15.1c0.6,0,1-0.4,1-1c0-0.6-0.4-1-1-1c-0.6,0-1,0.4-1,1C13.7-15.5,14.2-15.1,14.7-15.1z"/>
				<path class="st2" d="M4.7-25.1c0.6,0,1-0.4,1-1c0-0.6-0.4-1-1-1c-0.6,0-1,0.4-1,1C3.7-25.5,4.1-25.1,4.7-25.1z"/>
				<path class="st2" d="M14.7-25.1c0.6,0,1-0.4,1-1c0-0.6-0.4-1-1-1c-0.6,0-1,0.4-1,1C13.7-25.5,14.2-25.1,14.7-25.1z"/>
			</g>
			<g>
				<path class="st2" d="M29.8-10c0.6,0,1-0.4,1-1c0-0.6-0.4-1-1-1c-0.6,0-1,0.4-1,1C28.8-10.5,29.2-10,29.8-10z"/>
				<path class="st2" d="M19.8-10c0.6,0,1-0.4,1-1c0-0.6-0.4-1-1-1c-0.6,0-1,0.4-1,1C18.8-10.5,19.2-10,19.8-10z"/>
				<path class="st2" d="M29.8-20.1c0.6,0,1-0.5,1-1c0-0.6-0.4-1-1-1c-0.6,0-1,0.4-1,1C28.8-20.5,29.2-20.1,29.8-20.1z"/>
				<path class="st2" d="M19.8-20.1c0.6,0,1-0.5,1-1c0-0.6-0.4-1-1-1c-0.6,0-1,0.4-1,1C18.8-20.5,19.2-20.1,19.8-20.1z"/>
				<path class="st2" d="M14.8-15.1c0.6,0,1-0.4,1-1c0-0.6-0.4-1-1-1c-0.6,0-1,0.4-1,1C13.7-15.5,14.2-15.1,14.8-15.1z"/>
				<path class="st2" d="M24.8-15.1c0.6,0,1-0.4,1-1c0-0.6-0.4-1-1-1c-0.6,0-1,0.4-1,1C23.8-15.5,24.2-15.1,24.8-15.1z"/>
				<path class="st2" d="M14.8-25.1c0.6,0,1-0.4,1-1c0-0.6-0.4-1-1-1c-0.6,0-1,0.4-1,1C13.7-25.5,14.2-25.1,14.8-25.1z"/>
				<path class="st2" d="M24.8-25.1c0.6,0,1-0.4,1-1c0-0.6-0.4-1-1-1c-0.6,0-1,0.4-1,1C23.8-25.5,24.2-25.1,24.8-25.1z"/>
			</g>
		</g>
		<g>
			<g>
				<path class="st2" d="M1,0c0.6,0,1-0.4,1-1c0-0.6-0.4-1-1-1C0.4-2,0-1.6,0-1C0-0.4,0.4,0,1,0z"/>
				<path class="st2" d="M1-10c0.6,0,1-0.5,1-1c0-0.6-0.4-1-1-1c-0.6,0-1,0.4-1,1C0-10.5,0.4-10,1-10z"/>
			</g>
			<g>
				<path class="st2" d="M1-10c0.6,0,1-0.4,1-1c0-0.6-0.4-1-1-1c-0.6,0-1,0.4-1,1C0-10.5,0.4-10,1-10z"/>
				<path class="st2" d="M1-20.1c0.6,0,1-0.5,1-1c0-0.6-0.4-1-1-1c-0.6,0-1,0.4-1,1C0-20.5,0.4-20.1,1-20.1z"/>
			</g>
		</g>
		<g>
			<g>
				<path class="st2" d="M29.8-28.8c0.6,0,1-0.4,1-1c0-0.6-0.4-1-1-1c-0.6,0-1,0.4-1,1C28.8-29.2,29.2-28.8,29.8-28.8z"/>
				<path class="st2" d="M19.8-28.8c0.6,0,1-0.4,1-1c0-0.6-0.4-1-1-1c-0.6,0-1,0.4-1,1C18.8-29.2,19.2-28.8,19.8-28.8z"/>
			</g>
			<g>
				<path class="st2" d="M19.8-28.8c0.6,0,1-0.4,1-1c0-0.6-0.4-1-1-1c-0.6,0-1,0.4-1,1C18.8-29.2,19.2-28.8,19.8-28.8z"/>
				<path class="st2" d="M9.7-28.8c0.6,0,1-0.4,1-1c0-0.6-0.4-1-1-1c-0.6,0-1,0.4-1,1C8.7-29.2,9.2-28.8,9.7-28.8z"/>
			</g>
		</g>
		<g>
			<g>
				<path class="st2" d="M1-28.8c0.6,0,1-0.4,1-1c0-0.6-0.4-1-1-1c-0.6,0-1,0.4-1,1C0-29.2,0.4-28.8,1-28.8z"/>
			</g>
		</g>
	</g>
</pattern>
<g>
	<g>
		<path class="st3" d="M294.1,83.7h-248c-3.3,0-6-2.7-6-6v-67c0-3.3,2.7-6,6-6h248c3.3,0,6,2.7,6,6v67
			C300.1,81,297.4,83.7,294.1,83.7z"/>
		<path class="st4" d="M110.4,52.1H70.7c-4.1,0-7.5-3.4-7.5-7.5v-3.2c0-4.1,3.4-7.5,7.5-7.5h39.7c4.1,0,7.5,3.4,7.5,7.5v3.2
			C117.9,48.7,114.5,52.1,110.4,52.1z"/>
		<path class="st4" d="M268.3,52.1h-3.2c-4.1,0-7.5-3.4-7.5-7.5v-3.2c0-4.1,3.4-7.5,7.5-7.5h3.2c4.1,0,7.5,3.4,7.5,7.5v3.2
			C275.8,48.7,272.5,52.1,268.3,52.1z"/>
	</g>
	<g>
		<path class="st3" d="M294.1,162.6h-248c-3.3,0-6-2.7-6-6v-67c0-3.3,2.7-6,6-6h248c3.3,0,6,2.7,6,6v67
			C300.1,159.9,297.4,162.6,294.1,162.6z"/>
		<path class="st4" d="M110.4,131.1H70.7c-4.1,0-7.5-3.4-7.5-7.5v-3.2c0-4.1,3.4-7.5,7.5-7.5h39.7c4.1,0,7.5,3.4,7.5,7.5v3.2
			C117.9,127.7,114.5,131.1,110.4,131.1z"/>
		<path class="st4" d="M268.3,131.1h-3.2c-4.1,0-7.5-3.4-7.5-7.5v-3.2c0-4.1,3.4-7.5,7.5-7.5h3.2c4.1,0,7.5,3.4,7.5,7.5v3.2
			C275.8,127.7,272.5,131.1,268.3,131.1z"/>
	</g>
	<g>
		<path class="st3" d="M294.1,241.6h-248c-3.3,0-6-2.7-6-6v-67c0-3.3,2.7-6,6-6h248c3.3,0,6,2.7,6,6v67
			C300.1,238.9,297.4,241.6,294.1,241.6z"/>
		<path class="st4" d="M110.4,210H70.7c-4.1,0-7.5-3.4-7.5-7.5v-3.2c0-4.1,3.4-7.5,7.5-7.5h39.7c4.1,0,7.5,3.4,7.5,7.5v3.2
			C117.9,206.7,114.5,210,110.4,210z"/>
		<path class="st4" d="M268.3,210h-3.2c-4.1,0-7.5-3.4-7.5-7.5v-3.2c0-4.1,3.4-7.5,7.5-7.5h3.2c4.1,0,7.5,3.4,7.5,7.5v3.2
			C275.8,206.7,272.5,210,268.3,210z"/>
	</g>
	<g>
		<path class="st3" d="M294.1,320.6h-248c-3.3,0-6-2.7-6-6v-67c0-3.3,2.7-6,6-6h248c3.3,0,6,2.7,6,6v67
			C300.1,317.9,297.4,320.6,294.1,320.6z"/>
		<path class="st4" d="M110.4,289H70.7c-4.1,0-7.5-3.4-7.5-7.5v-3.2c0-4.1,3.4-7.5,7.5-7.5h39.7c4.1,0,7.5,3.4,7.5,7.5v3.2
			C117.9,285.7,114.5,289,110.4,289z"/>
		<path class="st4" d="M268.3,289h-3.2c-4.1,0-7.5-3.4-7.5-7.5v-3.2c0-4.1,3.4-7.5,7.5-7.5h3.2c4.1,0,7.5,3.4,7.5,7.5v3.2
			C275.8,285.7,272.5,289,268.3,289z"/>
	</g>
	<g>
		<path class="st3" d="M294.1,399.6h-248c-3.3,0-6-2.7-6-6v-67c0-3.3,2.7-6,6-6h248c3.3,0,6,2.7,6,6v67
			C300.1,396.9,297.4,399.6,294.1,399.6z"/>
		<path class="st4" d="M110.4,368H70.7c-4.1,0-7.5-3.4-7.5-7.5v-3.2c0-4.1,3.4-7.5,7.5-7.5h39.7c4.1,0,7.5,3.4,7.5,7.5v3.2
			C117.9,364.7,114.5,368,110.4,368z"/>
		<path class="st4" d="M268.3,368h-3.2c-4.1,0-7.5-3.4-7.5-7.5v-3.2c0-4.1,3.4-7.5,7.5-7.5h3.2c4.1,0,7.5,3.4,7.5,7.5v3.2
			C275.8,364.7,272.5,368,268.3,368z"/>
	</g>
</g>
<g>
	<defs>
		<path id="SVGID_1_" d="M300.1,77.7v-67c0-3.3-2.7-6-6-6h-248c-3.3,0-6,2.7-6,6v67c0,3.3,2.7,6,6,6c-3.3,0-6,2.7-6,6v67
			c0,3.3,2.7,6,6,6c-3.3,0-6,2.7-6,6v67c0,3.3,2.7,6,6,6c-3.3,0-6,2.7-6,6v67c0,3.3,2.7,6,6,6c-3.3,0-6,2.7-6,6v67c0,3.3,2.7,6,6,6
			h248c3.3,0,6-2.7,6-6v-67c0-3.3-2.7-6-6-6c3.3,0,6-2.7,6-6v-67c0-3.3-2.7-6-6-6c3.3,0,6-2.7,6-6v-67c0-3.3-2.7-6-6-6
			c3.3,0,6-2.7,6-6v-67c0-3.3-2.7-6-6-6C297.4,83.7,300.1,81,300.1,77.7z"/>
	</defs>
	<clipPath id="SVGID_2_">
		<use xlink:href="#SVGID_1_"  style="overflow:visible;"/>
	</clipPath>
	<g class="st5">
		<pattern  id="SVGID_3_" xlink:href="#New_Pattern_6" patternTransform="matrix(2.4 0 0 2.4 9405.4414 10380.6934)">
		</pattern>
		<path class="st6" d="M434.7,154.7v-67c0-3.3-2.7-6-6-6h-248c-3.3,0-6,2.7-6,6v67c0,3.3,2.7,6,6,6c-3.3,0-6,2.7-6,6v67
			c0,3.3,2.7,6,6,6c-3.3,0-6,2.7-6,6v67c0,3.3,2.7,6,6,6c-3.3,0-6,2.7-6,6v67c0,3.3,2.7,6,6,6h248c3.3,0,6-2.7,6-6v-67
			c0-3.3-2.7-6-6-6c3.3,0,6-2.7,6-6v-67c0-3.3-2.7-6-6-6c3.3,0,6-2.7,6-6v-67c0-3.3-2.7-6-6-6C432,160.7,434.7,158,434.7,154.7z"/>
	</g>
</g>
<g>
	<g>
		<path class="st4" d="M-752.1,282.5c-15.9-51.9-64.3-87.8-118.8-87.8c-54.7,0-102.6,35.6-118.7,87.3c-8.9-3.2-18.2-4.8-27.7-4.8
			c-38.7,0-71.9,26.6-80.7,63.8c-34.5,1.3-46.1,25.3-53.8,59.2c-0.3,1.5,0,3.1,1,4.4c1,1.2,2.5,1.9,4,1.9h435.2
			c2.5,0,4.7-1.8,5.1-4.3c1.1-6.3,19.1-12.1,19.1-17.8C-687.3,335.2-704.2,292.8-752.1,282.5z M-1159.3,394.3
			c0,30.1,24.4,54.5,54.5,54.5c30.1,0,54.5-24.4,54.5-54.5c0-30.1-24.4-54.5-54.5-54.5C-1134.9,339.8-1159.3,364.2-1159.3,394.3z
			 M-835.2,364.6c0,46.5,37.7,84.1,84.1,84.1c46.5,0,84.1-37.7,84.1-84.1s-37.7-84.1-84.1-84.1
			C-797.6,280.5-835.2,318.1-835.2,364.6z M-751.1,390.3h-356.4v58.4h356.4V390.3z"/>
		<g>
			<defs>
				<path id="SVGID_4_" d="M-1162,402.9c57.1-63.1,130.8-21.6,130.8-21.6c-24.9-42-66.7-40.2-66.7-40.2
					c107.4-52.4,170.6-3.4,170.6-3.4C-951,292-989.5,282-989.5,282c87.1-68.1,195.1-65.2,226.3-31.6c35.3,38.2,15.9,13.1,15.9,13.1
					c2.4-9.6-4.7,19-4.7,19c9.2,28.2,5.5,50.6,5.5,50.6c19.2-4,70.2,27.4,75.3,69.2l12-101.7L-823,66.6l-331.3,293.7L-1162,402.9z"
					/>
			</defs>
			<clipPath id="SVGID_5_">
				<use xlink:href="#SVGID_4_"  style="overflow:visible;"/>
			</clipPath>
			<pattern  id="SVGID_6_" xlink:href="#New_Pattern_8" patternTransform="matrix(1.7521 0 0 1.7521 4989.7949 5735.6484)">
			</pattern>
			<path class="st7" d="M-752.1,282.5c-15.9-51.9-64.3-87.8-118.8-87.8c-54.7,0-102.6,35.6-118.7,87.3c-8.9-3.2-18.2-4.8-27.7-4.8
				c-38.7,0-71.9,26.6-80.7,63.8c-34.5,1.3-63.6,25.3-71.3,59.2c-0.3,1.5,0,3.1,1,4.4c1,1.2,2.5,1.9,4,1.9h487.8
				c2.5,0,4.7-1.8,5.1-4.3c1.1-6.3,5.1-27.9,5.1-33.5C-666.2,319.4-711.8,272.6-752.1,282.5z"/>
		</g>
	</g>
</g>
<g>
	<pattern  id="SVGID_7_" xlink:href="#New_Pattern_6" patternTransform="matrix(2.4 0 0 2.4 9405.4414 10380.6934)">
	</pattern>
	<rect x="2" y="398.6" class="st8" width="496" height="48"/>
	<g>
		<path class="st4" d="M496,400.6v44H4v-44H496 M500,396.6H0v52h500V396.6L500,396.6z"/>
	</g>
</g>
<g>
	<g>
		<path class="st9" d="M458.7,258.6h-248c-3.3,0-6-2.7-6-6v-67c0-3.3,2.7-6,6-6h248c3.3,0,6,2.7,6,6v67
			C464.7,255.9,462,258.6,458.7,258.6z"/>
		<path class="st2" d="M274.9,227.1h-39.7c-4.1,0-7.5-3.4-7.5-7.5v-3.2c0-4.1,3.4-7.5,7.5-7.5h39.7c4.1,0,7.5,3.4,7.5,7.5v3.2
			C282.4,223.7,279.1,227.1,274.9,227.1z"/>
		<path class="st2" d="M432.9,227.1h-3.2c-4.1,0-7.5-3.4-7.5-7.5v-3.2c0-4.1,3.4-7.5,7.5-7.5h3.2c4.1,0,7.5,3.4,7.5,7.5v3.2
			C440.4,223.7,437,227.1,432.9,227.1z"/>
	</g>
	<g>
		<path class="st9" d="M458.7,337.6h-248c-3.3,0-6-2.7-6-6v-67c0-3.3,2.7-6,6-6h248c3.3,0,6,2.7,6,6v67
			C464.7,334.9,462,337.6,458.7,337.6z"/>
		<path class="st2" d="M274.9,306h-39.7c-4.1,0-7.5-3.4-7.5-7.5v-3.2c0-4.1,3.4-7.5,7.5-7.5h39.7c4.1,0,7.5,3.4,7.5,7.5v3.2
			C282.4,302.7,279.1,306,274.9,306z"/>
		<path class="st2" d="M432.9,306h-3.2c-4.1,0-7.5-3.4-7.5-7.5v-3.2c0-4.1,3.4-7.5,7.5-7.5h3.2c4.1,0,7.5,3.4,7.5,7.5v3.2
			C440.4,302.7,437,306,432.9,306z"/>
	</g>
	<g>
		<path class="st9" d="M458.7,416.6h-248c-3.3,0-6-2.7-6-6v-67c0-3.3,2.7-6,6-6h248c3.3,0,6,2.7,6,6v67
			C464.7,413.9,462,416.6,458.7,416.6z"/>
		<path class="st2" d="M274.9,385h-39.7c-4.1,0-7.5-3.4-7.5-7.5v-3.2c0-4.1,3.4-7.5,7.5-7.5h39.7c4.1,0,7.5,3.4,7.5,7.5v3.2
			C282.4,381.7,279.1,385,274.9,385z"/>
		<path class="st2" d="M432.9,385h-3.2c-4.1,0-7.5-3.4-7.5-7.5v-3.2c0-4.1,3.4-7.5,7.5-7.5h3.2c4.1,0,7.5,3.4,7.5,7.5v3.2
			C440.4,381.7,437,385,432.9,385z"/>
	</g>
	<g>
		<path class="st9" d="M458.7,179.7h-248c-3.3,0-6-2.7-6-6v-67c0-3.3,2.7-6,6-6h248c3.3,0,6,2.7,6,6v67
			C464.7,177,462,179.7,458.7,179.7z"/>
		<path class="st2" d="M274.9,148.1h-39.7c-4.1,0-7.5-3.4-7.5-7.5v-3.2c0-4.1,3.4-7.5,7.5-7.5h39.7c4.1,0,7.5,3.4,7.5,7.5v3.2
			C282.4,144.7,279.1,148.1,274.9,148.1z"/>
		<path class="st2" d="M432.9,148.1h-3.2c-4.1,0-7.5-3.4-7.5-7.5v-3.2c0-4.1,3.4-7.5,7.5-7.5h3.2c4.1,0,7.5,3.4,7.5,7.5v3.2
			C440.4,144.7,437,148.1,432.9,148.1z"/>
	</g>
</g>
</svg>
