<svg id="Layer_1" data-name="Layer 1" xmlns="http://www.w3.org/2000/svg" viewBox="0 0 884.8 182.51"><defs><style>.cls-1{fill:#e00;}.cls-2{fill:#fff;}</style></defs><title>Ansible-Automation-2line-logo</title><path d="M178.32,129.92h10.42L213,189.22h-9.65l-6.87-17.36H169.93L163,189.22h-9.23Zm15.25,34.57-10.34-26-10.29,26Z" transform="translate(-5.95 -7.49)"/><path d="M218,146.11h8.47v4.31a17.58,17.58,0,0,1,12.95-5.16c9.92,0,16.77,6.94,16.77,16.86v27.1h-8.38V163.55c0-6.69-4.07-10.92-10.76-10.92a12.12,12.12,0,0,0-10.58,5.59v31H218Z" transform="translate(-5.95 -7.49)"/><path d="M266.59,178a22.22,22.22,0,0,0,14.07,5.41c6.77,0,10.32-2.95,10.32-6.43,0-3.05-2.11-4.83-6.93-5.51l-7.8-1.1c-8.47-1.18-12.87-5.25-12.87-11.94,0-7.88,6.94-13,16.85-13a29.63,29.63,0,0,1,17.31,5.49l-4.32,5.59A23.71,23.71,0,0,0,279.58,152c-5,0-8.64,2.2-8.64,5.85,0,3.26,2,4.66,7.11,5.42l7.8,1.1c8.73,1.27,13,5.42,13,12,0,7.8-7.8,13.56-18,13.56-7.2,0-14-2.12-18.89-6.36Z" transform="translate(-5.95 -7.49)"/><path d="M304.34,133.91a5.25,5.25,0,1,1,5.25,5.25A5.29,5.29,0,0,1,304.34,133.91Zm9.49,55.31h-8.47V146.11h8.47Z" transform="translate(-5.95 -7.49)"/><path d="M345,189.89A21.11,21.11,0,0,1,332,185.58v3.64h-8.38v-59.3l8.47-1.85v22a20,20,0,0,1,13.12-4.65c12.28,0,21.77,9.82,21.77,22.19A21.9,21.9,0,0,1,345,189.89Zm-12.86-32v19.65a16,16,0,0,0,11.94,5,14.86,14.86,0,0,0,0-29.72A15.35,15.35,0,0,0,332.13,157.88Z" transform="translate(-5.95 -7.49)"/><path d="M383.45,189.22H375v-59.3l8.47-1.85Z" transform="translate(-5.95 -7.49)"/><path d="M413,145.43c11.86,0,20.84,9.82,20.84,22.53v2.44h-34a14.54,14.54,0,0,0,14.57,12.36A16.7,16.7,0,0,0,425.28,179l5.43,5.34A25.46,25.46,0,0,1,414,190a22.21,22.21,0,0,1-22.62-22.35C391.41,155.25,400.81,145.43,413,145.43Zm-13.13,18.63h25.58c-1.18-6.6-6.35-11.52-12.61-11.52C406.23,152.54,401.14,157.29,399.87,164.06Z" transform="translate(-5.95 -7.49)"/><path d="M480,129.11h7.88l24.31,59.29H505l-7.46-18.63H469.64l-7.53,18.63h-6.78Zm15.34,35.07-11.59-29-11.78,29Z" transform="translate(-5.95 -7.49)"/><path d="M522.24,171.55c0,7.45,4.49,12.21,11.86,12.21a13.14,13.14,0,0,0,11.69-6.51V146h6.27V188.4h-6.27v-4.88a16.85,16.85,0,0,1-13.3,5.76c-9.77,0-16.44-6.7-16.44-16.44V146h6.19Z" transform="translate(-5.95 -7.49)"/><path d="M567.91,151.3h-9.17V146h9.17V135.21l6.18-1.63v12.36h12.8v5.34H574.07v26c0,4.57,1.87,6.35,6.52,6.35a15.76,15.76,0,0,0,6.18-1.1v5.5a24.5,24.5,0,0,1-7.45,1.1c-7.46,0-11.41-3.64-11.41-10.24Z" transform="translate(-5.95 -7.49)"/><path d="M611.93,145.12a21.62,21.62,0,0,1,21.6,22c0,12.33-9.57,22.11-21.6,22.11a22.05,22.05,0,0,1,0-44.1Zm0,5.59c-8.64,0-15.47,7.2-15.47,16.43s6.77,16.52,15.47,16.52,15.43-7.28,15.43-16.52S620.57,150.71,611.93,150.71Z" transform="translate(-5.95 -7.49)"/><path d="M642.17,146h6.26v4.57a16,16,0,0,1,12.45-5.42,14.9,14.9,0,0,1,13.39,7.74,16.58,16.58,0,0,1,14.48-7.71c9.32,0,15.67,6.7,15.67,16.44v26.87h-6.21V162.82c0-7.45-4.15-12.21-11-12.21-4.82,0-8.64,2.44-11.26,6.95a19,19,0,0,1,.42,4v26.87h-6.18V162.82c0-7.45-4.15-12.21-11-12.21a12.26,12.26,0,0,0-10.76,6.1v31.68h-6.27Z" transform="translate(-5.95 -7.49)"/><path d="M712.72,176.38c0-8.64,7.45-13,16.94-13a27.56,27.56,0,0,1,12.45,2.87v-5.58c0-6.87-3.9-10.26-11.26-10.26-4.33,0-8.47,1.27-13.3,3.73l-2.37-4.83c5.58-2.71,10.67-4.23,16.29-4.23,10.67,0,16.77,5.17,16.77,14.74V188.4h-6.13v-4.15a20.49,20.49,0,0,1-13.72,4.89C719.15,189.16,712.72,184,712.72,176.38Zm16.77,7.87a17.3,17.3,0,0,0,12.62-4.89v-8A21.55,21.55,0,0,0,729.83,168c-6.52,0-11.1,3.14-11.1,8.22C718.73,181.12,723.31,184.25,729.49,184.25Z" transform="translate(-5.95 -7.49)"/><path d="M762.35,151.3H753.2V146h9.15V135.21l6.19-1.63v12.36h12.78v5.34H768.54v26c0,4.57,1.85,6.35,6.51,6.35a15.73,15.73,0,0,0,6.18-1.1v5.5a24.47,24.47,0,0,1-7.46,1.1c-7.45,0-11.4-3.64-11.4-10.24Z" transform="translate(-5.95 -7.49)"/><path d="M786.83,133.6a4.24,4.24,0,0,1,8.47,0h0a4.24,4.24,0,1,1-8.47,0Zm7.37,54.8h-6.27V146h6.27Z" transform="translate(-5.95 -7.49)"/><path d="M824.52,145.12a21.61,21.61,0,0,1,21.59,22c0,12.33-9.56,22.11-21.59,22.11a22.05,22.05,0,0,1,0-44.1Zm0,5.59c-8.64,0-15.48,7.2-15.48,16.43s6.78,16.52,15.48,16.52,15.4-7.28,15.4-16.52S833.16,150.71,824.52,150.71Z" transform="translate(-5.95 -7.49)"/><path d="M854.75,146H861v4.88a16.81,16.81,0,0,1,13.3-5.75c9.77,0,16.43,6.69,16.43,16.43V188.4h-6.19V162.82c0-7.45-4.49-12.21-11.86-12.21A13.11,13.11,0,0,0,861,157.12v31.26h-6.27Z" transform="translate(-5.95 -7.49)"/><path d="M446.82,87.23c0,9.68,5.83,14.39,16.45,14.39a42.25,42.25,0,0,0,9.68-1.37V89a20.09,20.09,0,0,1-6.26.94c-4.36,0-6-1.37-6-5.48V67.27h12.67V55.71H460.7V41.05l-13.84,3V55.71h-9.2V67.27h9.16Zm-43.11.26c0-3,3-4.46,7.53-4.46a35.07,35.07,0,0,1,8.23,1v5.82A17.42,17.42,0,0,1,410.82,92c-4.45,0-7.11-1.71-7.11-4.53m4.24,14.3a21.23,21.23,0,0,0,12.5-3.51V101h13.7V72c0-11-7.45-17.1-19.87-17.1a50.53,50.53,0,0,0-21.17,5l5,10.18c5.31-2.22,9.78-3.59,13.71-3.59,5.74,0,8.65,2.23,8.65,6.77v2.22a40.06,40.06,0,0,0-10.28-1.28c-11.64,0-18.67,4.88-18.67,13.61,0,8,6.34,14,16.45,14m-75.29-.76h14.73V77.55h24.69V101h14.73V41.07H372.06v23H347.39v-23H332.66ZM276.53,78.32c0-6.51,5.14-11.48,11.9-11.48A14,14,0,0,1,298,70.36V86.2a13.31,13.31,0,0,1-9.59,3.6c-6.68,0-11.9-5-11.9-11.48M298.19,101H311.9V38l-13.85,3V58.11a23.36,23.36,0,1,0-12.41,43.53H286a20.36,20.36,0,0,0,12.16-3.94ZM235.33,66.25a10,10,0,0,1,9.5,7.19h-19c1.37-4.54,4.8-7.19,9.43-7.19M212,78.41c0,13.19,10.79,23.47,24.67,23.47A27.16,27.16,0,0,0,255.54,95l-9.16-8.12a12.26,12.26,0,0,1-9.08,3.43,11.71,11.71,0,0,1-11.13-7.19h32.28V79.69c0-14.39-9.68-24.75-22.87-24.75A23.25,23.25,0,0,0,212,77.85c0,.18,0,.37,0,.56M188.05,53.66c4.89,0,7.63,3.08,7.63,6.76s-2.75,6.76-7.63,6.76H173.49V53.66ZM158.74,101h14.73V79.18h11.22L196,101h16.45L199.28,77a18.18,18.18,0,0,0,11.3-16.88c0-10.79-8.48-19.09-21.17-19.09H158.76Z" transform="translate(-5.95 -7.49)"/><circle class="cls-1" cx="62.25" cy="62.25" r="62.24"/><path class="cls-2" d="M97.63,94.6,72.93,35.15a4,4,0,0,0-3.82-2.63,4.08,4.08,0,0,0-3.94,2.63L38.05,100.36h9.28L58.06,73.49l32,25.88a5.26,5.26,0,0,0,3.43,1.51,4.43,4.43,0,0,0,4.54-4.32v-.12A5.55,5.55,0,0,0,97.63,94.6ZM69.13,45.82l16,39.64L60.9,66.35Z" transform="translate(-5.95 -7.49)"/></svg>