<?xml version="1.0" encoding="utf-8"?>
<!-- Generator: Adobe Illustrator 23.0.1, SVG Export Plug-In . SVG Version: 6.00 Build 0)  -->
<svg version="1.1" id="Layer_1" xmlns="http://www.w3.org/2000/svg" xmlns:xlink="http://www.w3.org/1999/xlink" x="0px" y="0px"
	 viewBox="0 0 884.8 182.5" style="enable-background:new 0 0 884.8 182.5;" xml:space="preserve">
<style type="text/css">
	.st0{fill:#EE0000;}
	.st1{fill:#FFFFFF;}
</style>
<title>Ansible-Automation-2line-logo</title>
<path d="M186,119.9h9.8l22.8,55.7h-9.1l-6.4-16.3h-24.9l-6.5,16.3H163L186,119.9z M200.3,152.4l-9.7-24.4l-9.7,24.4H200.3z"/>
<path d="M223.3,135.1h8v4c3.2-3.2,7.6-5,12.2-4.8c9.3,0,15.7,6.5,15.7,15.8v25.4h-7.9v-24.1c0-6.3-3.8-10.3-10.1-10.3
	c-4-0.1-7.8,1.9-9.9,5.2v29.1h-8V135.1z"/>
<path d="M268.9,165.1c3.7,3.2,8.3,5,13.2,5.1c6.4,0,9.7-2.8,9.7-6c0-2.9-2-4.5-6.5-5.2l-7.3-1c-8-1.1-12.1-4.9-12.1-11.2
	c0-7.4,6.5-12.2,15.8-12.2c5.8,0,11.5,1.8,16.3,5.2l-4.1,5.2c-3.7-2.7-8.2-4.2-12.8-4.2c-4.7,0-8.1,2.1-8.1,5.5
	c0,3.1,1.9,4.4,6.7,5.1l7.3,1c8.2,1.2,12.2,5.1,12.2,11.3c0,7.3-7.3,12.7-16.9,12.7c-6.8,0-13.1-2-17.7-6L268.9,165.1z"/>
<path d="M304.3,123.7c0-2.7,2.2-4.9,4.9-4.9c2.7,0,4.9,2.2,4.9,4.9s-2.2,4.9-4.9,4.9l0,0C306.5,128.6,304.3,126.4,304.3,123.7z
	 M313.2,175.6h-8v-40.5h8V175.6z"/>
<path d="M342.5,176.2c-4.4,0-8.7-1.4-12.2-4v3.4h-7.9v-55.7l8-1.7v20.7c3.5-2.9,7.8-4.4,12.3-4.4c11.5,0,20.4,9.2,20.4,20.8
	c0.2,11.4-8.8,20.7-20.2,20.9C342.8,176.2,342.6,176.2,342.5,176.2z M330.4,146.2v18.4c2.9,3.1,7,4.8,11.2,4.7c7.7,0,14-6.2,14-14
	c0-7.7-6.2-14-14-14C337.4,141.3,333.3,143,330.4,146.2L330.4,146.2z"/>
<path d="M378.6,175.6h-7.9v-55.7l8-1.7L378.6,175.6z"/>
<path d="M406.3,134.5c11.1,0,19.6,9.2,19.6,21.2v2.3H394c1,6.7,6.9,11.7,13.7,11.6c3.7,0.1,7.3-1.2,10.2-3.5l5.1,5
	c-4.4,3.6-10,5.5-15.7,5.3c-11.5,0.2-21-8.9-21.2-20.5c0-0.2,0-0.3,0-0.5C386.1,143.7,394.9,134.5,406.3,134.5z M394,152h24
	c-1.1-6.2-6-10.8-11.8-10.8C400,141.2,395.2,145.6,394,152z"/>
<path d="M469.2,119.2h7.4l22.8,55.7h-6.8l-7-17.5h-26.2l-7.1,17.5h-6.4L469.2,119.2z M483.6,152.1l-10.9-27.2l-11.1,27.2H483.6z"/>
<path d="M508.9,159c0,7,4.2,11.5,11.1,11.5c4.5,0.1,8.7-2.2,11-6.1V135h5.9v39.8H531v-4.6c-3.1,3.6-7.7,5.6-12.5,5.4
	c-9.2,0-15.4-6.3-15.4-15.4V135h5.8V159z"/>
<path d="M551.8,140h-8.6v-5h8.6v-10.1l5.8-1.5V135h12v5h-12v24.4c0,4.3,1.8,6,6.1,6c2,0,4-0.3,5.8-1v5.2c-2.3,0.7-4.6,1.1-7,1
	c-7,0-10.7-3.4-10.7-9.6L551.8,140z"/>
<path d="M593.1,134.2c11.2,0,20.3,9.1,20.3,20.3c0,0.1,0,0.2,0,0.3c0,11.6-9,20.8-20.3,20.8c-11.4,0-20.7-9.3-20.7-20.7
	C572.4,143.5,581.7,134.2,593.1,134.2L593.1,134.2z M593.1,139.4c-8.1,0-14.5,6.8-14.5,15.4c0,8.7,6.4,15.5,14.5,15.5
	c8.2,0,14.5-6.8,14.5-15.5C607.6,146.2,601.2,139.4,593.1,139.4L593.1,139.4z"/>
<path d="M621.5,135h5.9v4.3c2.9-3.3,7.2-5.2,11.7-5.1c5.2-0.1,10.1,2.7,12.6,7.3c2.9-4.6,8.1-7.4,13.6-7.2c8.7,0,14.7,6.3,14.7,15.4
	v25.2h-5.8v-24.1c0-7-3.9-11.5-10.3-11.5c-4.5,0-8.1,2.3-10.6,6.5c0.3,1.2,0.4,2.5,0.4,3.8v25.2h-5.8v-24c0-7-3.9-11.5-10.3-11.5
	c-4.2-0.1-8,2.1-10.1,5.7v29.7h-5.9L621.5,135z"/>
<path d="M687.7,163.5c0-8.1,7-12.2,15.9-12.2c4.1,0,8.1,0.9,11.7,2.7v-5.2c0-6.4-3.7-9.6-10.6-9.6c-4.1,0-8,1.2-12.5,3.5l-2.2-4.5
	c5.2-2.5,10-4,15.3-4c10,0,15.7,4.9,15.7,13.8v26.8h-5.8v-3.9c-3.6,3.1-8.2,4.7-12.9,4.6C693.8,175.5,687.7,170.7,687.7,163.5z
	 M703.5,170.9c4.4,0.1,8.7-1.5,11.8-4.6v-7.5c-3.4-2.2-7.5-3.3-11.5-3.2c-6.1,0-10.4,2.9-10.4,7.7
	C693.4,168,697.7,170.9,703.5,170.9z"/>
<path d="M734.3,140h-8.6v-5h8.6v-10.1l5.8-1.5V135h12v5h-12v24.4c0,4.3,1.7,6,6.1,6c2,0,4-0.3,5.8-1v5.2c-2.3,0.7-4.6,1.1-7,1
	c-7,0-10.7-3.4-10.7-9.6L734.3,140z"/>
<path d="M757.3,123.4c0.1-2.2,2-3.9,4.2-3.8c2,0.1,3.7,1.7,3.8,3.8l0,0c0.1,2.2-1.6,4.1-3.8,4.2c-2.2,0.1-4.1-1.6-4.2-3.8
	C757.3,123.6,757.3,123.5,757.3,123.4z M764.2,174.8h-5.9V135h5.9V174.8z"/>
<path d="M792.7,134.2c11.2,0,20.3,9.1,20.3,20.3c0,0.1,0,0.2,0,0.4c0,11.6-9,20.8-20.3,20.8c-11.4,0-20.7-9.3-20.7-20.7
	C772,143.5,781.3,134.2,792.7,134.2L792.7,134.2z M792.7,139.4c-8.1,0-14.5,6.8-14.5,15.4c0,8.7,6.4,15.5,14.5,15.5
	c8.2,0,14.5-6.8,14.5-15.5C807.1,146.2,800.8,139.4,792.7,139.4L792.7,139.4z"/>
<path d="M821.1,135h5.9v4.6c3.1-3.6,7.7-5.6,12.5-5.4c9.2,0,15.4,6.3,15.4,15.4v25.2H849v-24c0-7-4.2-11.5-11.1-11.5
	c-4.5-0.1-8.7,2.2-11,6.1v29.3H821L821.1,135z"/>
<path d="M438.1,79.9c0,9.1,5.5,13.5,15.4,13.5c3.1-0.1,6.1-0.5,9.1-1.3V81.5c-1.9,0.6-3.9,0.9-5.9,0.9c-4.1,0-5.6-1.3-5.6-5.1V61.1
	H463V50.3h-11.9V36.5l-13,2.8v10.9h-8.6v10.9h8.6V79.9z M397.6,80.1c0-2.8,2.8-4.2,7.1-4.2c2.6,0,5.2,0.3,7.7,0.9v5.5
	c-2.5,1.4-5.3,2.1-8.1,2C400.1,84.3,397.6,82.7,397.6,80.1 M401.6,93.5c4.2,0.2,8.3-1,11.7-3.3v2.6h12.9V65.6
	c0-10.3-7-16.1-18.7-16.1c-6.9,0.1-13.7,1.7-19.9,4.7l4.7,9.6c5-2.1,9.2-3.4,12.9-3.4c5.4,0,8.1,2.1,8.1,6.4v2.1
	c-3.2-0.8-6.4-1.2-9.7-1.2c-10.9,0-17.5,4.6-17.5,12.8C386.2,87.9,392.1,93.5,401.6,93.5 M330.9,92.8h13.8V70.8h23.2v22h13.8V36.5
	h-13.9v21.6h-23.2V36.5h-13.8L330.9,92.8z M278.2,71.5c0-6.1,4.8-10.8,11.2-10.8c3.3-0.1,6.5,1.1,9,3.3v14.9c-2.4,2.3-5.7,3.5-9,3.4
	C283.1,82.3,278.2,77.6,278.2,71.5 M298.6,92.8h12.9V33.6l-13,2.8v16.1c-10.5-6.1-23.9-2.6-30,7.9c-6.1,10.5-2.6,23.9,7.9,30
	c3.2,1.9,6.8,2.9,10.4,3h0.3c4.1,0,8.1-1.3,11.4-3.7L298.6,92.8z M239.5,60.2c4.1,0,7.8,2.8,8.9,6.8h-17.8
	C231.9,62.6,235.1,60.2,239.5,60.2 M217.6,71.6c0,12.4,10.1,22,23.2,22c6.5,0.2,12.9-2.1,17.7-6.5l-8.6-7.6
	c-2.3,2.2-5.4,3.4-8.5,3.2c-4.5,0.1-8.7-2.6-10.4-6.8h30.3v-3.2c0-13.5-9.1-23.2-21.5-23.2c-12.1-0.2-22,9.5-22.1,21.5
	C217.6,71.2,217.6,71.4,217.6,71.6 M195.2,48.3c4.6,0,7.2,2.9,7.2,6.3s-2.6,6.3-7.2,6.3h-13.7V48.3H195.2z M167.6,92.8h13.8V72.3
	H192l10.6,20.5h15.4l-12.4-22.5c6.4-2.6,10.6-8.9,10.6-15.8c0-10.1-8-17.9-19.9-17.9h-28.8L167.6,92.8z"/>
<circle class="st0" cx="82.6" cy="63.4" r="58.4"/>
<path class="st1" d="M110.3,86.8L87.1,31c-0.5-1.5-2-2.5-3.6-2.5c-1.6-0.1-3.1,0.9-3.7,2.5L54.3,92.2H63L73.1,67l30,24.3
	c0.9,0.9,2,1.4,3.2,1.4c2.3,0.1,4.2-1.8,4.3-4.1c0,0,0,0,0,0v-0.1C110.6,87.9,110.5,87.3,110.3,86.8z M83.5,41l15,37.2L75.8,60.2
	L83.5,41z"/>
</svg>
