<svg id="Logos" xmlns="http://www.w3.org/2000/svg" viewBox="0 0 1110.31 335.67"><defs><style>.cls-1{fill:#e00;}.cls-2{fill:#fff;}</style></defs><title>Logo-Red_Hat-Ansible_Automation_Platform-A-Standard</title><path d="M213.6,151.83h12.8l29.74,72.8H244.29l-8.43-21.32H203.31l-8.53,21.32H183.44Zm18.73,42.43-12.69-31.93L207,194.26Z"/><path d="M262.38,171.69h10.4V177a21.81,21.81,0,0,1,15.91-6.35c12.17,0,20.7,8.43,20.7,20.7v33.28H299V193.12c0-8.32-5.1-13.42-13.11-13.42a14.94,14.94,0,0,0-13.1,6.87v38.06h-10.4Z"/><path d="M322,210.9c5.51,4.37,11.34,6.66,17.26,6.66,7.49,0,12.69-3.22,12.69-7.9,0-3.75-2.7-5.93-8.53-6.77l-9.56-1.35C323.32,200,318,195.09,318,186.88c0-9.57,8.32-16,20.69-16A36.31,36.31,0,0,1,360,177.62l-5.3,6.87C348.91,180.64,343.6,179,338,179c-6.35,0-10.61,2.92-10.61,7.18,0,3.85,2.49,5.72,8.73,6.66l9.57,1.35c10.51,1.56,16,6.55,16,14.77,0,9.46-9.57,16.64-22.15,16.64-9.16,0-17.37-2.71-23.2-7.8Z"/><path d="M368.56,156.72a6.39,6.39,0,0,1,6.35-6.45,6.45,6.45,0,0,1,0,12.9A6.4,6.4,0,0,1,368.56,156.72Zm11.55,67.91h-10.4V171.69h10.4Z"/><path d="M418.69,225.46a26.48,26.48,0,0,1-16-5.3v4.47H392.38v-72.8l10.4-2.29v27.15a24.47,24.47,0,0,1,16.12-5.83c15,0,26.73,12,26.73,27.25S433.87,225.46,418.69,225.46Zm-15.91-39.21v23.93c3.32,3.84,8.84,6.24,14.76,6.24,10.2,0,17.89-7.8,17.89-18.21s-7.8-18.3-17.89-18.3C411.51,179.91,406.21,182.2,402.78,186.25Z"/><path d="M465.9,224.63H455.5v-72.8l10.4-2.29Z"/><path d="M503.55,225.57c-15.6,0-27.77-12-27.77-27.46,0-15.29,11.65-27.25,26.52-27.25,14.56,0,25.59,12.07,25.59,27.67v3H486.08A17.86,17.86,0,0,0,504,216.73a20.57,20.57,0,0,0,13.41-4.68L524,218.6A31.6,31.6,0,0,1,503.55,225.57Zm-17.37-31.83h31.41c-1.56-8.11-7.8-14.14-15.49-14.14C494.09,179.6,487.74,185.32,486.18,193.74Z"/><path d="M583.63,151.83h12.79l29.75,72.8H614.31l-8.42-21.32H573.33l-8.52,21.32H553.47Zm18.72,42.43-12.69-31.93L577,194.26Z"/><path d="M640.52,203.1c0,8.32,5.09,13.52,13.1,13.52a14.86,14.86,0,0,0,13-7v-38H677v52.94h-10.4v-5.3a21.62,21.62,0,0,1-15.91,6.34c-12.17,0-20.59-8.53-20.59-20.8V171.69h10.4Z"/><path d="M696.16,180.43H684.93v-8.74h11.23V158.17l10.29-2.49v16h15.6v8.74h-15.6v28.71c0,5.4,2.19,7.38,7.8,7.38a20.37,20.37,0,0,0,7.6-1.25V224a34.66,34.66,0,0,1-9.88,1.56c-10.3,0-15.81-4.89-15.81-14Z"/><path d="M753.77,170.65a27.51,27.51,0,1,1-27.56,27.46A27.17,27.17,0,0,1,753.77,170.65ZM771,198.11c0-10.3-7.7-18.3-17.27-18.3s-17.36,8-17.36,18.3,7.59,18.41,17.36,18.41C763.34,216.52,771,208.41,771,198.11Z"/><path d="M791.11,171.69h10.4v5a20.28,20.28,0,0,1,14.87-6c7.18,0,13,3.33,16.33,8.84a21.22,21.22,0,0,1,17.89-8.84c11.65,0,19.86,8.43,19.86,20.7v33.28h-10.4V193.12c0-8.32-4.68-13.42-12.16-13.42-5.21,0-9.37,2.39-12.38,7.07a22.24,22.24,0,0,1,.41,4.58v33.28H825.64V193.12c0-8.32-4.68-13.42-12.17-13.42a13.88,13.88,0,0,0-12,6.45v38.48h-10.4Z"/><path d="M879.72,209.45c0-10,8.11-16.12,21.42-16.12a37.45,37.45,0,0,1,14.46,2.91v-5.62c0-7.49-4.48-11.23-12.9-11.23-4.89,0-9.88,1.35-16.43,4.47l-3.85-7.8c7.9-3.74,14.77-5.41,21.74-5.41,13.73,0,21.63,6.76,21.63,18.93v35H915.6v-4.57a25.15,25.15,0,0,1-16.44,5.51C887.62,225.57,879.72,219,879.72,209.45Zm21.84,8.42a20.37,20.37,0,0,0,14-5v-9.15A27.45,27.45,0,0,0,902,200.5c-7.59,0-12.27,3.44-12.27,8.74C889.7,214.34,894.48,217.87,901.56,217.87Z"/><path d="M942.53,180.43H931.3v-8.74h11.23V158.17l10.3-2.49v16h15.6v8.74h-15.6v28.71c0,5.4,2.18,7.38,7.8,7.38a20.35,20.35,0,0,0,7.59-1.25V224a34.66,34.66,0,0,1-9.88,1.56c-10.29,0-15.81-4.89-15.81-14Z"/><path d="M975,156.72a6.39,6.39,0,0,1,6.34-6.45,6.45,6.45,0,0,1,0,12.9A6.4,6.4,0,0,1,975,156.72Zm11.54,67.91h-10.4V171.69h10.4Z"/><path d="M1024,170.65a27.51,27.51,0,1,1-27.56,27.46A27.17,27.17,0,0,1,1024,170.65Zm17.27,27.46c0-10.3-7.7-18.3-17.27-18.3s-17.36,8-17.36,18.3,7.59,18.41,17.36,18.41C1033.53,216.52,1041.23,208.41,1041.23,198.11Z"/><path d="M1061.3,171.69h10.4V177a21.81,21.81,0,0,1,15.91-6.35c12.17,0,20.7,8.43,20.7,20.7v33.28h-10.4V193.12c0-8.32-5.1-13.42-13.11-13.42a14.94,14.94,0,0,0-13.1,6.87v38.06h-10.4Z"/><path d="M190.72,259.83h33.7c14.25,0,23.82,8.84,23.82,21.84,0,12.79-9.67,21.63-23.82,21.63H201.64v29.33H190.72Zm10.92,9.57v24.65h21.64c8.53,0,13.93-4.79,13.93-12.38s-5.4-12.27-13.93-12.27Z"/><path d="M268.62,332.63h-10.4v-72.8l10.4-2.29Z"/><path d="M278.19,317.45c0-10,8.11-16.12,21.42-16.12a37.41,37.41,0,0,1,14.46,2.91v-5.62c0-7.49-4.47-11.23-12.9-11.23-4.89,0-9.88,1.35-16.43,4.47l-3.85-7.8c7.9-3.74,14.77-5.41,21.74-5.41,13.73,0,21.63,6.76,21.63,18.93v35.05H314.07v-4.57a25.14,25.14,0,0,1-16.43,5.51C286.09,333.57,278.19,327,278.19,317.45ZM300,325.87a20.37,20.37,0,0,0,14-5v-9.15a27.45,27.45,0,0,0-13.63-3.23c-7.59,0-12.27,3.44-12.27,8.74C288.17,322.34,293,325.87,300,325.87Z"/><path d="M341,288.43H329.77v-8.74H341V266.17l10.3-2.49v16h15.6v8.74H351.3v28.71c0,5.4,2.18,7.38,7.8,7.38a20.35,20.35,0,0,0,7.59-1.25V332a34.66,34.66,0,0,1-9.88,1.56c-10.29,0-15.81-4.89-15.81-14Z"/><path d="M383.54,279.69v-8c0-11,6.34-17.06,18-17.06a27.45,27.45,0,0,1,7.49.93v9.05a21,21,0,0,0-6.55-.93c-5.72,0-8.53,2.6-8.53,8.21v7.8H409v8.74H393.94v44.2h-10.4v-44.2H371.27v-8.74Z"/><path d="M439.91,278.65a27.51,27.51,0,1,1-27.56,27.46A27.17,27.17,0,0,1,439.91,278.65Zm17.26,27.46c0-10.3-7.7-18.3-17.26-18.3s-17.37,8-17.37,18.3,7.59,18.41,17.37,18.41C449.47,324.52,457.17,316.41,457.17,306.11Z"/><path d="M477.24,279.69h10.4v6.76a16.59,16.59,0,0,1,14.56-7.9,13.31,13.31,0,0,1,5.31.83v9.36a17.8,17.8,0,0,0-6.14-1.14c-6.14,0-11,3.33-13.73,9.67v35.36h-10.4Z"/><path d="M515.82,279.69h10.4v5a20.32,20.32,0,0,1,14.88-6c7.17,0,13,3.33,16.33,8.84a21.2,21.2,0,0,1,17.88-8.84c11.65,0,19.87,8.43,19.87,20.7v33.28h-10.4V301.12c0-8.32-4.68-13.42-12.17-13.42-5.2,0-9.36,2.39-12.38,7.07a21.57,21.57,0,0,1,.42,4.58v33.28h-10.3V301.12c0-8.32-4.68-13.42-12.17-13.42a13.89,13.89,0,0,0-12,6.45v38.48h-10.4Z"/><path d="M543.31,99.4c0,11.88,7.15,17.67,20.19,17.67a52.59,52.59,0,0,0,11.89-1.68V101.61a24.78,24.78,0,0,1-7.68,1.15c-5.36,0-7.36-1.68-7.36-6.73V74.9h15.56V60.7H560.35v-18l-17,3.68V60.7H532.06V74.9h11.25Zm-52.94.32c0-3.69,3.68-5.47,9.25-5.47a42.6,42.6,0,0,1,10.1,1.26v7.15a21.5,21.5,0,0,1-10.62,2.63c-5.47,0-8.73-2.1-8.73-5.57m5.2,17.56c6,0,10.83-1.26,15.35-4.31v3.36h16.83V80.68c0-13.57-9.15-21-24.4-21-8.52,0-16.93,2-26,6.1l6.1,12.51c6.52-2.73,12-4.42,16.83-4.42,7.05,0,10.62,2.74,10.62,8.31v2.74a49,49,0,0,0-12.62-1.58c-14.3,0-22.93,6-22.93,16.72,0,9.78,7.79,17.25,20.2,17.25m-92.45-1h18.09V87.52H451.5v28.81h18.09V42.71H451.5V71H421.21V42.71H403.12ZM334.19,88.46c0-8,6.31-14.09,14.62-14.09a17.25,17.25,0,0,1,11.78,4.31V98.14a16.37,16.37,0,0,1-11.78,4.41c-8.2,0-14.62-6.1-14.62-14.09m26.61,27.87h16.83V39l-17,3.68V63.64A28.24,28.24,0,0,0,346.39,60c-16.19,0-28.92,12.52-28.92,28.5a28.26,28.26,0,0,0,28.4,28.61,25,25,0,0,0,14.93-4.84Zm-77.19-42.7c5.36,0,9.89,3.47,11.67,8.84H272c1.68-5.58,5.89-8.84,11.57-8.84M254.9,88.57c0,16.19,13.25,28.81,30.29,28.81,9.36,0,16.19-2.52,23.24-8.41L297.18,99c-2.63,2.73-6.52,4.21-11.15,4.21a14.37,14.37,0,0,1-13.67-8.84H312V90.14c0-17.66-11.89-30.39-28.08-30.39a28.57,28.57,0,0,0-29,28.82m-29.34-30.4c6,0,9.36,3.79,9.36,8.31s-3.37,8.31-9.36,8.31H207.68V58.17Zm-36,58.16h18.09V89.51h13.78l13.88,26.82h20.19L239.34,86.88a22.27,22.27,0,0,0,13.88-20.71c0-13.25-10.41-23.46-26-23.46H189.59Z"/><circle class="cls-1" cx="78.21" cy="78.21" r="76.21" transform="translate(-11.55 142.84) rotate(-80.76)"/><path class="cls-2" d="M114.53,108.44l-30.34-73a4.87,4.87,0,0,0-4.69-3.22,5,5,0,0,0-4.83,3.22l-33.3,80.07H52.76l13.18-33,39.33,31.77c1.59,1.28,2.73,1.86,4.21,1.86a5.44,5.44,0,0,0,5.57-5.44A7.07,7.07,0,0,0,114.53,108.44Zm-35-59.89L99.22,97.23,69.43,73.76Z"/></svg>