<?xml version="1.0" encoding="utf-8"?>
<!-- Generator: Adobe Illustrator 24.0.2, SVG Export Plug-In . SVG Version: 6.00 Build 0)  -->
<svg version="1.1" id="be21fb82-5042-49c8-9da2-c32d7cb761e1"
	 xmlns="http://www.w3.org/2000/svg" xmlns:xlink="http://www.w3.org/1999/xlink" x="0px" y="0px" viewBox="0 0 36 36"
	 style="enable-background:new 0 0 36 36;" xml:space="preserve">
<style type="text/css">
	.st0{fill:#EE0000;}
</style>
<g>
	<path class="st0" d="M31,8.4H5C4.7,8.4,4.4,8.7,4.4,9v18c0,0.3,0.3,0.6,0.6,0.6h0h26c0.3,0,0.6-0.3,0.6-0.6v0V9
		C31.6,8.7,31.3,8.4,31,8.4L31,8.4z M5.6,9.6h4.8v16.8H5.6V9.6z M30.4,26.4H11.6V9.6h18.8V26.4z"/>
	<path class="st0" d="M15,14.6h0.4V24c0,0.3,0.3,0.6,0.6,0.6c0.3,0,0.6-0.3,0.6-0.6v-9.4H17c0.3,0,0.6-0.3,0.6-0.6
		c0-0.3-0.3-0.6-0.6-0.6h-0.4V12c0-0.3-0.3-0.6-0.6-0.6s-0.6,0.3-0.6,0.6c0,0,0,0,0,0v1.4H15c-0.3,0-0.6,0.3-0.6,0.6
		C14.4,14.3,14.7,14.6,15,14.6z"/>
	<path class="st0" d="M20,21.6h0.4V24c0,0.3,0.3,0.6,0.6,0.6c0.3,0,0.6-0.3,0.6-0.6v-2.4H22c0.3,0,0.6-0.3,0.6-0.6
		c0-0.3-0.3-0.6-0.6-0.6h-0.4V12c0-0.3-0.3-0.6-0.6-0.6c-0.3,0-0.6,0.3-0.6,0.6v8.4H20c-0.3,0-0.6,0.3-0.6,0.6
		C19.4,21.3,19.7,21.6,20,21.6z"/>
	<path class="st0" d="M25,18.6h0.4V24c0,0.3,0.3,0.6,0.6,0.6c0.3,0,0.6-0.3,0.6-0.6v-5.4H27c0.3,0,0.6-0.3,0.6-0.6
		c0-0.3-0.3-0.6-0.6-0.6h-0.4V12c0-0.3-0.3-0.6-0.6-0.6c-0.3,0-0.6,0.3-0.6,0.6v5.4H25c-0.3,0-0.6,0.3-0.6,0.6
		C24.4,18.3,24.7,18.6,25,18.6z"/>
	<circle class="st0" cx="8" cy="12" r="0.6"/>
	<circle class="st0" cx="8" cy="24" r="0.6"/>
	<circle class="st0" cx="8" cy="21" r="0.6"/>
	<circle class="st0" cx="8" cy="18" r="0.6"/>
	<circle class="st0" cx="8" cy="15" r="0.6"/>
</g>
</svg>
