<?xml version="1.0" encoding="utf-8"?>
<!-- Generator: Adobe Illustrator 24.0.2, SVG Export Plug-In . SVG Version: 6.00 Build 0)  -->
<svg version="1.1" id="a1798bf3-23f1-47a8-b7cb-2330eaa28412"
	 xmlns="http://www.w3.org/2000/svg" xmlns:xlink="http://www.w3.org/1999/xlink" x="0px" y="0px" viewBox="0 0 36 36"
	 style="enable-background:new 0 0 36 36;" xml:space="preserve">
<style type="text/css">
	.st0{fill:#EE0000;}
</style>
<g>
	<path class="st0" d="M25,8.4c-0.3,0-0.6,0.3-0.6,0.6c0,0.3,0.4,0.6,0.7,0.5c0.3,0,0.5-0.3,0.5-0.5C25.6,8.7,25.3,8.4,25,8.4z"/>
	<path class="st0" d="M27,8.4c-0.3,0-0.6,0.3-0.6,0.6c0,0.3,0.4,0.6,0.7,0.5c0.3,0,0.5-0.3,0.5-0.5C27.6,8.7,27.3,8.4,27,8.4z"/>
	<path class="st0" d="M31,4.4H5C4.7,4.4,4.4,4.6,4.4,5c0,0,0,0,0,0v26c0,0.3,0.3,0.6,0.6,0.6c0,0,0,0,0,0h26c0.3,0,0.6-0.3,0.6-0.6
		c0,0,0,0,0,0V5C31.6,4.7,31.4,4.4,31,4.4C31,4.4,31,4.4,31,4.4z M30.4,30.4H5.6V5.6h24.8V30.4z"/>
</g>
</svg>
