<?xml version="1.0" encoding="utf-8"?>
<!-- Generator: Adobe Illustrator 24.0.2, SVG Export Plug-In . SVG Version: 6.00 Build 0)  -->
<svg version="1.1" id="af5a5e61-b2ec-476b-9edb-4e5d05508696"
	 xmlns="http://www.w3.org/2000/svg" xmlns:xlink="http://www.w3.org/1999/xlink" x="0px" y="0px" viewBox="0 0 36 36"
	 style="enable-background:new 0 0 36 36;" xml:space="preserve">
<style type="text/css">
	.st0{fill:#EE0000;}
</style>
<path class="st0" d="M22.3,12.1L22.3,12.1c-0.4,0-0.7,0.3-0.7,0.7l0,0.8c-0.4-0.4-0.9-0.6-1.4-0.8c0,0,0,0,0,0
	c-0.1,0-0.3-0.1-0.4-0.1c-0.1,0-0.2-0.1-0.4-0.1c-0.2,0-0.3,0-0.5,0c-0.1,0-0.3,0-0.4,0c-0.1,0-0.3,0-0.4,0.1c-0.1,0-0.3,0-0.4,0.1
	c-0.1,0-0.3,0.1-0.4,0.1c-0.1,0-0.2,0.1-0.4,0.1c0,0,0,0,0,0c-0.1,0.1-0.2,0.1-0.4,0.2c-0.7,0.4-1.3,1.1-1.7,1.9
	c-0.1,0.1-0.1,0.2-0.2,0.4c0,0,0,0,0,0c0,0.1-0.1,0.3-0.1,0.4c0,0.1-0.1,0.3-0.1,0.4c0,0.2,0,0.3,0,0.5c0,0.1,0,0.3,0,0.4
	c0,0.1,0,0.3,0.1,0.4c0,0.1,0,0.3,0.1,0.4c0,0.1,0.1,0.3,0.1,0.4c0,0.1,0.1,0.2,0.1,0.3c0,0,0,0,0,0c0,0,0,0,0,0.1
	c0.1,0.2,0.2,0.4,0.4,0.6c0,0.1,0.1,0.1,0.1,0.2c0.1,0.2,0.3,0.3,0.4,0.4c0,0,0.1,0.1,0.1,0.1c0.2,0.2,0.4,0.3,0.6,0.4
	c0.1,0,0.1,0.1,0.2,0.1c0.2,0.1,0.4,0.2,0.5,0.3c0,0,0.1,0,0.1,0.1s0.1,0,0.1,0c0.1,0,0.3,0.1,0.4,0.1c0.1,0,0.2,0,0.3,0.1
	c0.2,0,0.4,0,0.6,0c0,0,0.1,0,0.1,0h0c0.2,0,0.4,0,0.6,0c0,0,0.1,0,0.1,0c0.2,0,0.4-0.1,0.5-0.1c0,0,0,0,0,0
	c0.2-0.1,0.3-0.1,0.5-0.2c0,0,0,0,0,0c1-0.5,1.9-1.4,2.2-2.5c0.1-0.3,0-0.7-0.4-0.9c-0.3-0.1-0.7,0-0.9,0.4c0,0,0,0,0,0
	c-0.3,0.8-1,1.5-1.8,1.8c-0.1,0-0.2,0.1-0.3,0.1c-0.1,0-0.2,0-0.3,0c-0.1,0-0.2,0-0.3,0c-0.1,0-0.2,0-0.3,0c-0.1,0-0.2,0-0.3,0
	c-0.1,0-0.2,0-0.3-0.1c-0.1,0-0.2,0-0.3-0.1c-0.1,0-0.1-0.1-0.2-0.1c-0.1,0-0.2-0.1-0.4-0.2l0,0c-0.3-0.2-0.6-0.5-0.8-0.8
	c0,0-0.1-0.1-0.1-0.1c-0.1-0.1-0.2-0.2-0.2-0.4c0-0.1,0-0.1-0.1-0.2c-0.1-0.1-0.1-0.2-0.1-0.4c0-0.1,0-0.1,0-0.2
	c0-0.1,0-0.3-0.1-0.4c0-0.1,0-0.1,0-0.2c0-0.1,0-0.3,0-0.4c0-0.1,0-0.2,0.1-0.2c0-0.1,0.1-0.2,0.1-0.3c0-0.1,0.1-0.2,0.1-0.3
	c0-0.1,0.1-0.2,0.1-0.2c0,0,0,0,0,0c0.2-0.4,0.6-0.7,1-1c0.1-0.1,0.2-0.1,0.3-0.2c0.1,0,0.2-0.1,0.3-0.1c0.1,0,0.2-0.1,0.3-0.1
	c0.1,0,0.2,0,0.3,0c0.1,0,0.2,0,0.3,0c0.1,0,0.2,0,0.3,0c0.1,0,0.2,0,0.3,0c0.1,0,0.2,0,0.3,0.1c0.5,0.1,0.9,0.3,1.3,0.6l-1,0
	c-0.4,0-0.7,0.3-0.7,0.7c0,0.4,0.3,0.7,0.7,0.7c0,0,0,0,0,0l2.4,0.1c0,0,0,0,0,0l0.1,0h0c0.4,0,0.7-0.3,0.7-0.7l0.1-2.5
	C23,12.4,22.7,12.1,22.3,12.1L22.3,12.1z"/>
<g>
	<path class="st0" d="M10.6,25.6h17.5c0.1,0,0.2,0,0.3,0c2.8-0.5,4.7-3.1,4.2-5.9c-0.3-2-1.8-3.6-3.8-4.1l0,0c0-5-4.1-9.1-9.1-9.1
		c-3.5,0-6.6,2-8.2,5c-3.9-0.5-7.4,2.3-7.9,6.2s2.3,7.4,6.2,7.9C10,25.6,10.3,25.7,10.6,25.6L10.6,25.6z M10.6,12.6
		c0.4,0,0.7,0,1.1,0.1c0.3,0,0.6-0.1,0.7-0.4c1.7-4,6.3-5.8,10.3-4.1c2.9,1.2,4.8,4.1,4.8,7.3c0,0.1,0,0.3,0,0.4V16
		c0,0.3,0.2,0.6,0.6,0.7c2.1,0.3,3.6,2.2,3.4,4.3c-0.2,1.9-1.8,3.4-3.8,3.4h-17c-3.2,0-5.9-2.6-5.9-5.9C4.7,15.2,7.3,12.6,10.6,12.6
		L10.6,12.6z"/>
</g>
</svg>
