<?xml version="1.0" encoding="utf-8"?>
<!-- Generator: Adobe Illustrator 24.0.2, SVG Export Plug-In . SVG Version: 6.00 Build 0)  -->
<svg version="1.1" id="e34c9fa4-7417-49fb-ada4-26127262ed3c"
	 xmlns="http://www.w3.org/2000/svg" xmlns:xlink="http://www.w3.org/1999/xlink" x="0px" y="0px" viewBox="0 0 36 36"
	 style="enable-background:new 0 0 36 36;" xml:space="preserve">
<style type="text/css">
	.st0{fill:#EE0000;}
</style>
<path class="st0" d="M18,9.6c0.3,0,0.6-0.3,0.6-0.6S18.3,8.4,18,8.4c-0.3,0-0.6,0.3-0.6,0.6C17.4,9.3,17.6,9.6,18,9.6
	C18,9.6,18,9.6,18,9.6z"/>
<g>
	<path class="st0" d="M6,24.6h24c0.3,0,0.6-0.3,0.6-0.6c0,0,0,0,0,0V9c0-0.3-0.3-0.6-0.6-0.6c0,0,0,0,0,0h-9c-0.3,0-0.6,0.3-0.6,0.6
		s0.3,0.6,0.6,0.6c0,0,0,0,0,0h8.4v13.8H6.6V9.6H15c0.3,0,0.6-0.3,0.6-0.6c0-0.3-0.3-0.6-0.6-0.6H6C5.7,8.4,5.4,8.6,5.4,9
		c0,0,0,0,0,0v15C5.4,24.3,5.6,24.6,6,24.6C6,24.6,6,24.6,6,24.6z"/>
	<path class="st0" d="M32,26.4H4c-0.3,0-0.6,0.3-0.6,0.6s0.3,0.6,0.6,0.6c0,0,0,0,0,0h28c0.3,0,0.6-0.3,0.6-0.6
		C32.6,26.7,32.3,26.4,32,26.4C32,26.4,32,26.4,32,26.4z"/>
</g>
<g>
	<path class="st0" d="M17.1,21c0.4,0.1,0.8-0.2,0.9-0.6c0,0,0,0,0,0l1.5-7c0.1-0.4-0.2-0.8-0.6-0.9c-0.4-0.1-0.8,0.2-0.9,0.6
		c0,0,0,0,0,0l-1.5,7C16.5,20.5,16.7,20.9,17.1,21z"/>
	<path class="st0" d="M24.1,16.8l-2.5,2.5c-0.3,0.3-0.4,0.7-0.1,1.1c0.3,0.3,0.7,0.4,1.1,0.1c0,0,0.1-0.1,0.1-0.1l3-3
		c0.3-0.3,0.3-0.8,0-1c0,0,0,0,0,0l-3-3c-0.2-0.3-0.7-0.4-1-0.2c-0.3,0.2-0.4,0.7-0.2,1c0,0.1,0.1,0.1,0.2,0.2L24.1,16.8z"/>
	<path class="st0" d="M13.4,20.3c0.3,0.3,0.8,0.2,1.1-0.1c0.2-0.3,0.2-0.7,0-0.9l-2.5-2.5l2.5-2.5c0.7-0.7-0.4-1.7-1-1l-3,3
		c-0.3,0.3-0.3,0.8,0,1c0,0,0,0,0,0L13.4,20.3z"/>
</g>
</svg>
