<?xml version="1.0" encoding="utf-8"?>
<!-- Generator: Adobe Illustrator 24.0.2, SVG Export Plug-In . SVG Version: 6.00 Build 0)  -->
<svg version="1.1" id="ff158ad2-0899-4be3-b9ca-56281587d055"
	 xmlns="http://www.w3.org/2000/svg" xmlns:xlink="http://www.w3.org/1999/xlink" x="0px" y="0px" viewBox="0 0 36 36"
	 style="enable-background:new 0 0 36 36;" xml:space="preserve">
<style type="text/css">
	.st0{fill:#EE0000;}
</style>
<path class="st0" d="M31,4.4H5C4.7,4.4,4.4,4.7,4.4,5v20c0,0.2,0.1,0.3,0.2,0.4l6,6c0.1,0.1,0.3,0.2,0.4,0.2h20
	c0.3,0,0.6-0.3,0.6-0.6v0V5C31.6,4.7,31.3,4.4,31,4.4L31,4.4z M30.4,5.6v3.8h-4.8V8c0-0.3-0.3-0.6-0.6-0.6c-0.3,0-0.6,0.3-0.6,0.6
	v1.4H11.6V8c0-0.3-0.3-0.6-0.6-0.6c-0.3,0-0.6,0.3-0.6,0.6c0,0,0,0,0,0v1.4H5.6V5.6H30.4z M10.4,29.5l-3.9-3.9h3.9L10.4,29.5z
	 M11.6,30.4V25c0-0.3-0.3-0.6-0.6-0.6c0,0,0,0,0,0H5.6V10.6h4.8V12c0,0.3,0.3,0.6,0.6,0.6c0.3,0,0.6-0.3,0.6-0.6v-1.4h12.8V12
	c0,0.3,0.3,0.6,0.6,0.6s0.6-0.3,0.6-0.6c0,0,0,0,0,0v-1.4h4.8v19.8L11.6,30.4z"/>
</svg>
