<?xml version="1.0" encoding="utf-8"?>
<!-- Generator: Adobe Illustrator 24.0.2, SVG Export Plug-In . SVG Version: 6.00 Build 0)  -->
<svg version="1.1" id="a6f7e7ba-00cc-4ae9-9d0d-5295ea706da1"
	 xmlns="http://www.w3.org/2000/svg" xmlns:xlink="http://www.w3.org/1999/xlink" x="0px" y="0px" viewBox="0 0 36 36"
	 style="enable-background:new 0 0 36 36;" xml:space="preserve">
<style type="text/css">
	.st0{fill:#EE0000;}
</style>
<path class="st0" d="M27,12.4h-3.4V10c0-3.1-2.5-5.6-5.6-5.6s-5.6,2.5-5.6,5.6v2.4H9c-0.3,0-0.6,0.3-0.6,0.6v18
	c0,0.3,0.3,0.6,0.6,0.6c0,0,0,0,0,0h18c0.3,0,0.6-0.3,0.6-0.6v0V13C27.6,12.7,27.3,12.4,27,12.4L27,12.4z M13.6,10
	c0-2.4,2-4.4,4.4-4.4s4.4,2,4.4,4.4v2.4h-8.8V10z M9.6,30.4V13.6h16.8v3.8H18c-0.3,0-0.6,0.3-0.6,0.6c0,0.3,0.3,0.6,0.6,0.6h8.4v2.8
	H18c-0.3,0-0.6,0.3-0.6,0.6c0,0.3,0.3,0.6,0.6,0.6h8.4v2.8H18c-0.3,0-0.6,0.3-0.6,0.6c0,0.3,0.3,0.6,0.6,0.6h8.4v3.8H9.6z"/>
</svg>
