<?xml version="1.0" encoding="utf-8"?>
<!-- Generator: Adobe Illustrator 24.0.2, SVG Export Plug-In . SVG Version: 6.00 Build 0)  -->
<svg version="1.1" id="eeab1654-dbaa-4a4c-9ca2-3735b2d9e748"
	 xmlns="http://www.w3.org/2000/svg" xmlns:xlink="http://www.w3.org/1999/xlink" x="0px" y="0px" viewBox="0 0 36 36"
	 style="enable-background:new 0 0 36 36;" xml:space="preserve">
<style type="text/css">
	.st0{fill:#EE0000;}
</style>
<g>
	<path class="st0" d="M17.4,8v10c0,0.3,0.4,0.6,0.7,0.5c0.3,0,0.5-0.3,0.5-0.5V8c0-0.3-0.4-0.6-0.7-0.5C17.6,7.5,17.4,7.7,17.4,8z"
		/>
	<path class="st0" d="M24.4,8v7c0,0.3,0.4,0.6,0.7,0.5c0.3,0,0.5-0.3,0.5-0.5V8c0-0.3-0.4-0.6-0.7-0.5C24.6,7.5,24.4,7.7,24.4,8z"/>
	<path class="st0" d="M10.4,8v12c0,0.3,0.4,0.6,0.7,0.5c0.3,0,0.5-0.3,0.5-0.5V8c0-0.3-0.4-0.6-0.7-0.5C10.6,7.5,10.4,7.7,10.4,8z"
		/>
	<path class="st0" d="M31,17.9c-0.3,0-0.6,0.3-0.6,0.6v11.9H5.6v-2.9c0-0.3-0.4-0.6-0.7-0.5c-0.3,0-0.5,0.3-0.5,0.5V31
		c0,0.3,0.3,0.6,0.6,0.6h26c0.3,0,0.6-0.3,0.6-0.6l0,0V18.5C31.6,18.2,31.3,17.9,31,17.9L31,17.9z"/>
	<path class="st0" d="M5,21c0.3,0,0.6-0.3,0.6-0.6V5.6h24.8V9c0,0.3,0.4,0.6,0.7,0.5c0.3,0,0.5-0.3,0.5-0.5V5c0-0.3-0.3-0.6-0.6-0.6
		l0,0H5C4.7,4.4,4.4,4.7,4.4,5v15.4C4.4,20.7,4.6,21,5,21L5,21z"/>
	<path class="st0" d="M32.3,11.8c-0.3-0.2-0.7-0.1-0.9,0.2l0,0c-2.7,4.1-10,11-27.5,11.3c-0.3,0-0.6,0.4-0.5,0.7
		c0,0.3,0.3,0.5,0.5,0.5c18.1-0.3,25.6-7.6,28.5-11.9C32.7,12.3,32.6,12,32.3,11.8z"/>
</g>
</svg>
