<?xml version="1.0" encoding="utf-8"?>
<!-- Generator: Adobe Illustrator 24.0.2, SVG Export Plug-In . SVG Version: 6.00 Build 0)  -->
<svg version="1.1" id="feaa8b76-6188-4d9f-8840-65b7734e11aa"
	 xmlns="http://www.w3.org/2000/svg" xmlns:xlink="http://www.w3.org/1999/xlink" x="0px" y="0px" viewBox="0 0 36 36"
	 style="enable-background:new 0 0 36 36;" xml:space="preserve">
<style type="text/css">
	.st0{fill:#EE0000;}
</style>
<path class="st0" d="M10.6,27.5h17.5c0.1,0,0.2,0,0.3,0c2.8-0.5,4.7-3.1,4.2-5.9c-0.3-2-1.8-3.6-3.8-4.1l0,0c0-5-4.1-9.1-9.1-9.1
	c-3.5,0-6.6,2-8.2,5c-3.9-0.5-7.4,2.3-7.9,6.2s2.3,7.4,6.2,7.9C10,27.5,10.3,27.6,10.6,27.5L10.6,27.5z M10.6,14.5
	c0.4,0,0.7,0,1.1,0.1c0.3,0,0.6-0.1,0.7-0.4c1.7-4,6.3-5.8,10.3-4.1c2.9,1.2,4.8,4.1,4.8,7.3c0,0.1,0,0.3,0,0.4v0.1
	c0,0.3,0.2,0.6,0.6,0.7c2.1,0.3,3.6,2.2,3.4,4.3c-0.2,1.9-1.8,3.4-3.8,3.4h-17c-3.2,0-5.9-2.6-5.9-5.9C4.7,17.1,7.3,14.5,10.6,14.5
	L10.6,14.5z M21.4,16.2c0-1.4-1-2.5-2.4-2.5s-2.5,1-2.5,2.4c0,0.8,0.4,1.6,1,2.1l-0.4,1.6L16.6,22c-0.1,0.4,0.2,0.9,0.6,1
	c0.1,0,0.1,0,0.2,0h3.2c0.4,0,0.8-0.4,0.8-0.8c0-0.1,0-0.1,0-0.2l-0.5-2.2l-0.4-1.6c0.1-0.1,0.2-0.1,0.3-0.2
	C21.1,17.5,21.4,16.9,21.4,16.2z"/>
</svg>
