<svg id="Logos" xmlns="http://www.w3.org/2000/svg" viewBox="0 0 615.84 243.42"><defs><style>.cls-1{fill:#e00;}</style></defs><title>Logo-Red_Hat-InsightsA-Standard-RGB</title><path d="M228.65,146.74h10.92v72.8H228.65Z"/><path d="M253.09,166.6h10.4v5.3a21.62,21.62,0,0,1,15.91-6.34c12.17,0,20.6,8.53,20.6,20.7v33.28H289.7V188c0-8.22-5-13.42-13.21-13.42a14.91,14.91,0,0,0-13,6.86v38.07h-10.4Z"/><path d="M312.78,205.81a27.28,27.28,0,0,0,17.27,6.66c8.32,0,12.69-3.64,12.69-7.91,0-3.74-2.6-5.93-8.53-6.76l-9.57-1.35c-10.4-1.46-15.81-6.45-15.81-14.66,0-9.68,8.53-16,20.7-16a36.37,36.37,0,0,1,21.32,6.76l-5.3,6.86c-5.1-3.43-10.4-5.51-16.75-5.51-6.13,0-10.61,2.7-10.61,7.18,0,3.95,2.5,5.72,8.74,6.65l9.57,1.36c10.71,1.56,16,6.65,16,14.76,0,9.57-9.57,16.64-22.16,16.64-8.84,0-17.16-2.6-23.19-7.8Z"/><path d="M359.17,151.62a6.48,6.48,0,0,1,6.45-6.44,6.45,6.45,0,0,1,0,12.89A6.48,6.48,0,0,1,359.17,151.62Zm11.65,67.92h-10.4V166.6h10.4Z"/><path d="M380.59,192.81c0-15.19,11.75-27.15,26.83-27.15A25.57,25.57,0,0,1,423.13,171V166.6h10.3V220c0,13.94-8.74,21.43-24.24,21.43a44.06,44.06,0,0,1-21.32-5.2l4.06-8.11c6,3.12,11.33,4.57,16.95,4.57,9.26,0,14.14-4.26,14.14-12.58v-5.72a24.67,24.67,0,0,1-15.8,5.61C392.24,220,380.59,208,380.59,192.81Zm27.87,18.1A19.07,19.07,0,0,0,423,204.77V180.85a19.07,19.07,0,0,0-14.56-6.14c-10,0-17.68,7.91-17.68,18.1S398.48,210.91,408.46,210.91Z"/><path d="M482.1,188c0-8.22-5-13.42-13.21-13.42a14.91,14.91,0,0,0-13,6.86v38.07h-10.4v-72.8l10.4-2.29V171.9a21.62,21.62,0,0,1,15.91-6.34c12.17,0,20.59,8.53,20.59,20.7v33.28H482.1Z"/><path d="M509.34,175.34H498.11V166.6h11.23V153.08l10.3-2.5v16h15.6v8.74h-15.6V204c0,5.41,2.18,7.39,7.8,7.39a20.18,20.18,0,0,0,7.59-1.25v8.73a35.44,35.44,0,0,1-9.88,1.56c-10.3,0-15.81-4.88-15.81-14Z"/><path d="M544.6,205.81a27.23,27.23,0,0,0,17.26,6.66c8.32,0,12.69-3.64,12.69-7.91,0-3.74-2.6-5.93-8.53-6.76l-9.57-1.35c-10.4-1.46-15.8-6.45-15.8-14.66,0-9.68,8.52-16,20.69-16a36.34,36.34,0,0,1,21.32,6.76l-5.3,6.86c-5.1-3.43-10.4-5.51-16.75-5.51-6.13,0-10.6,2.7-10.6,7.18,0,3.95,2.49,5.72,8.73,6.65l9.57,1.36c10.71,1.56,16,6.65,16,14.76,0,9.57-9.57,16.64-22.16,16.64-8.84,0-17.16-2.6-23.19-7.8Z"/><path class="cls-1" d="M129,85c12.51,0,30.61-2.58,30.61-17.46a14,14,0,0,0-.31-3.42l-7.45-32.36c-1.72-7.12-3.23-10.35-15.73-16.6C126.39,10.19,105.26,2,99,2c-5.82,0-7.55,7.54-14.45,7.54-6.68,0-11.64-5.6-17.89-5.6-6,0-9.91,4.09-12.93,12.5,0,0-8.41,23.72-9.49,27.16A6.43,6.43,0,0,0,44,45.54C44,54.76,80.33,85,129,85m32.55-11.42c1.73,8.19,1.73,9.05,1.73,10.13,0,14-15.74,21.77-36.43,21.77C80,105.47,39.08,78.1,39.08,60a18.45,18.45,0,0,1,1.51-7.33C23.77,53.52,2,56.54,2,75.72,2,107.2,76.59,146,135.65,146c45.28,0,56.7-20.48,56.7-36.65,0-12.72-11-27.16-30.83-35.78"/><path d="M161.52,73.57c1.73,8.19,1.73,9.05,1.73,10.13,0,14-15.74,21.77-36.43,21.77C80,105.47,39.08,78.1,39.08,60a18.45,18.45,0,0,1,1.51-7.33l3.66-9.06A6.43,6.43,0,0,0,44,45.54C44,54.76,80.33,85,129,85c12.51,0,30.61-2.58,30.61-17.46a14,14,0,0,0-.31-3.42Z"/><path d="M581.24,94.3c0,11.89,7.15,17.67,20.19,17.67a52.11,52.11,0,0,0,11.89-1.68V96.51a24.84,24.84,0,0,1-7.68,1.16c-5.37,0-7.36-1.68-7.36-6.73V69.8h15.56V55.6H598.28v-18l-17,3.68V55.6H570V69.8h11.25Zm-53,.32c0-3.68,3.69-5.47,9.26-5.47a43.12,43.12,0,0,1,10.1,1.26v7.15A21.51,21.51,0,0,1,537,100.19c-5.46,0-8.73-2.1-8.73-5.57m5.2,17.56c6,0,10.84-1.26,15.36-4.31v3.37h16.82V75.58c0-13.56-9.14-21-24.39-21-8.52,0-16.94,2-26,6.1l6.1,12.52c6.52-2.74,12-4.42,16.83-4.42,7,0,10.62,2.73,10.62,8.31v2.73a49.53,49.53,0,0,0-12.62-1.58c-14.31,0-22.93,6-22.93,16.73,0,9.78,7.78,17.24,20.19,17.24m-92.44-.94h18.09V82.42h30.29v28.82h18.09V37.62H489.43V65.91H459.14V37.62H441.05ZM372.12,83.37c0-8,6.31-14.1,14.62-14.1a17.22,17.22,0,0,1,11.78,4.32V93a16.36,16.36,0,0,1-11.78,4.42c-8.2,0-14.62-6.1-14.62-14.09m26.61,27.87h16.83V33.94l-17,3.68V58.55a28.3,28.3,0,0,0-14.2-3.68c-16.19,0-28.92,12.51-28.92,28.5A28.25,28.25,0,0,0,383.8,112a25.12,25.12,0,0,0,14.93-4.83Zm-77.19-42.7c5.36,0,9.88,3.47,11.67,8.83H310c1.68-5.57,5.89-8.83,11.57-8.83M292.83,83.47c0,16.2,13.25,28.82,30.28,28.82,9.36,0,16.2-2.53,23.25-8.42l-11.26-10c-2.63,2.74-6.52,4.21-11.14,4.21a14.39,14.39,0,0,1-13.68-8.83h39.65V85.05c0-17.67-11.88-30.39-28.08-30.39a28.57,28.57,0,0,0-29,28.81M263.49,53.08c6,0,9.36,3.78,9.36,8.31s-3.37,8.31-9.36,8.31H245.61V53.08Zm-36,58.16h18.09V84.42h13.77l13.89,26.82h20.19l-16.2-29.45a22.27,22.27,0,0,0,13.88-20.72c0-13.25-10.41-23.45-26-23.45H227.52Z"/></svg>