<?xml version="1.0" encoding="utf-8"?>
<!-- Generator: Adobe Illustrator 24.0.2, SVG Export Plug-In . SVG Version: 6.00 Build 0)  -->
<svg version="1.1" id="Logos" xmlns="http://www.w3.org/2000/svg" xmlns:xlink="http://www.w3.org/1999/xlink" x="0px" y="0px"
	 viewBox="0 0 316 72.9" style="enable-background:new 0 0 316 72.9;" xml:space="preserve">
<style type="text/css">
	.st0{fill:#EE0000;}
</style>
<title>Logo-Red_Hat-InsightsA-Standard-RGB</title>
<g>
	<g>
		<path d="M58.8,37.6h2.8v18.9h-2.8V37.6z"/>
		<path d="M65.2,42.7h2.7v1.4c1.1-1.1,2.6-1.7,4.1-1.6c3.2,0,5.3,2.2,5.3,5.4v8.6h-2.7v-8.2c0-2.1-1.3-3.5-3.4-3.5
			c-1.4,0-2.6,0.6-3.4,1.8v9.9h-2.7L65.2,42.7z"/>
		<path d="M80.7,52.9c1.2,1.1,2.8,1.7,4.5,1.7c2.2,0,3.3-0.9,3.3-2.1c0-1-0.7-1.5-2.2-1.8l-2.5-0.4c-2.7-0.4-4.1-1.7-4.1-3.8
			c0-2.5,2.2-4.2,5.4-4.2c2,0,3.9,0.6,5.5,1.8L89.2,46c-1.3-0.9-2.7-1.4-4.3-1.4c-1.6,0-2.8,0.7-2.8,1.9c0,1,0.6,1.5,2.3,1.7
			l2.5,0.4c2.8,0.4,4.2,1.7,4.2,3.8c0,2.5-2.5,4.3-5.8,4.3c-2.3,0-4.5-0.7-6-2L80.7,52.9z"/>
		<path d="M92.7,38.8c0-0.9,0.8-1.7,1.7-1.7c0.9,0,1.6,0.8,1.6,1.7c0,0.9-0.7,1.6-1.6,1.6C93.5,40.5,92.7,39.8,92.7,38.8z
			 M95.7,56.5H93V42.7h2.7V56.5z"/>
		<path d="M98.3,49.5c0-3.9,3-7,7-7c1.5,0,2.9,0.5,4.1,1.4v-1.1h2.7v13.9c0,3.6-2.3,5.6-6.3,5.6c-1.9,0-3.8-0.4-5.5-1.3l1.1-2.1
			c1.6,0.8,2.9,1.2,4.4,1.2c2.4,0,3.7-1.1,3.7-3.3v-1.5c-1.2,0.9-2.6,1.5-4.1,1.5C101.3,56.6,98.3,53.5,98.3,49.5z M105.5,54.2
			c1.4,0,2.8-0.5,3.8-1.6v-6.2c-1-1.1-2.3-1.6-3.8-1.6c-2.6,0-4.6,2.1-4.6,4.7C100.9,52.2,102.9,54.2,105.5,54.2z"/>
		<path d="M124.6,48.3c0-2.1-1.3-3.5-3.4-3.5c-1.4,0-2.6,0.6-3.4,1.8v9.9h-2.7V37.6l2.7-0.6v7.1c1.1-1.1,2.6-1.7,4.1-1.6
			c3.2,0,5.3,2.2,5.3,5.4v8.6h-2.7V48.3z"/>
		<path d="M131.7,45h-2.9v-2.3h2.9v-3.5l2.7-0.6v4.2h4V45h-4v7.4c0,1.4,0.6,1.9,2,1.9c0.7,0,1.3-0.1,2-0.3v2.3
			c-0.8,0.3-1.7,0.4-2.6,0.4c-2.7,0-4.1-1.3-4.1-3.6L131.7,45z"/>
		<path d="M140.8,52.9c1.2,1.1,2.8,1.7,4.5,1.7c2.2,0,3.3-0.9,3.3-2.1c0-1-0.7-1.5-2.2-1.8l-2.5-0.4c-2.7-0.4-4.1-1.7-4.1-3.8
			c0-2.5,2.2-4.2,5.4-4.2c2,0,3.9,0.6,5.5,1.8l-1.4,1.8c-1.3-0.9-2.7-1.4-4.3-1.4c-1.6,0-2.8,0.7-2.8,1.9c0,1,0.6,1.5,2.3,1.7
			l2.5,0.4c2.8,0.4,4.2,1.7,4.2,3.8c0,2.5-2.5,4.3-5.8,4.3c-2.3,0-4.5-0.7-6-2L140.8,52.9z"/>
	</g>
	<g>
		<path class="st0" d="M33,21.5c3.2,0,7.9-0.7,7.9-4.5c0-0.3,0-0.6-0.1-0.9l-1.9-8.4c-0.4-1.8-0.8-2.7-4.1-4.3
			c-2.5-1.3-8-3.4-9.6-3.4c-1.5,0-2,2-3.8,2c-1.7,0-3-1.5-4.6-1.5c-1.6,0-2.6,1.1-3.4,3.2c0,0-2.2,6.2-2.5,7c0,0.2-0.1,0.3-0.1,0.5
			C10.9,13.7,20.3,21.5,33,21.5 M41.4,18.6c0.4,2.1,0.4,2.3,0.4,2.6c0,3.6-4.1,5.7-9.5,5.7c-12.2,0-22.8-7.1-22.8-11.8
			c0-0.7,0.1-1.3,0.4-1.9c-4.4,0.2-10,1-10,6c0,8.2,19.4,18.2,34.7,18.2c11.8,0,14.7-5.3,14.7-9.5C49.4,24.6,46.6,20.8,41.4,18.6"/>
		<path d="M41.4,18.6c0.4,2.1,0.4,2.3,0.4,2.6c0,3.6-4.1,5.7-9.5,5.7c-12.2,0-22.8-7.1-22.8-11.8c0-0.7,0.1-1.3,0.4-1.9l0.9-2.4
			c0,0.2-0.1,0.3-0.1,0.5c0,2.4,9.4,10.2,22.1,10.2c3.2,0,7.9-0.7,7.9-4.5c0-0.3,0-0.6-0.1-0.9L41.4,18.6z"/>
	</g>
	<path d="M150.3,24c0,3.1,1.9,4.6,5.2,4.6c1,0,2.1-0.2,3.1-0.4v-3.6c-0.6,0.2-1.3,0.3-2,0.3c-1.4,0-1.9-0.4-1.9-1.7v-5.5h4v-3.7h-4
		V9.2l-4.4,1v3.7h-2.9v3.7h2.9L150.3,24z M136.6,24c0-1,1-1.4,2.4-1.4c0.9,0,1.8,0.1,2.6,0.3v1.9c-0.8,0.5-1.8,0.7-2.8,0.7
		C137.4,25.5,136.6,24.9,136.6,24 M137.9,28.6c1.6,0,2.8-0.3,4-1.1v0.9h4.4v-9.3c0-3.5-2.4-5.5-6.3-5.5c-2.2,0-4.4,0.5-6.7,1.6
		l1.6,3.2c1.7-0.7,3.1-1.1,4.4-1.1c1.8,0,2.8,0.7,2.8,2.2v0.7c-1.1-0.3-2.2-0.4-3.3-0.4c-3.7,0-6,1.6-6,4.3
		C132.7,26.7,134.7,28.6,137.9,28.6 M113.9,28.4h4.7v-7.5h7.9v7.5h4.7V9.2h-4.7v7.3h-7.9V9.2H114L113.9,28.4z M96.1,21.1
		c0-2.1,1.6-3.7,3.8-3.7c1.1,0,2.2,0.4,3.1,1.1v5c-0.8,0.8-1.9,1.2-3.1,1.1C97.7,24.8,96.1,23.2,96.1,21.1 M103,28.3h4.4V8.3l-4.4,1
		v5.4c-1.1-0.6-2.4-1-3.7-1c-4.2,0-7.5,3.2-7.5,7.4c-0.1,4,3.2,7.4,7.2,7.4c0,0,0.1,0,0.1,0c1.4,0,2.8-0.4,3.9-1.3V28.3z M82.9,17.3
		c1.4,0,2.6,0.9,3,2.3h-6C80.4,18.1,81.5,17.3,82.9,17.3 M75.5,21.1c0,4.2,3.4,7.5,7.9,7.5c2.4,0,4.2-0.7,6-2.2l-2.9-2.6
		c-0.7,0.7-1.7,1.1-2.9,1.1c-1.5,0-3-0.9-3.6-2.3h10.3v-1.1c0-4.6-3.1-7.9-7.3-7.9c-4.1-0.1-7.5,3.2-7.5,7.3
		C75.5,21,75.5,21.1,75.5,21.1 M67.9,13.3c1.6,0,2.4,1,2.4,2.2s-0.9,2.2-2.4,2.2h-4.6v-4.3H67.9z M58.5,28.4h4.7v-7h3.6l3.6,7h5.2
		l-4.2-7.6c2.2-0.9,3.6-3,3.6-5.4c0-3.4-2.7-6.1-6.7-6.1h-9.8L58.5,28.4z"/>
</g>
</svg>
