<?xml version="1.0" encoding="utf-8"?>
<!-- Generator: Adobe Illustrator 24.0.2, SVG Export Plug-In . SVG Version: 6.00 Build 0)  -->
<svg version="1.1" id="Layer_1" xmlns="http://www.w3.org/2000/svg" xmlns:xlink="http://www.w3.org/1999/xlink" x="0px" y="0px"
	 viewBox="0 0 320 90" style="enable-background:new 0 0 320 90;" xml:space="preserve">
<style type="text/css">
	.st0{fill:#EE0000;}
</style>
<title>Logo-Red_Hat-Smart_Management-A-Standard-RGB</title>
<g>
	<path d="M43.9,19.7c0.5,2.3,0.5,2.5,0.5,2.8c0,3.9-4.3,6-10,6C21.5,28.5,10.2,21,10.2,16c0-0.7,0.1-1.4,0.4-2l1-2.5
		c0,0.2-0.1,0.4-0.1,0.5c0,2.5,10,10.9,23.4,10.9c3.4,0,8.4-0.7,8.4-4.8c0-0.3,0-0.6-0.1-0.9L43.9,19.7z"/>
	<path class="st0" d="M35,22.9c3.4,0,8.4-0.7,8.4-4.8c0-0.3,0-0.6-0.1-0.9l-2.1-8.9c-0.5-2-0.9-2.8-4.3-4.6C34.3,2.3,28.4,0,26.7,0
		c-1.6,0-2.1,2.1-4,2.1c-1.8,0-3.2-1.5-4.9-1.5c-1.7,0-2.7,1.1-3.6,3.4c0,0-2.3,6.5-2.6,7.5c0,0.2-0.1,0.4-0.1,0.5
		C11.6,14.5,21.6,22.9,35,22.9 M43.9,19.7c0.5,2.3,0.5,2.5,0.5,2.8c0,3.9-4.3,6-10,6C21.5,28.5,10.2,21,10.2,16c0-0.7,0.1-1.4,0.4-2
		C6,14.2,0,15,0,20.3C0,29,20.5,39.7,36.8,39.7c12.5,0,15.6-5.6,15.6-10.1C52.4,26.1,49.4,22.1,43.9,19.7"/>
	<path d="M62.4,54.5c2.1,2.1,4.4,3.1,6.9,3.1c2.9,0,4.9-1.4,4.9-3.4c0-1.7-1.1-2.7-4.1-3.1l-3.4-0.6c-3.7-0.6-5.5-2.4-5.5-5.2
		c0-3.5,2.9-5.8,7.4-5.8c2.9,0,5.7,1,8.1,2.7L75,44.5c-2.2-1.7-4.4-2.5-6.6-2.5c-2.6,0-4.4,1.2-4.4,3c0,1.6,1,2.4,3.6,2.8l3.2,0.5
		c4.3,0.7,6.2,2.5,6.2,5.6c0,3.7-3.2,6.2-8,6.2c-3.2,0-6.3-1.3-8.6-3.6L62.4,54.5z M79.6,45.3h2.9v1.3c1.1-1.1,2.5-1.7,4.1-1.6
		c1.8,0,3.5,0.9,4.5,2.4c1.2-1.6,2.8-2.4,4.9-2.4c3.2,0,5.4,2.3,5.4,5.7v9.2h-2.8v-8.7c0-2.3-1.3-3.7-3.4-3.7
		c-1.5,0-2.6,0.7-3.4,1.9c0.1,0.4,0.1,0.8,0.1,1.3v9.2H89v-8.7c0-2.3-1.3-3.7-3.3-3.7c-1.3,0-2.6,0.6-3.3,1.7v10.6h-2.9L79.6,45.3z
		 M104,55.7c0-2.9,2.5-4.4,5.9-4.4c1.4,0,2.7,0.3,4,0.8v-1.5c0-2.1-1.2-3.1-3.5-3.1c-1.4,0-2.8,0.4-4.5,1.2l-1.1-2.1
		c2.1-1,4-1.5,6-1.5c3.8,0,6,1.8,6,5.2v9.6H114v-1.2c-1.3,1-2.8,1.5-4.5,1.5C106.2,60.2,104,58.3,104,55.7z M110,58
		c1.4,0,2.8-0.4,3.9-1.4v-2.5c-1.2-0.6-2.4-0.9-3.7-0.9c-2,0-3.4,0.9-3.4,2.4S108.1,58,110,58z M120,45.3h2.9v1.8
		c0.9-1.3,2.4-2.1,4-2.1c0.5,0,1,0.1,1.5,0.2v2.6c-0.6-0.2-1.1-0.3-1.7-0.3c-1.5,0-2.9,0.7-3.8,2.6v9.8H120V45.3z M132.9,47.7h-3.1
		v-2.4h3.1v-3.7l2.8-0.7v4.4h4.3v2.4h-4.3v7.9c0,1.5,0.6,2,2.2,2c0.7,0,1.4-0.1,2.1-0.3v2.4c-0.9,0.3-1.8,0.4-2.7,0.4
		c-2.8,0-4.4-1.3-4.4-3.9L132.9,47.7L132.9,47.7z M151.2,43.6v16.3h-2.8v-20h4l6.3,12.8l6.3-12.8h4v20h-2.8V43.5l-7.5,14.9
		L151.2,43.6z M171.7,55.7c0-2.9,2.5-4.4,5.9-4.4c1.4,0,2.7,0.3,4,0.8v-1.5c0-2.1-1.2-3.1-3.6-3.1c-1.4,0-2.8,0.4-4.5,1.2l-1.1-2.1
		c2.1-1,4-1.5,6-1.5c3.8,0,6,1.8,6,5.2v9.6h-2.8v-1.2c-1.3,1-2.8,1.5-4.5,1.5C173.9,60.2,171.7,58.3,171.7,55.7z M177.7,58
		c1.4,0,2.8-0.4,3.9-1.4v-2.5c-1.2-0.6-2.4-0.9-3.8-0.9c-2,0-3.4,0.9-3.4,2.4C174.5,57.1,175.8,58,177.7,58L177.7,58z M187.7,45.3
		h2.9v1.5c1.2-1.2,2.7-1.8,4.4-1.7c3.4,0,5.7,2.3,5.7,5.7V60h-2.8v-8.7c0-2.3-1.4-3.7-3.6-3.7c-1.4,0-2.8,0.7-3.6,1.9V60h-2.9
		L187.7,45.3z M203.2,55.7c0-2.9,2.5-4.4,5.9-4.4c1.4,0,2.7,0.3,4,0.8v-1.5c0-2.1-1.2-3.1-3.5-3.1c-1.4,0-2.8,0.4-4.5,1.2l-1.1-2.1
		c2.1-1,4-1.5,6-1.5c3.8,0,6,1.8,6,5.2v9.6h-2.8v-1.2c-1.3,1-2.8,1.5-4.5,1.5C205.4,60.2,203.2,58.3,203.2,55.7z M209.2,58
		c1.4,0,2.8-0.4,3.9-1.4v-2.5c-1.2-0.6-2.4-0.9-3.8-0.9c-2,0-3.4,0.9-3.4,2.4C206,57.1,207.3,58,209.2,58L209.2,58z M218.6,52.5
		c0-4.2,3.2-7.5,7.4-7.5c1.6,0,3.1,0.5,4.3,1.5v-1.2h2.8V60c0,3.8-2.4,5.9-6.7,5.9c-2,0-4.1-0.5-5.9-1.4l1.1-2.2
		c1.7,0.9,3.1,1.3,4.7,1.3c2.5,0,3.9-1.2,3.9-3.5v-1.6c-1.2,1-2.8,1.6-4.4,1.5C221.8,60,218.6,56.7,218.6,52.5z M226.2,57.5
		c1.5,0,3-0.6,4-1.7v-6.6c-1-1.1-2.5-1.7-4-1.7c-2.8,0-4.9,2.2-4.9,5C221.4,55.3,223.5,57.5,226.2,57.5z M243.1,45.1
		c4,0,7,3.3,7,7.6v0.8h-11.5c0.4,2.4,2.5,4.2,4.9,4.2c1.3,0,2.7-0.4,3.7-1.3l1.8,1.8c-1.6,1.3-3.6,2-5.6,1.9c-4.3,0-7.6-3.3-7.6-7.6
		C235.8,48.4,239,45.1,243.1,45.1z M238.7,51.4h8.6c-0.4-2.2-2.1-3.9-4.3-3.9S239.1,49.1,238.7,51.4L238.7,51.4z M252.8,45.3h2.9
		v1.3c1.1-1.1,2.5-1.7,4.1-1.6c1.8,0,3.5,0.9,4.5,2.4c1.2-1.6,2.8-2.4,4.9-2.4c3.2,0,5.4,2.3,5.4,5.7v9.2h-2.8v-8.7
		c0-2.3-1.3-3.7-3.4-3.7c-1.5,0-2.6,0.7-3.4,1.9c0.1,0.4,0.1,0.8,0.1,1.3v9.2h-2.9v-8.7c0-2.3-1.3-3.7-3.3-3.7
		c-1.3,0-2.6,0.6-3.3,1.7v10.6h-2.9L252.8,45.3z M284.7,45.1c4,0,7,3.3,7,7.6v0.8h-11.5c0.4,2.4,2.5,4.2,4.9,4.2
		c1.3,0,2.7-0.4,3.7-1.3l1.8,1.8c-1.6,1.3-3.6,2-5.6,1.9c-4.3,0-7.6-3.3-7.6-7.6C277.3,48.4,280.5,45.1,284.7,45.1z M280.2,51.4h8.6
		c-0.4-2.2-2.1-3.9-4.3-3.9C282.4,47.5,280.6,49.1,280.2,51.4L280.2,51.4z M294.4,45.3h2.9v1.5c1.2-1.2,2.7-1.8,4.4-1.7
		c3.4,0,5.7,2.3,5.7,5.7V60h-2.8v-8.7c0-2.3-1.4-3.7-3.6-3.7c-1.4,0-2.8,0.7-3.6,1.9V60h-2.9V45.3H294.4z M312,47.7h-3.1v-2.4h3.1
		v-3.7l2.8-0.7v4.4h4.3v2.4h-4.3v7.9c0,1.5,0.6,2,2.1,2c0.7,0,1.4-0.1,2.1-0.3v2.4c-0.9,0.3-1.8,0.4-2.7,0.4c-2.8,0-4.4-1.3-4.4-3.9
		v-8.5H312z M159.5,25.4c0,3.3,2,4.9,5.6,4.9c1.1,0,2.2-0.2,3.3-0.5V26c-0.7,0.2-1.4,0.3-2.1,0.3c-1.5,0-2-0.5-2-1.9v-5.8h4.3v-3.9
		h-4.3v-5l-4.7,1v3.9h-3.1v3.9h3.1L159.5,25.4z M144.9,25.5c0-1,1-1.5,2.5-1.5c0.9,0,1.9,0.1,2.8,0.3v2c-0.9,0.5-1.9,0.7-2.9,0.7
		C145.8,27,144.9,26.5,144.9,25.5 M146.3,30.3c1.7,0,3-0.3,4.2-1.2V30h4.6v-9.8c0-3.7-2.5-5.8-6.7-5.8c-2.3,0-4.7,0.6-7.2,1.7
		l1.7,3.4c1.8-0.8,3.3-1.2,4.6-1.2c1.9,0,2.9,0.8,2.9,2.3v0.8c-1.1-0.3-2.3-0.4-3.5-0.4c-3.9,0-6.3,1.7-6.3,4.6
		C140.8,28.3,142.9,30.3,146.3,30.3 M120.9,30.1h5v-7.9h8.3v7.9h5V9.8h-5v7.8h-8.3V9.8h-5L120.9,30.1z M101.9,22.4
		c0-2.2,1.7-3.9,4-3.9c1.2,0,2.4,0.4,3.2,1.2V25c-0.9,0.8-2,1.3-3.2,1.2C103.7,26.3,101.9,24.6,101.9,22.4 M109.2,30.1h4.6V8.8
		l-4.7,1v5.8c-1.2-0.7-2.5-1-3.9-1c-4.5,0-8,3.4-8,7.8c-0.1,4.3,3.4,7.8,7.7,7.9h0.1c1.5,0,2.9-0.5,4.1-1.3v1.1H109.2z M88,18.3
		c1.5,0,2.7,1,3.2,2.4h-6.4C85.3,19.2,86.4,18.3,88,18.3 M80.1,22.4c0,4.5,3.6,7.9,8.3,7.9c2.6,0,4.5-0.7,6.4-2.3l-3.1-2.8
		c-0.7,0.8-1.8,1.2-3.1,1.2c-1.6,0-3.1-0.9-3.8-2.4h10.9v-1.2c0-4.9-3.3-8.4-7.7-8.4c-4.3-0.1-7.9,3.4-8,7.7
		C80.1,22.3,80.1,22.4,80.1,22.4 M72,14.1c1.7,0,2.6,1,2.6,2.3c0,1.2-0.9,2.3-2.6,2.3h-4.9v-4.6C67.1,14.1,72,14.1,72,14.1z
		 M62.1,30.1h5v-7.4h3.8l3.8,7.4h5.6L75.8,22c2.3-0.9,3.8-3.2,3.8-5.7c0-3.6-2.9-6.5-7.2-6.5H62.1V30.1z"/>
</g>
</svg>
