<?xml version="1.0" encoding="utf-8"?>
<!-- Generator: Adobe Illustrator 24.0.2, SVG Export Plug-In . SVG Version: 6.00 Build 0)  -->
<svg version="1.1" id="Logos" xmlns="http://www.w3.org/2000/svg" xmlns:xlink="http://www.w3.org/1999/xlink" x="0px" y="0px"
	 viewBox="0 0 320 90" style="enable-background:new 0 0 320 90;" xml:space="preserve">
<style type="text/css">
	.st0{fill:#EE0000;}
</style>
<title>Logo-Red_Hat-OpenShift-A-Standard-RGB</title>
<g>
	<path d="M67.8,56.7c-5.5,0-9.8-4.3-9.8-9.7s4.3-9.8,9.8-9.8s9.9,4.3,9.9,9.8S73.3,56.7,67.8,56.7z M67.8,39.9
		c-3.9,0-6.9,3.1-6.9,7.1s3,7.1,6.9,7.1s7-3.1,7-7.1S71.8,39.9,67.8,39.9z"/>
	<path d="M80.4,42.7H83V44c1.2-1,2.7-1.6,4.2-1.5c3.9,0,6.9,3.1,6.9,7.1s-3.1,7.1-7,7.1c-1.5,0-2.9-0.5-4.1-1.3V62h-2.7L80.4,42.7z
		 M83.1,46.5v6.2c0.9,1,2.3,1.6,3.8,1.6c2.6,0,4.6-2,4.6-4.7c0-2.7-2-4.7-4.6-4.7C85.3,44.8,84,45.4,83.1,46.5z"/>
	<path d="M103.4,56.7c-4,0-7.2-3.1-7.2-7.1c0-4,3-7.1,6.9-7.1c3.8,0,6.6,3.1,6.6,7.2v0.8H98.9c0.3,2.3,2.3,4,4.6,3.9
		c1.3,0,2.5-0.4,3.5-1.2l1.7,1.7C107.2,56.1,105.3,56.7,103.4,56.7z M98.9,48.4h8.1c-0.4-2.1-2-3.7-4-3.7
		C100.9,44.8,99.3,46.2,98.9,48.4z"/>
	<path d="M112.3,42.7h2.7v1.4c1.1-1.1,2.6-1.7,4.1-1.7c3.2,0,5.4,2.2,5.4,5.4v8.6h-2.7v-8.2c0-2.2-1.3-3.5-3.4-3.5
		c-1.4-0.1-2.7,0.6-3.4,1.8v9.9h-2.7V42.7z"/>
	<path d="M127.9,51.3c2,2,4.2,3,6.5,3c2.7,0,4.6-1.3,4.6-3.2c0-1.7-1.1-2.5-3.8-3l-3.2-0.5c-3.5-0.6-5.2-2.2-5.2-4.9
		c0-3.3,2.8-5.4,7-5.4c2.8,0,5.4,0.9,7.6,2.6l-1.6,2.2c-2-1.6-4.1-2.3-6.2-2.3c-2.5,0-4.1,1.1-4.1,2.8c0,1.5,0.9,2.3,3.4,2.7l3,0.5
		c4,0.6,5.8,2.3,5.8,5.2c0,3.5-3,5.8-7.5,5.8c-3,0-6-1.2-8.1-3.4L127.9,51.3z"/>
	<path d="M144.1,37.5l2.7-0.6v7.1c1.1-1.1,2.6-1.7,4.1-1.7c3.2,0,5.4,2.2,5.4,5.4v8.6h-2.7v-8.2c0-2.2-1.3-3.5-3.4-3.5
		c-1.4-0.1-2.6,0.6-3.4,1.8v9.9h-2.7V37.5z"/>
	<path d="M159.1,38.8c0-0.9,0.7-1.7,1.6-1.7l0,0c0.9,0,1.6,0.8,1.6,1.7c0,0.9-0.7,1.6-1.6,1.6C159.8,40.5,159.1,39.8,159.1,38.8
		L159.1,38.8z M162.1,56.4h-2.7V42.7h2.7V56.4z"/>
	<path d="M167.3,42.7v-2.1c0-2.9,1.6-4.4,4.7-4.4c0.6,0,1.3,0.1,1.9,0.2v2.4c-0.5-0.2-1.1-0.3-1.7-0.2c-1.5,0-2.2,0.7-2.2,2.1v2h3.9
		V45h-3.9v11.5h-2.7V45h-3.2v-2.3L167.3,42.7L167.3,42.7z"/>
	<path d="M178.1,45h-2.9v-2.3h2.9v-3.5l2.7-0.6v4.2h4V45h-4v7.4c0,1.4,0.6,1.9,2,1.9c0.7,0,1.3-0.1,2-0.3v2.3
		c-0.8,0.3-1.7,0.4-2.6,0.4c-2.7,0-4.1-1.3-4.1-3.6L178.1,45z"/>
	<path class="st0" d="M33,21.5c3.2,0,7.9-0.7,7.9-4.5c0-0.3,0-0.6-0.1-0.9l-1.9-8.4c-0.4-1.8-0.8-2.7-4.1-4.3
		c-2.5-1.3-8-3.4-9.7-3.4c-1.5,0-2,1.9-3.7,1.9c-1.7,0-3-1.5-4.6-1.5c-1.6,0-2.6,1.1-3.3,3.2c0,0-2.2,6.1-2.5,7.1
		c-0.1,0.2-0.1,0.3-0.1,0.5C10.9,13.7,20.3,21.5,33,21.5 M41.4,18.6c0.4,2.1,0.4,2.4,0.4,2.6c0,3.6-4.1,5.7-9.4,5.7
		C20.2,26.9,9.6,19.7,9.6,15c0-0.6,0.1-1.3,0.4-1.9c-4.4,0.2-10,1-10,6c0,8.2,19.4,18.2,34.7,18.2c11.8,0,14.7-5.3,14.7-9.5
		C49.4,24.5,46.5,20.8,41.4,18.6"/>
	<path d="M41.4,18.6c0.4,2.1,0.4,2.4,0.4,2.6c0,3.6-4.1,5.7-9.4,5.7C20.2,26.9,9.6,19.7,9.6,15c0-0.6,0.1-1.3,0.4-1.9l1-2.4
		c-0.1,0.2-0.1,0.3-0.1,0.5c0,2.4,9.4,10.2,22,10.2c3.2,0,7.9-0.7,7.9-4.5c0-0.3,0-0.6-0.1-0.9L41.4,18.6z"/>
	<path d="M150.3,23.9c0,3.1,1.9,4.6,5.2,4.6c1,0,2.1-0.2,3.1-0.4v-3.6c-0.6,0.2-1.3,0.3-2,0.3c-1.4,0-1.9-0.4-1.9-1.7v-5.5h4v-3.7
		h-4V9.2l-4.4,1v3.7h-2.9v3.7h2.9V23.9z M136.5,24c0-1,1-1.4,2.4-1.4c0.9,0,1.8,0.1,2.6,0.3v1.9c-0.8,0.5-1.8,0.7-2.8,0.7
		C137.4,25.5,136.6,24.9,136.5,24 M137.9,28.6c1.6,0,2.8-0.3,4-1.1v0.9h4.4v-9.3c0-3.5-2.4-5.4-6.3-5.4c-2.2,0-4.4,0.5-6.7,1.6
		l1.6,3.2c1.7-0.7,3.1-1.1,4.4-1.1c1.8,0,2.8,0.7,2.8,2.2v0.7c-1.1-0.3-2.2-0.4-3.3-0.4c-3.7,0-5.9,1.6-5.9,4.3
		C132.7,26.7,134.7,28.6,137.9,28.6 M113.9,28.4h4.7v-7.5h7.9v7.5h4.7V9.2h-4.7v7.3h-7.9V9.2h-4.7V28.4z M96,21.1
		c0-2.1,1.6-3.7,3.8-3.7c1.1,0,2.2,0.4,3.1,1.1v5c-0.8,0.8-1.9,1.2-3.1,1.1C97.7,24.8,96,23.2,96,21.1 M102.9,28.3h4.4V8.3l-4.4,1
		v5.4c-1.1-0.6-2.4-1-3.7-1c-4.2,0-7.5,3.2-7.5,7.4c-0.1,4,3.2,7.4,7.2,7.4c0.1,0,0.1,0,0.1,0c1.4,0,2.8-0.4,3.9-1.2L102.9,28.3
		L102.9,28.3z M82.9,17.3c1.4,0,2.6,0.9,3,2.3h-6C80.4,18.1,81.5,17.3,82.9,17.3 M75.5,21.1c0,4.2,3.4,7.5,7.9,7.5
		c2.4,0,4.2-0.6,6-2.2l-2.9-2.6c-0.7,0.7-1.7,1.1-2.9,1.1c-1.5,0.1-3-0.9-3.6-2.3h10.3v-1.1c0-4.6-3.1-7.9-7.3-7.9
		c-4.1-0.1-7.5,3.2-7.5,7.3C75.5,21,75.5,21.1,75.5,21.1 M67.9,13.3c1.6,0,2.4,1,2.4,2.2c0,1.2-0.9,2.2-2.4,2.2h-4.6v-4.3H67.9z
		 M58.5,28.3h4.7v-7h3.6l3.6,7h5.2l-4.2-7.7c2.2-0.9,3.6-3,3.6-5.4c0-3.4-2.7-6.1-6.7-6.1h-9.8L58.5,28.3z"/>
</g>
</svg>
