<?xml version="1.0" encoding="utf-8"?>
<!-- Generator: Adobe Illustrator 24.0.2, SVG Export Plug-In . SVG Version: 6.00 Build 0)  -->
<svg version="1.1" id="fee93370-eb05-42d0-9a05-6923c44f7709"
	 xmlns="http://www.w3.org/2000/svg" xmlns:xlink="http://www.w3.org/1999/xlink" x="0px" y="0px" viewBox="0 0 320 90"
	 style="enable-background:new 0 0 320 90;" xml:space="preserve">
<style type="text/css">
	.st0{fill:#EE0000;}
</style>
<g>
	<g>
		<path d="M67.9,56.8c-5.5,0-9.8-4.3-9.8-9.7s4.3-9.8,9.8-9.8s9.9,4.3,9.9,9.8S73.4,56.8,67.9,56.8z M67.9,39.9
			c-3.9,0-6.9,3.1-6.9,7.1s3,7.1,6.9,7.1s7-3.1,7-7.1S71.8,39.9,67.9,39.9z"/>
		<path d="M80.4,42.7h2.7v1.3c1.2-1,2.7-1.6,4.2-1.5c3.9,0,6.9,3.1,6.9,7.1s-3.1,7.1-7,7.1c-1.5,0-2.9-0.5-4.1-1.3v6.7h-2.7
			L80.4,42.7z M83.1,46.5v6.2c0.9,1,2.3,1.6,3.8,1.6c2.6,0,4.6-2,4.6-4.7c0-2.7-2-4.8-4.6-4.8C85.4,44.9,84,45.5,83.1,46.5
			L83.1,46.5z"/>
		<path d="M103.4,56.7c-4,0-7.2-3.1-7.2-7.1c0-4,3-7.1,6.9-7.1c3.8,0,6.6,3.1,6.6,7.2v0.8H98.9c0.3,2.3,2.3,4,4.6,3.9
			c1.3,0,2.5-0.4,3.5-1.2l1.7,1.7C107.2,56.1,105.4,56.7,103.4,56.7z M98.9,48.4h8.2c-0.4-2.1-2-3.7-4-3.7
			C101,44.8,99.3,46.3,98.9,48.4z"/>
		<path d="M112.3,42.7h2.7v1.4c1.1-1.1,2.6-1.7,4.1-1.6c3.2,0,5.4,2.2,5.4,5.4v8.6h-2.7v-8.2c0-2.2-1.3-3.5-3.4-3.5
			c-1.4-0.1-2.7,0.6-3.4,1.8v9.9h-2.7V42.7z"/>
		<path d="M128,51.3c2.1,2,4.2,3,6.5,3c2.7,0,4.6-1.3,4.6-3.2c0-1.7-1.1-2.5-3.8-3l-3.2-0.5c-3.5-0.6-5.2-2.2-5.2-4.9
			c0-3.3,2.8-5.4,7-5.4c2.8,0,5.4,0.9,7.6,2.6l-1.6,2.2c-2.1-1.6-4.1-2.3-6.2-2.3c-2.5,0-4.1,1.1-4.1,2.8c0,1.5,0.9,2.3,3.4,2.7
			l3,0.5c4,0.6,5.8,2.3,5.8,5.2c0,3.5-3,5.8-7.5,5.8c-3,0-6-1.2-8.1-3.4L128,51.3z"/>
		<path d="M144.2,37.6l2.7-0.6v7.1c1.1-1.1,2.6-1.7,4.1-1.6c3.2,0,5.4,2.2,5.4,5.4v8.6h-2.7v-8.2c0-2.2-1.3-3.5-3.4-3.5
			c-1.4-0.1-2.6,0.6-3.4,1.8v9.9h-2.7L144.2,37.6L144.2,37.6z"/>
		<path d="M159.2,38.8c0-0.9,0.7-1.7,1.6-1.7l0,0c0.9,0,1.7,0.7,1.7,1.6c0,0.9-0.7,1.7-1.6,1.7c-0.1,0-0.1,0-0.1,0
			C159.9,40.5,159.2,39.8,159.2,38.8L159.2,38.8z M162.2,56.5h-2.7V42.7h2.7V56.5z"/>
		<path d="M167.4,42.7v-2.1c0-2.9,1.6-4.4,4.7-4.4c0.6,0,1.3,0.1,1.9,0.2v2.4c-0.5-0.2-1.1-0.3-1.7-0.2c-1.5,0-2.2,0.7-2.2,2.1v2
			h3.9V45h-3.9v11.5h-2.7V45h-3.2v-2.3L167.4,42.7L167.4,42.7z"/>
		<path d="M178.1,45h-2.9v-2.3h2.9v-3.5l2.7-0.6v4.2h4V45h-4v7.5c0,1.4,0.6,1.9,2,1.9c0.7,0,1.3-0.1,2-0.3v2.3
			c-0.8,0.3-1.7,0.4-2.6,0.4c-2.7,0-4.1-1.3-4.1-3.6L178.1,45z"/>
		<path d="M64.9,65.6h2.5l7.8,18.9h-2.3l-2.4-5.9h-8.9l-2.4,5.9h-2.2L64.9,65.6z M69.8,76.8l-3.7-9.2l-3.7,9.2H69.8z"/>
		<path d="M76.9,71h2v1.5c1.2-1.1,2.8-1.7,4.4-1.7c3.8,0,6.8,3.1,6.8,7c0,3.9-3,7-6.8,7c-1.6,0-3.1-0.5-4.3-1.6V90h-2L76.9,71z
			 M78.9,74.4v6.7c1,1.2,2.6,1.9,4.2,1.9c2.9,0,5-2.2,5-5.2s-2.2-5.2-5-5.2C81.5,72.5,80,73.2,78.9,74.4L78.9,74.4z"/>
		<path d="M92.9,71h2v1.5c1.2-1.1,2.8-1.7,4.4-1.7c3.8,0,6.8,3.1,6.8,7c0,3.9-3,7-6.8,7c-1.6,0-3.1-0.5-4.3-1.6V90h-2L92.9,71z
			 M94.9,74.4v6.7c1,1.2,2.6,1.9,4.2,1.9c2.9,0,5-2.2,5-5.2s-2.2-5.2-5-5.2C97.4,72.5,95.9,73.2,94.9,74.4L94.9,74.4z"/>
		<path d="M110.8,84.5h-2V65.6l2-0.5V84.5z"/>
		<path d="M113.9,67c0-0.8,0.6-1.3,1.3-1.3c0.7,0,1.3,0.6,1.3,1.3v0c0,0.8-0.6,1.3-1.3,1.3C114.5,68.4,113.9,67.8,113.9,67z
			 M116.2,84.5h-2V71h2L116.2,84.5z"/>
		<path d="M129.8,81.3l1.2,1.3c-1.4,1.4-3.3,2.2-5.2,2.2c-3.9,0-6.9-3.1-6.9-7s3-7,6.9-7c2,0,3.9,0.8,5.3,2.1l-1.3,1.5
			c-1-1.1-2.5-1.8-4-1.8c-2.8,0-4.9,2.3-4.9,5.2c0,2.9,2.2,5.2,5,5.2C127.4,82.9,128.7,82.4,129.8,81.3z"/>
		<path d="M132.7,80.7c0-2.5,2.1-4.1,5.4-4.1c1.4,0,2.7,0.3,4,0.9v-1.8c0-2.2-1.2-3.3-3.6-3.3c-1.3,0-2.6,0.4-4.2,1.2l-0.8-1.5
			c1.9-0.9,3.5-1.3,5.2-1.3c3.4,0,5.3,1.7,5.3,4.7v9.1h-1.9v-1.3c-1.2,1-2.8,1.6-4.4,1.6C134.8,84.8,132.7,83.1,132.7,80.7z
			 M138.1,83.2c1.6,0,2.9-0.5,4-1.6v-2.5c-1.1-0.8-2.3-1.1-3.9-1.1c-2.2,0-3.5,1-3.5,2.6C134.6,82.1,136,83.2,138.1,83.2z"/>
		<path d="M148.5,72.7h-2.9V71h2.9v-3.4l2-0.5V71h4.1v1.7h-4.1V81c0,1.5,0.6,2,2.1,2c0.7,0,1.3-0.1,2-0.4v1.8
			c-0.8,0.2-1.6,0.4-2.4,0.4c-2.3,0-3.6-1.1-3.6-3.3L148.5,72.7z"/>
		<path d="M156.4,67c0-0.8,0.6-1.3,1.3-1.3c0.7,0,1.3,0.6,1.3,1.3v0c0,0.8-0.6,1.3-1.3,1.3C156.9,68.4,156.4,67.8,156.4,67z
			 M158.7,84.5h-2V71h2V84.5z"/>
		<path d="M168.4,70.7c3.8,0,6.9,3.1,6.9,7s-3.1,7-6.9,7s-6.9-3.1-6.9-7S164.5,70.7,168.4,70.7z M173.3,77.7c0-2.9-2.2-5.2-4.9-5.2
			c-2.8,0-4.9,2.3-4.9,5.2s2.2,5.3,4.9,5.3S173.3,80.7,173.3,77.7L173.3,77.7z"/>
		<path d="M178.1,71h2v1.6c1.1-1.2,2.5-1.9,4.3-1.9c3.1,0,5.2,2.1,5.2,5.2v8.6h-2v-8.2c0-2.4-1.5-3.9-3.8-3.9c-1.5,0-3,0.8-3.7,2.1
			v10h-2V71z"/>
		<path d="M198.6,79.8c1.9,2.1,4.2,3.1,6.6,3.1c3,0,5.1-1.5,5.1-3.7c0-1.9-1.2-2.9-4.3-3.4l-2.7-0.4c-3.6-0.6-5.3-2.1-5.3-4.8
			c0-3.1,2.7-5.3,6.6-5.3c2.7,0,5.3,0.9,7.5,2.5l-1.2,1.6c-2.1-1.6-4.2-2.3-6.3-2.3c-2.7,0-4.5,1.3-4.5,3.3c0,1.8,1.1,2.6,3.8,3.1
			l2.7,0.4c4.1,0.7,5.9,2.2,5.9,5.2c0,3.3-3,5.6-7.2,5.6c-3,0-5.9-1.3-7.9-3.5L198.6,79.8z"/>
		<path d="M221.5,84.8c-3.8,0.1-6.9-3-7-6.8c0-0.1,0-0.1,0-0.2c0-3.9,2.9-7,6.7-7c3.6,0,6.4,3.1,6.4,7v0.6h-11.1
			c0.3,2.7,2.4,4.6,5.1,4.6c1.4,0,2.8-0.5,3.7-1.2l1.2,1.3C225.1,84.2,223.3,84.8,221.5,84.8z M216.6,76.8h9
			c-0.3-2.4-2.2-4.2-4.5-4.2C218.8,72.5,216.9,74.3,216.6,76.8L216.6,76.8z"/>
		<path d="M230.4,71h2v1.9c0.8-1.4,2.2-2.2,3.8-2.2c0.4,0,0.9,0.1,1.3,0.2v1.8c-0.4-0.2-0.9-0.2-1.4-0.2c-1.7,0-2.9,1-3.6,2.8v9.3
			h-2L230.4,71z"/>
		<path d="M238.7,71h2.2l4.6,10.9l4.6-10.9h2.1l-5.8,13.5h-1.9L238.7,71z"/>
		<path d="M253.7,67c0-0.8,0.6-1.3,1.3-1.3c0.7,0,1.3,0.6,1.3,1.3v0c0,0.8-0.6,1.3-1.3,1.3C254.3,68.4,253.7,67.8,253.7,67z
			 M256.1,84.5h-2V71h2V84.5z"/>
		<path d="M269.8,81.3l1.2,1.3c-1.4,1.4-3.3,2.2-5.2,2.2c-3.9,0-6.9-3.1-6.9-7s3-7,6.9-7c2,0,3.9,0.8,5.3,2.1l-1.3,1.5
			c-1-1.1-2.5-1.7-4-1.8c-2.8,0-4.9,2.3-4.9,5.2c0,2.9,2.2,5.2,5,5.2C267.3,82.9,268.6,82.4,269.8,81.3z"/>
		<path d="M279.1,84.8c-3.8,0.1-6.9-3-7-6.8c0-0.1,0-0.1,0-0.2c0-3.9,2.9-7,6.7-7c3.6,0,6.4,3.1,6.4,7v0.6h-11.1
			c0.3,2.7,2.4,4.6,5.1,4.6c1.4,0,2.8-0.5,3.7-1.2l1.2,1.3C282.7,84.2,281,84.8,279.1,84.8z M274.2,76.8h9c-0.3-2.4-2.2-4.2-4.5-4.2
			C276.5,72.5,274.6,74.3,274.2,76.8L274.2,76.8z"/>
		<path d="M288,81.4c1.2,1.1,2.8,1.8,4.4,1.8c2.2,0,3.7-1,3.7-2.4c0-1.2-0.8-1.8-2.5-2.1l-2.3-0.3c-2.7-0.4-4-1.6-4-3.6
			c0-2.3,2.1-3.9,5.1-3.9c1.9,0,3.8,0.6,5.3,1.8l-1.1,1.3c-1.5-1-2.9-1.5-4.4-1.5c-1.9,0-3.1,0.9-3.1,2.2c0,1.2,0.7,1.7,2.5,2
			l2.3,0.3c2.7,0.4,4,1.6,4,3.7c0,2.3-2.4,4.1-5.5,4.1c-2.2,0-4.3-0.8-5.7-2.1L288,81.4z"/>
	</g>
	<g>
		<g>
			<path class="st0" d="M33,21.5c3.2,0,7.9-0.7,7.9-4.5c0-0.3,0-0.6-0.1-0.9l-1.9-8.4c-0.4-1.8-0.8-2.7-4.1-4.3
				c-2.5-1.3-8-3.4-9.7-3.4c-1.5,0-2,1.9-3.7,1.9c-1.7,0-3-1.5-4.6-1.5c-1.6,0-2.6,1.1-3.3,3.2c0,0-2.2,6.2-2.5,7.1
				c-0.1,0.2-0.1,0.3-0.1,0.5C10.9,13.7,20.3,21.5,33,21.5 M41.4,18.6c0.4,2.1,0.4,2.4,0.4,2.6c0,3.6-4.1,5.7-9.4,5.7
				c-12.1,0-22.8-7.1-22.8-11.8c0-0.6,0.1-1.3,0.4-1.9c-4.4,0.2-10,1-10,6c0,8.2,19.4,18.2,34.7,18.2c11.8,0,14.7-5.3,14.7-9.5
				C49.4,24.6,46.5,20.8,41.4,18.6"/>
			<path d="M41.4,18.6c0.4,2.1,0.4,2.4,0.4,2.6c0,3.6-4.1,5.7-9.4,5.7c-12.1,0-22.8-7.1-22.8-11.8c0-0.6,0.1-1.3,0.4-1.9l1-2.4
				c-0.1,0.2-0.1,0.3-0.1,0.5c0,2.4,9.4,10.3,22.1,10.3c3.2,0,7.9-0.7,7.9-4.5c0-0.3,0-0.6-0.1-0.9L41.4,18.6z"/>
		</g>
		<path d="M150.4,24c0,3.1,1.9,4.6,5.2,4.6c1,0,2.1-0.2,3.1-0.4v-3.6c-0.6,0.2-1.3,0.3-2,0.3c-1.4,0-1.9-0.4-1.9-1.7v-5.5h4v-3.7h-4
			V9.2l-4.4,1v3.7h-2.9v3.7h2.9L150.4,24z M136.6,24c0-1,1-1.4,2.4-1.4c0.9,0,1.8,0.1,2.6,0.3v1.9c-0.8,0.5-1.8,0.7-2.8,0.7
			C137.5,25.5,136.6,24.9,136.6,24 M137.9,28.6c1.6,0,2.8-0.3,4-1.1v0.9h4.4v-9.3c0-3.5-2.4-5.5-6.3-5.5c-2.2,0-4.4,0.5-6.7,1.6
			l1.6,3.2c1.7-0.7,3.1-1.1,4.4-1.1c1.8,0,2.8,0.7,2.8,2.2v0.7c-1.1-0.3-2.2-0.4-3.3-0.4c-3.7,0-5.9,1.6-5.9,4.3
			C132.7,26.7,134.7,28.6,137.9,28.6 M114,28.4h4.7v-7.5h7.9v7.5h4.7V9.2h-4.7v7.3h-7.9V9.2H114V28.4z M96.1,21.1
			c0-2.1,1.6-3.7,3.8-3.7c1.1,0,2.2,0.4,3.1,1.1v5c-0.8,0.8-1.9,1.2-3.1,1.1C97.7,24.8,96.1,23.2,96.1,21.1 M103,28.3h4.4V8.3
			l-4.4,1v5.4c-1.1-0.6-2.4-1-3.7-1c-4.2,0-7.5,3.2-7.5,7.4c-0.1,4,3.2,7.4,7.2,7.4c0.1,0,0.1,0,0.1,0c1.4,0,2.8-0.4,3.9-1.2
			L103,28.3L103,28.3z M82.9,17.3c1.4,0,2.6,0.9,3,2.3h-6C80.4,18.1,81.5,17.3,82.9,17.3 M75.5,21.2c0,4.2,3.4,7.5,7.9,7.5
			c2.4,0,4.2-0.6,6-2.2l-2.9-2.6c-0.7,0.7-1.7,1.1-2.9,1.1c-1.5,0.1-3-0.9-3.6-2.3h10.3v-1.1c0-4.6-3.1-7.9-7.3-7.9
			c-4.1-0.1-7.5,3.2-7.5,7.3C75.5,21,75.5,21.1,75.5,21.2 M67.9,13.3c1.6,0,2.4,1,2.4,2.2s-0.9,2.2-2.4,2.2h-4.6v-4.3H67.9z
			 M58.5,28.3h4.7v-7h3.6l3.6,7h5.2l-4.2-7.7c2.2-0.9,3.6-3,3.6-5.4c0-3.4-2.7-6.1-6.7-6.1h-9.8L58.5,28.3z"/>
	</g>
</g>
</svg>
