<?xml version="1.0" encoding="utf-8"?>
<!-- Generator: Adobe Illustrator 24.0.2, SVG Export Plug-In . SVG Version: 6.00 Build 0)  -->
<svg version="1.1" id="Logos" xmlns="http://www.w3.org/2000/svg" xmlns:xlink="http://www.w3.org/1999/xlink" x="0px" y="0px"
	 viewBox="0 0 316 90" style="enable-background:new 0 0 316 90;" xml:space="preserve">
<style type="text/css">
	.st0{fill:#EE0000;}
</style>
<title>Logo-Red_Hat-Ansible_Automation_Platform-A-Standard-RGB</title>
<g>
	<path d="M64.4,37.6h3.3l7.7,19h-3.1l-2.1-5.7h-8.5l-2.2,5.6h-2.9L64.4,37.6z M69.4,48.7l-3.3-8.3l-3.3,8.3H69.4z"/>
	<path d="M77.2,42.7h2.6v1.4c1.1-1.1,2.6-1.7,4.2-1.6c3.2,0,5.4,2.2,5.4,5.4v8.7h-2.7v-8.2c0-2.2-1.3-3.5-3.4-3.5
		c-1.4-0.1-2.6,0.7-3.4,1.8v9.9h-2.7V42.7L77.2,42.7z"/>
	<path d="M92.7,52.9c1.4,1.1,2.9,1.7,4.5,1.7c2,0,3.3-0.8,3.3-2.1c0-0.9-0.7-1.5-2.2-1.8l-2.5-0.4c-2.7-0.4-4.2-1.7-4.2-3.8
		c0-2.5,2.2-4.2,5.4-4.2c2,0,4,0.6,5.6,1.7l-1.4,1.8c-1.5-1-2.9-1.4-4.3-1.4c-1.6,0-2.7,0.8-2.7,1.9c0,1,0.7,1.5,2.3,1.7l2.5,0.4
		c2.7,0.4,4.2,1.7,4.2,3.9c0,2.5-2.5,4.3-5.8,4.3c-2.4,0-4.5-0.7-6-2L92.7,52.9z"/>
	<path d="M104.7,38.9c0-0.9,0.8-1.7,1.6-1.7l0,0c0.9,0,1.7,0.7,1.7,1.6c0,0.9-0.7,1.7-1.6,1.7c-0.1,0-0.1,0-0.1,0
		C105.5,40.6,104.7,39.8,104.7,38.9L104.7,38.9z M107.7,56.5H105V42.7h2.7V56.5z"/>
	<path d="M117.7,56.8c-1.5,0-2.9-0.5-4.2-1.4v1.1H111V37.6l2.7-0.6v7.1c1.1-0.9,2.6-1.5,4.2-1.5c3.9,0,7,3.1,7,7.1
		S121.7,56.8,117.7,56.8z M113.7,46.6v6.2c0.8,1,2.3,1.6,3.9,1.6c2.6,0,4.6-2,4.6-4.7s-2-4.7-4.6-4.7
		C115.9,44.9,114.5,45.5,113.7,46.6z"/>
	<path d="M130,56.5h-2.7V37.6L130,37V56.5z"/>
	<path d="M139.8,56.8c-4.1,0-7.3-3.1-7.3-7.1s3-7.1,6.9-7.1c3.8,0,6.7,3.1,6.7,7.2v0.8h-10.8c0.4,2.3,2.4,4,4.6,4
		c1.2,0,2.5-0.4,3.5-1.2l1.7,1.7C143.7,56.2,141.8,56.8,139.8,56.8z M135.3,48.5h8.2c-0.4-2.1-2-3.7-4.1-3.7
		C137.4,44.8,135.8,46.3,135.3,48.5z"/>
	<path d="M160.7,37.6h3.3l7.7,19h-3.1l-2.2-5.6h-8.5l-2.2,5.6h-2.9L160.7,37.6z M165.5,48.7l-3.3-8.3l-3.3,8.3H165.5z"/>
	<path d="M175.5,50.9c0,2.2,1.3,3.5,3.4,3.5c1.4,0,2.6-0.7,3.4-1.8v-9.9h2.7v13.8h-2.7v-1.4c-1.1,1.1-2.6,1.7-4.2,1.7
		c-3.2,0-5.4-2.2-5.4-5.4v-8.6h2.7L175.5,50.9L175.5,50.9z"/>
	<path d="M189.9,45H187v-2.3h2.9v-3.5l2.6-0.7v4.2h4.1V45h-4.1v7.5c0,1.4,0.6,1.9,2,1.9c0.7,0,1.3-0.1,2-0.3v2.3
		c-0.8,0.3-1.7,0.4-2.5,0.4c-2.6,0-4.2-1.2-4.2-3.7L189.9,45L189.9,45z"/>
	<path d="M204.8,42.5c4,0,7.2,3.2,7.2,7.2s-3.2,7.2-7.2,7.2s-7.2-3.2-7.2-7.2l0,0c-0.1-3.9,3.1-7.1,7-7.1
		C204.7,42.5,204.8,42.5,204.8,42.5z M209.3,49.6c0-2.6-2-4.7-4.5-4.7s-4.5,2.1-4.5,4.7c0,2.6,2,4.8,4.5,4.8
		C207.3,54.4,209.3,52.3,209.3,49.6z"/>
	<path d="M214.5,42.7h2.7V44c1-1,2.5-1.6,3.9-1.6c1.9,0,3.4,0.8,4.2,2.3c1-1.5,2.8-2.4,4.6-2.3c3,0,5.2,2.2,5.2,5.4v8.7h-2.7v-8.2
		c0-2.2-1.2-3.5-3.2-3.5c-1.3,0-2.5,0.7-3.2,1.9c0.1,0.4,0.1,0.8,0.1,1.2v8.7h-2.6v-8.2c0-2.2-1.2-3.5-3.2-3.5
		c-1.2,0-2.5,0.6-3.1,1.7v10h-2.6L214.5,42.7L214.5,42.7z"/>
	<path d="M237.6,52.6c0-2.6,2.1-4.2,5.6-4.2c1.3,0,2.5,0.3,3.8,0.8v-1.4c0-2-1.1-2.9-3.4-2.9c-1.2,0-2.5,0.4-4.2,1.1l-0.9-2
		c2.1-0.9,3.9-1.4,5.7-1.4c3.6,0,5.7,1.8,5.7,4.9v9.1h-2.6v-1.2c-1.2,0.9-2.7,1.5-4.2,1.4C239.6,56.8,237.6,55.1,237.6,52.6z
		 M243.3,54.8c1.3,0.1,2.6-0.4,3.7-1.3v-2.4c-1.1-0.6-2.4-0.8-3.5-0.8c-2,0-3.2,0.8-3.2,2.3C240.2,53.9,241.4,54.8,243.3,54.8
		L243.3,54.8z"/>
	<path d="M253.9,45H251v-2.3h2.9v-3.5l2.6-0.7v4.2h4.1V45h-4.1v7.5c0,1.4,0.6,1.9,2,1.9c0.7,0,1.3-0.1,2-0.3v2.3
		c-0.8,0.3-1.7,0.4-2.5,0.4c-2.6,0-4.2-1.2-4.2-3.7L253.9,45L253.9,45z"/>
	<path d="M262.3,38.9c0-0.9,0.8-1.7,1.6-1.7l0,0c0.9,0,1.7,0.7,1.7,1.6c0,0.9-0.7,1.7-1.6,1.7c-0.1,0-0.1,0-0.1,0
		C263.1,40.6,262.3,39.8,262.3,38.9L262.3,38.9z M265.4,56.5h-2.7V42.7h2.7V56.5z"/>
	<path d="M275.1,42.5c4,0,7.2,3.2,7.2,7.2s-3.2,7.2-7.2,7.2s-7.2-3.2-7.2-7.2l0,0c-0.1-3.9,3.1-7.1,7-7.1
		C275,42.5,275,42.5,275.1,42.5z M279.5,49.6c0-2.6-2-4.7-4.5-4.7s-4.5,2.1-4.5,4.7c0,2.6,2,4.8,4.5,4.8
		C277.5,54.4,279.5,52.3,279.5,49.6z"/>
	<path d="M284.8,42.7h2.7v1.4c1.1-1.1,2.6-1.7,4.2-1.6c3.2,0,5.4,2.2,5.4,5.4v8.7h-2.7v-8.2c0-2.2-1.3-3.5-3.4-3.5
		c-1.4-0.1-2.6,0.7-3.4,1.8v9.9h-2.7V42.7H284.8z"/>
	<path d="M58.6,65.6h8.8c3.7,0,6.2,2.3,6.2,5.7c0,3.3-2.5,5.7-6.2,5.7h-5.9v7.6h-2.8v-19H58.6z M61.4,68.2v6.4h5.7
		c2.2,0,3.6-1.2,3.6-3.2s-1.4-3.2-3.6-3.2C67.1,68.2,61.4,68.2,61.4,68.2z"/>
	<path d="M78.8,84.6h-2.7v-19l2.7-0.6V84.6z"/>
	<path d="M81.2,80.6c0-2.6,2.1-4.2,5.6-4.2c1.3,0,2.5,0.3,3.8,0.8v-1.4c0-2-1.1-2.9-3.4-2.9c-1.2,0-2.5,0.4-4.2,1.1l-1-2
		c2.1-0.9,3.9-1.4,5.7-1.4c3.6,0,5.7,1.8,5.7,4.9v9.1h-2.6v-1.2c-1.2,0.9-2.7,1.5-4.2,1.4C83.3,84.8,81.2,83.1,81.2,80.6z M87,82.8
		c1.3,0.1,2.6-0.4,3.7-1.3v-2.4c-1.1-0.6-2.4-0.8-3.6-0.8c-2,0-3.2,0.8-3.2,2.3C83.9,81.9,85.1,82.8,87,82.8z"/>
	<path d="M97.6,73.1h-2.9v-2.3h2.9v-3.5l2.6-0.7v4.2h4.1v2.3h-4.1v7.5c0,1.4,0.6,1.9,2,1.9c0.7,0,1.3-0.1,2-0.3v2.3
		c-0.8,0.3-1.7,0.4-2.5,0.4c-2.6,0-4.2-1.2-4.2-3.7L97.6,73.1L97.6,73.1z"/>
	<path d="M108.7,70.8v-2.1c0-2.8,1.7-4.4,4.7-4.4c0.7,0,1.3,0.1,2,0.2v2.4c-0.6-0.2-1.1-0.3-1.7-0.2c-1.5,0-2.2,0.7-2.2,2.2v2h3.9
		v2.3h-4v11.5h-2.7V73.1h-3.2v-2.3C105.5,70.8,108.7,70.8,108.7,70.8z"/>
	<path d="M123.3,70.6c4,0,7.2,3.2,7.2,7.2s-3.3,7.2-7.3,7.2s-7.2-3.2-7.2-7.2l0,0c-0.1-3.9,3.1-7.1,7-7.1
		C123.2,70.6,123.2,70.6,123.3,70.6z M127.7,77.7c0-2.6-2-4.7-4.5-4.7s-4.5,2.1-4.5,4.7s2,4.8,4.5,4.8
		C125.8,82.4,127.7,80.4,127.7,77.7z"/>
	<path d="M133,70.8h2.7v1.8c0.8-1.3,2.3-2.1,3.8-2.1c0.5,0,0.9,0.1,1.4,0.2v2.5c-0.6-0.2-1-0.3-1.6-0.3c-1.6,0-2.8,0.8-3.6,2.5v9.2
		H133V70.8L133,70.8z"/>
	<path d="M143,70.8h2.7v1.3c1-1,2.5-1.6,3.9-1.6c1.9,0,3.4,0.8,4.2,2.3c1-1.5,2.8-2.4,4.6-2.3c3,0,5.2,2.2,5.2,5.4v8.7h-2.7v-8.2
		c0-2.2-1.2-3.5-3.2-3.5c-1.3,0-2.5,0.7-3.2,1.9c0.1,0.4,0.1,0.8,0.1,1.2v8.7H152v-8.3c0-2.2-1.2-3.5-3.2-3.5
		c-1.2,0-2.5,0.6-3.1,1.7v10H143V70.8z"/>
	<path class="st0" d="M32.7,21.6c3.2,0,7.9-0.7,7.9-4.5c0-0.3,0-0.6-0.1-0.8l-1.9-8.4c-0.5-1.9-0.8-2.7-4.1-4.3
		C32,2.2,26.5,0,24.8,0c-1.5,0-2,2-3.8,2c-1.7,0-3-1.4-4.6-1.4s-2.5,1-3.4,3.2c0,0-2.2,6.1-2.5,7.1c-0.1,0.2-0.1,0.4-0.1,0.5
		C10.6,13.7,20,21.6,32.7,21.6 M41.2,18.6c0.5,2.2,0.5,2.4,0.5,2.6c0,3.7-4.1,5.7-9.4,5.7C20,26.9,9.4,19.8,9.4,15.1
		c0-0.7,0.1-1.3,0.4-1.9c-4.3,0.2-10,0.9-10,5.9c0,8.2,19.4,18.3,34.7,18.3c11.8,0,14.7-5.3,14.7-9.5C49.2,24.6,46.2,20.8,41.2,18.6
		"/>
	<path d="M41.1,18.6c0.5,2.2,0.5,2.4,0.5,2.6c0,3.7-4.1,5.7-9.4,5.7C20,26.9,9.4,19.8,9.4,15.1c0-0.7,0.1-1.3,0.4-1.9l0.9-2.4
		c-0.1,0.2-0.1,0.4-0.1,0.5c0,2.5,9.4,10.3,22.1,10.3c3.2,0,7.9-0.7,7.9-4.5c0-0.3,0-0.6-0.1-0.8L41.1,18.6z"/>
	<path d="M150.2,24c0,3.1,1.9,4.6,5.3,4.6c1,0,2.1-0.2,3.1-0.5v-3.6c-0.7,0.2-1.3,0.3-2,0.3c-1.4,0-1.9-0.5-1.9-1.7v-5.5h4.1V14
		h-4.1V9.2l-4.4,0.9v3.7h-2.9v3.7h2.9L150.2,24L150.2,24z M136.4,24.1c0-0.9,0.9-1.4,2.5-1.4c0.8,0,1.8,0.1,2.6,0.4V25
		c-0.8,0.5-1.8,0.7-2.7,0.7C137.3,25.6,136.4,25,136.4,24.1 M137.7,28.7c1.6,0,2.8-0.4,4-1.1v0.8h4.3v-9.2c0-3.5-2.4-5.5-6.3-5.5
		c-2.2,0-4.4,0.6-6.8,1.6l1.6,3.2c1.7-0.7,3.1-1.1,4.3-1.1c1.8,0,2.7,0.7,2.7,2.2v0.7c-1-0.3-2.2-0.4-3.3-0.4
		c-3.7,0-5.9,1.6-5.9,4.3C132.6,26.7,134.5,28.7,137.7,28.7 M113.7,28.4h4.7v-7.5h7.8v7.5h4.7V9.2h-4.7v7.4h-7.8V9.2h-4.7V28.4z
		 M95.9,21.1c0-2.1,1.6-3.7,3.8-3.7c1.1,0,2.2,0.4,3.1,1.1v5c-0.8,0.8-1.9,1.2-3.1,1.1C97.5,24.8,95.9,23.2,95.9,21.1 M102.7,28.4
		h4.3V8.3l-4.4,0.9v5.5c-1.1-0.7-2.4-0.9-3.7-0.9c-4.2,0-7.5,3.2-7.5,7.5c-0.1,4.1,3.2,7.4,7.3,7.5c0.1,0,0.1,0,0.1,0
		c1.4,0,2.7-0.5,3.9-1.2L102.7,28.4L102.7,28.4z M82.7,17.3c1.4,0,2.5,0.9,3,2.3h-6C80.1,18.1,81.2,17.3,82.7,17.3 M75.2,21.2
		c0,4.2,3.4,7.5,7.8,7.5c2.5,0,4.2-0.7,6-2.2l-2.9-2.6c-0.7,0.7-1.7,1.1-2.9,1.1c-1.5,0.1-2.9-0.8-3.6-2.3h10.3v-1.1
		c0-4.6-3.1-7.9-7.3-7.9c-4.2-0.1-7.5,3.2-7.5,7.3C75.2,21,75.2,21.1,75.2,21.2 M67.6,13.3c1.6,0,2.5,0.9,2.5,2.2
		c0,1.1-0.8,2.2-2.5,2.2H63v-4.3C62.9,13.3,67.6,13.3,67.6,13.3z M58.2,28.4h4.7v-7h3.6l3.6,7h5.3l-4.2-7.6c2.2-0.8,3.6-3,3.6-5.4
		c0-3.4-2.7-6.1-6.8-6.1h-9.7L58.2,28.4L58.2,28.4z"/>
</g>
</svg>
