<?xml version="1.0" encoding="utf-8"?>
<!-- Generator: Adobe Illustrator 23.0.1, SVG Export Plug-In . SVG Version: 6.00 Build 0)  -->
<svg version="1.1" id="logo" xmlns="http://www.w3.org/2000/svg" xmlns:xlink="http://www.w3.org/1999/xlink" x="0px" y="0px"
	 viewBox="0 0 300 300" style="enable-background:new 0 0 300 300;" xml:space="preserve">
<style type="text/css">
	.st0{fill:#FF5850;}
	.st1{fill:#FFFFFF;}
</style>
<title>Ansible-Mark-RGB</title>
<path class="st0" d="M296,150c0,80.6-65.4,146-146,146c-80.6,0-146-65.3-146-146S69.4,4,150,4c0,0,0,0,0,0C230.6,4,296,69.3,296,150
	C296,149.9,296,149.9,296,150"/>
<path class="st1" d="M152.5,95.2l37.8,93.2l-57.1-44.9L152.5,95.2z M219.6,209.9L161.5,70.1c-1.4-3.8-5-6.3-9-6.2
	c-4.1-0.1-7.8,2.4-9.2,6.2L79.4,223.5h21.8l25.2-63.2l75.4,60.9c3,2.5,5.2,3.6,8.1,3.6c5.8,0.1,10.5-4.4,10.7-10.2
	c0-0.1,0-0.2,0-0.3C220.5,212.8,220.1,211.3,219.6,209.9"/>
</svg>
