<svg version="1.1" id="Layer_1" xmlns="http://www.w3.org/2000/svg" xmlns:xlink="http://www.w3.org/1999/xlink" x="0px" y="0px"
	 viewBox="0 0 67.2 67.5" style="enable-background:new 0 0 67.2 67.5;" xml:space="preserve">
<style type="text/css">
	.st0{fill:#E22434;}
</style>
<path class="st0" d="M33.7,3c17,0,30.8,13.8,30.8,30.8S50.7,64.5,33.7,64.5S3,50.7,3,33.7S16.8,3,33.7,3 M33.7,1
	C15.6,1,1,15.6,1,33.7s14.7,32.8,32.8,32.8s32.8-14.7,32.8-32.8S51.8,1,33.7,1L33.7,1z"/>
<path class="st0" d="M49.4,46.7L36.3,15.3c-0.3-0.8-1.1-1.4-2-1.4c-0.9,0-1.8,0.6-2.1,1.4L17.9,49.7h4.9l5.6-14.2l16.9,13.7
	c0.5,0.5,1.1,0.8,1.8,0.8c1.3,0,2.4-1,2.4-2.3v-0.1C49.6,47.3,49.5,47,49.4,46.7z M34.3,21l8.5,20.9L30,31.8L34.3,21z"/>
</svg>
