<?xml version="1.0" encoding="utf-8"?>
<!-- Generator: Adobe Illustrator 22.1.0, SVG Export Plug-In . SVG Version: 6.00 Build 0)  -->
<svg version="1.1" id="Layer_1" xmlns="http://www.w3.org/2000/svg" xmlns:xlink="http://www.w3.org/1999/xlink" x="0px" y="0px"
	 viewBox="0 0 67.15123 67.521538" style="enable-background:new 0 0 67.15123 67.521538;" xml:space="preserve">
<style type="text/css">
	.st0{fill:#E22434;}
</style>
<path class="st0" d="M33.766663,5.828045c15.405411,0,27.938618,12.533213,27.938618,27.938622
	S49.172073,61.705284,33.766663,61.705284S5.828044,49.172077,5.828044,33.766666S18.36125,5.828045,33.766663,5.828045
	 M33.766663,4C17.326986,4,4,17.326986,4,33.766666s13.326986,29.766663,29.766663,29.766663
	s29.766663-13.326981,29.766663-29.766663S50.206348,4,33.766663,4L33.766663,4z"/>
<path class="st0" d="M47.974197,45.55389L36.092674,17.013086c-0.282894-0.754381-1.005844-1.288738-1.823093-1.257303
	c-0.848679-0.031435-1.603062,0.502922-1.885956,1.257303L19.401962,48.288521h4.463428l5.123514-12.887363l15.370539,12.415874
	c0.440056,0.440056,1.037277,0.691521,1.634495,0.722946c1.163006,0.031433,2.137417-0.880108,2.168846-2.074554v-0.06287
	C48.131359,46.119675,48.068497,45.836781,47.974197,45.55389z M34.301018,22.168039l7.700985,19.016722l-11.63006-9.178322
	L34.301018,22.168039z"/>
</svg>
