<?xml version="1.0" encoding="utf-8"?>
<!-- Generator: Adobe Illustrator 22.1.0, SVG Export Plug-In . SVG Version: 6.00 Build 0)  -->
<svg version="1.1" id="Layer_1" xmlns="http://www.w3.org/2000/svg" xmlns:xlink="http://www.w3.org/1999/xlink" x="0px" y="0px"
	 viewBox="0 0 67.15123 67.521538" style="enable-background:new 0 0 67.15123 67.521538;" xml:space="preserve">
<style type="text/css">
	.st0{fill:#087CB9;}
</style>
<path class="st0" d="M59.694756,46.252712V21.976345h-8.220703v-8.095703h4.34668l-5.054688-8.753418l-5.053711,8.753418h4.345703
	v8.095703H34.201591v-0.442871v-7.393555h3.444336V5.835232H29.34124v8.304688h3.444336v7.393555v0.442871H16.929131v-7.90802
	c1.952148-0.338318,3.444336-2.033569,3.444336-4.08075c0-2.289551-1.862305-4.152344-4.152344-4.152344
	s-4.152344,1.862793-4.152344,4.152344c0,2.04718,1.492188,3.742432,3.444336,4.08075v7.90802H7.456474v24.276367h8.056641v7.836426
	h-3.280273v8.305176h8.304688v-8.305176h-3.608398v-7.836426h15.856445v0.609863v7.70459h0.023315l-4.369019,7.567871h10.108398
	l-4.369873-7.567871h0.023193v-7.70459v-0.609863h15.856445v7.90802c-1.952148,0.338318-3.444336,2.03363-3.444336,4.081238
	c0,2.289551,1.862305,4.152344,4.152344,4.152344s4.152344-1.862793,4.152344-4.152344
	c0-2.047607-1.492188-3.74292-3.444336-4.081238v-7.90802H59.694756z M16.929131,38.091579v-3.269043h33.128906v3.269043H16.929131z
	 M50.058037,30.022732v3.383789H16.929131v-3.383789H50.058037z M50.058037,28.606716H34.201591v-5.214355h15.856445V28.606716z
	 M32.785576,28.606716H16.929131v-5.214355h15.856445V28.606716z M16.929131,39.507595h15.856445v5.329102H16.929131V39.507595z
	 M34.201591,39.507595h15.856445v5.329102H34.201591V39.507595z M51.474052,44.836697v-6.745117v-3.269043h6.804688v10.01416
	H51.474052z M58.27874,33.406521h-6.804688v-10.01416h6.804688V33.406521z M50.766045,7.959255l2.601562,4.505371h-5.202148
	L50.766045,7.959255z M30.757256,7.251247h5.472656v5.472656h-5.472656V7.251247z M13.484795,9.987576
	c0-1.508789,1.227539-2.736328,2.736328-2.736328s2.736328,1.227539,2.736328,2.736328s-1.227539,2.736328-2.736328,2.736328
	S13.484795,11.496365,13.484795,9.987576z M15.513115,23.392361v6.630371v3.383789H8.87249v-10.01416H15.513115z M8.87249,34.822536
	h6.640625v10.01416H8.87249V34.822536z M19.121513,60.978298h-5.472656v-5.473145h5.472656V60.978298z M30.892998,60.719021
	l2.600586-4.505859l2.601562,4.505859H30.892998z M53.502373,58.24197c0,1.508789-1.227539,2.736328-2.736328,2.736328
	s-2.736328-1.227539-2.736328-2.736328c0-1.509277,1.227539-2.736816,2.736328-2.736816S53.502373,56.732693,53.502373,58.24197z"/>
</svg>
