<?xml version="1.0" encoding="UTF-8"?>
<svg width="40px" height="56px" viewBox="0 0 40 56" version="1.1" xmlns="http://www.w3.org/2000/svg" xmlns:xlink="http://www.w3.org/1999/xlink">
    <!-- Generator: Sketch 63.1 (92452) - https://sketch.com -->
    <title>Automation-icon</title>
    <desc>Created with Sketch.</desc>
    <g id="Post-summit-dashboard,-August-19" stroke="none" stroke-width="1" fill="none" fill-rule="evenodd">
        <g id="RHCS-Landing-Icons-2" transform="translate(-974.000000, -220.000000)" fill="#EE0000" fill-rule="nonzero">
            <g id="Automation-icon" transform="translate(974.000000, 220.000000)">
                <path d="M14.6,0.4 L1.6,0.4 C0.7,0.4 1.77635684e-15,1.2 1.77635684e-15,2.1 C1.77635684e-15,2.1 1.77635684e-15,2.1 1.77635684e-15,2.1 L1.77635684e-15,15.1 C1.77635684e-15,16 0.7,16.7 1.6,16.7 L14.6,16.7 C15.5,16.7 16.2,16 16.2,15.1 L16.2,2.1 C16.2,1.2 15.5,0.4 14.6,0.4 C14.6,0.4 14.6,0.4 14.6,0.4 Z M13,13.4 L3.3,13.4 L3.3,3.7 L13,3.7 L13,13.4 Z" id="Shape"></path>
                <path d="M14.6,19.9 L1.6,19.9 C0.7,19.9 1.77635684e-15,20.6 1.77635684e-15,21.5 L1.77635684e-15,34.5 C1.77635684e-15,35.4 0.7,36.1 1.6,36.1 L14.6,36.1 C15.5,36.1 16.2,35.4 16.2,34.5 L16.2,21.5 C16.2,20.6 15.5,19.9 14.6,19.9 C14.6,19.9 14.6,19.9 14.6,19.9 Z M13,32.8 L3.3,32.8 L3.3,23.1 L13,23.1 L13,32.8 Z" id="Shape"></path>
                <path d="M1.6,39.3 L14.6,39.3 C15.5,39.3 16.2,40 16.2,40.9 L16.2,53.9 C16.2,54.8 15.5,55.5 14.6,55.5 L1.6,55.5 C0.7,55.5 1.77635684e-15,54.8 1.77635684e-15,53.9 L1.77635684e-15,41 C1.77635684e-15,40.1 0.7,39.3 1.6,39.3 Z" id="Path"></path>
                <path d="M31.9,39.4 C31,39.4 30.3,40.1 30.3,41 C30.3,43.7 28.2,45.8 25.5,45.8 C25.5,45.8 25.5,45.8 25.4,45.8 L24.9,45.8 L26.5,44.2 C27.1,43.5 27.1,42.5 26.4,41.9 C25.8,41.3 24.8,41.3 24.2,41.9 L19.9,46.2 C19.8,46.3 19.7,46.5 19.6,46.7 C19.6,46.8 19.6,46.8 19.6,46.9 C19.6,47 19.6,47.2 19.6,47.3 C19.6,47.3 19.6,47.3 19.6,47.5 C19.6,47.7 19.6,47.8 19.6,48 L19.6,48 L19.6,48 C19.7,48.2 19.8,48.3 19.9,48.5 L19.9,48.5 L24.2,52.8 C24.8,53.4 25.9,53.4 26.5,52.8 C27.1,52.2 27.1,51.1 26.5,50.5 L24.9,49 L25.4,49 C29.8,49 33.5,45.5 33.5,41 L33.5,41 C33.5,40.1 32.8,39.4 31.9,39.4 C31.9,39.4 31.9,39.4 31.9,39.4 Z" id="Path"></path>
                <path d="M21.1,10.1 L25.4,10.1 C28.1,10.1 30.2,12.2 30.3,14.9 C30.3,14.9 30.3,15 30.3,15 C30.3,15.9 31,16.6 31.9,16.6 C31.9,16.6 31.9,16.6 31.9,16.6 C32.8,16.6 33.5,15.9 33.5,15 C33.5,10.5 29.9,6.9 25.5,6.9 C25.5,6.9 25.4,6.9 25.4,6.9 L21.1,6.9 C20.2,6.9 19.5,7.6 19.5,8.5 C19.5,9.4 20.2,10.1 21.1,10.1 Z" id="Path"></path>
                <path d="M38.4,26.4 L37.6,26.4 C37.5,26 37.3,25.5 37.1,25.1 L37.7,24.5 C38.3,23.8 38.3,22.8 37.6,22.2 C37,21.6 36,21.6 35.4,22.2 L34.8,22.8 C34.4,22.6 34,22.4 33.5,22.3 L33.5,21.5 C33.5,20.6 32.8,19.9 31.9,19.9 C31,19.9 30.3,20.6 30.3,21.5 L30.3,22.3 C29.9,22.4 29.4,22.6 29,22.8 L28.4,22.2 C27.8,21.6 26.7,21.6 26.1,22.2 C25.5,22.8 25.5,23.8 26.1,24.5 C26.1,24.5 26.1,24.5 26.1,24.5 L26.7,25.1 C26.5,25.5 26.3,25.9 26.2,26.4 L25.4,26.4 C24.5,26.4 23.8,27.1 23.8,28 C23.8,28.9 24.5,29.6 25.4,29.6 L26.2,29.6 C26.3,30 26.5,30.5 26.7,30.9 L26.1,31.5 C25.5,32.1 25.5,33.1 26.1,33.8 C26.1,33.8 26.1,33.8 26.1,33.8 C26.4,34.1 26.8,34.3 27.2,34.3 C27.6,34.3 28,34.1 28.3,33.8 L28.9,33.2 C29.3,33.4 29.7,33.6 30.2,33.7 L30.2,34.5 C30.2,35.4 30.9,36.1 31.8,36.1 C32.7,36.1 33.4,35.4 33.4,34.5 L33.4,33.7 C33.8,33.6 34.3,33.4 34.7,33.2 L35.3,33.8 C35.9,34.4 37,34.4 37.6,33.8 C38.2,33.2 38.2,32.1 37.6,31.5 L37,30.9 C37.2,30.5 37.4,30.1 37.5,29.6 L38.3,29.6 C39.2,29.6 39.9,28.9 39.9,28 C40,27.1 39.3,26.4 38.4,26.4 L38.4,26.4 Z M31.9,30.7 C30.4,30.7 29.2,29.5 29.2,28 C29.2,26.5 30.4,25.3 31.9,25.3 C33.4,25.3 34.6,26.5 34.6,28 C34.6,28 34.6,28 34.6,28 C34.6,29.5 33.4,30.7 31.9,30.7 Z" id="Shape"></path>
            </g>
        </g>
    </g>
</svg>