<svg version="1.1" id="Layer_1" xmlns="http://www.w3.org/2000/svg" xmlns:xlink="http://www.w3.org/1999/xlink" x="0px" y="0px"
	 viewBox="0 0 67.2 67.5" style="enable-background:new 0 0 67.2 67.5;" xml:space="preserve">
<style type="text/css">
	.st0{fill:#017BB9;}
</style>
<path class="st0" d="M4.3,63.5c-0.3-0.1-0.6-0.3-0.7-0.7c-0.2-0.5-0.7-0.7-1.2-0.5c-0.5,0.2-0.7,0.8-0.5,1.2c0.4,0.9,1.1,1.5,2,1.8
	c0.1,0,0.2,0,0.3,0c0.4,0,0.8-0.3,0.9-0.7C5.1,64.1,4.8,63.6,4.3,63.5z M5.7,2h-1C4.2,2,3.8,2.1,3.4,2.3C2.9,2.5,2.7,3.1,2.9,3.5
	c0.2,0.4,0.5,0.6,0.9,0.6c0.1,0,0.3,0,0.4-0.1C4.3,4,4.5,3.9,4.6,3.9h1c0.5,0,0.9-0.4,0.9-0.9C6.6,2.5,6.2,2,5.7,2z M2.6,54.7
	c0.5,0,0.9-0.4,0.9-0.9v-1.9c0-0.5-0.4-0.9-0.9-0.9s-0.9,0.4-0.9,0.9v1.9C1.6,54.3,2,54.7,2.6,54.7z M2.6,60.4
	c0.5,0,0.9-0.4,0.9-0.9v-1.9c0-0.5-0.4-0.9-0.9-0.9S1.6,57,1.6,57.5v1.9C1.6,59.9,2,60.4,2.6,60.4z M21.1,63.5h-1.9
	c-0.5,0-0.9,0.4-0.9,0.9c0,0.5,0.4,0.9,0.9,0.9h1.9c0.5,0,0.9-0.4,0.9-0.9C22,63.9,21.6,63.5,21.1,63.5z M32.5,63.5h-1.9
	c-0.5,0-0.9,0.4-0.9,0.9c0,0.5,0.4,0.9,0.9,0.9h1.9c0.5,0,0.9-0.4,0.9-0.9C33.4,63.9,33,63.5,32.5,63.5z M9.7,63.5H7.9
	c-0.5,0-0.9,0.4-0.9,0.9c0,0.5,0.4,0.9,0.9,0.9h1.9c0.5,0,0.9-0.4,0.9-0.9C10.7,63.9,10.3,63.5,9.7,63.5z M26.8,63.5h-1.9
	c-0.5,0-0.9,0.4-0.9,0.9c0,0.5,0.4,0.9,0.9,0.9h1.9c0.5,0,0.9-0.4,0.9-0.9C27.7,63.9,27.3,63.5,26.8,63.5z M38.1,63.5h-1.9
	c-0.5,0-0.9,0.4-0.9,0.9c0,0.5,0.4,0.9,0.9,0.9h1.9c0.5,0,0.9-0.4,0.9-0.9C39.1,63.9,38.7,63.5,38.1,63.5z M2.6,49
	c0.5,0,0.9-0.4,0.9-0.9v-1.9c0-0.5-0.4-0.9-0.9-0.9s-0.9,0.4-0.9,0.9v1.9C1.6,48.6,2,49,2.6,49z M15.4,63.5h-1.9
	c-0.5,0-0.9,0.4-0.9,0.9c0,0.5,0.4,0.9,0.9,0.9h1.9c0.5,0,0.9-0.4,0.9-0.9C16.4,63.9,15.9,63.5,15.4,63.5z M43.5,3.9h1.9
	c0.5,0,0.9-0.4,0.9-0.9c0-0.5-0.4-0.9-0.9-0.9h-1.9C43,2,42.6,2.5,42.6,3C42.6,3.5,43,3.9,43.5,3.9z M32.2,3.9h1.9
	C34.6,3.9,35,3.5,35,3C35,2.5,34.6,2,34.1,2h-1.9c-0.5,0-0.9,0.4-0.9,0.9C31.2,3.5,31.6,3.9,32.2,3.9z M37.8,3.9h1.9
	c0.5,0,0.9-0.4,0.9-0.9c0-0.5-0.4-0.9-0.9-0.9h-1.9c-0.5,0-0.9,0.4-0.9,0.9C36.9,3.5,37.3,3.9,37.8,3.9z M26.5,3.9h1.9
	c0.5,0,0.9-0.4,0.9-0.9c0-0.5-0.4-0.9-0.9-0.9h-1.9C26,2,25.5,2.5,25.5,3C25.5,3.5,26,3.9,26.5,3.9z M54.9,3.9h1.9
	c0.5,0,0.9-0.4,0.9-0.9c0-0.5-0.4-0.9-0.9-0.9h-1.9c-0.5,0-0.9,0.4-0.9,0.9C53.9,3.5,54.3,3.9,54.9,3.9z M15.1,3.9H17
	C17.6,3.9,18,3.5,18,3C18,2.5,17.6,2,17,2h-1.9c-0.5,0-0.9,0.4-0.9,0.9C14.2,3.5,14.6,3.9,15.1,3.9z M43.8,63.5h-1.9
	c-0.5,0-0.9,0.4-0.9,0.9c0,0.5,0.4,0.9,0.9,0.9h1.9c0.5,0,0.9-0.4,0.9-0.9C44.8,63.9,44.3,63.5,43.8,63.5z M49.2,3.9h1.9
	C51.6,3.9,52,3.5,52,3C52,2.5,51.6,2,51.1,2h-1.9c-0.5,0-0.9,0.4-0.9,0.9C48.2,3.5,48.7,3.9,49.2,3.9z M2.6,9.3
	c0.5,0,0.9-0.4,0.9-0.9V6.4c0-0.5-0.4-0.9-0.9-0.9S1.6,5.9,1.6,6.4v1.9C1.6,8.9,2,9.3,2.6,9.3z M9.5,3.9h1.9c0.5,0,0.9-0.4,0.9-0.9
	c0-0.5-0.4-0.9-0.9-0.9H9.5C8.9,2,8.5,2.5,8.5,3C8.5,3.5,8.9,3.9,9.5,3.9z M2.6,32c0.5,0,0.9-0.4,0.9-0.9v-1.9
	c0-0.5-0.4-0.9-0.9-0.9s-0.9,0.4-0.9,0.9V31C1.6,31.6,2,32,2.6,32z M2.6,37.7c0.5,0,0.9-0.4,0.9-0.9v-1.9c0-0.5-0.4-0.9-0.9-0.9
	s-0.9,0.4-0.9,0.9v1.9C1.6,37.2,2,37.7,2.6,37.7z M2.6,26.3c0.5,0,0.9-0.4,0.9-0.9v-1.9c0-0.5-0.4-0.9-0.9-0.9s-0.9,0.4-0.9,0.9v1.9
	C1.6,25.9,2,26.3,2.6,26.3z M2.6,43.3c0.5,0,0.9-0.4,0.9-0.9v-1.9c0-0.5-0.4-0.9-0.9-0.9S1.6,40,1.6,40.5v1.9
	C1.6,42.9,2,43.3,2.6,43.3z M2.6,15c0.5,0,0.9-0.4,0.9-0.9v-1.9c0-0.5-0.4-0.9-0.9-0.9s-0.9,0.4-0.9,0.9V14C1.6,14.5,2,15,2.6,15z
	 M2.6,20.6c0.5,0,0.9-0.4,0.9-0.9v-1.9c0-0.5-0.4-0.9-0.9-0.9s-0.9,0.4-0.9,0.9v1.9C1.6,20.2,2,20.6,2.6,20.6z M20.8,3.9h1.9
	c0.5,0,0.9-0.4,0.9-0.9c0-0.5-0.4-0.9-0.9-0.9h-1.9c-0.5,0-0.9,0.4-0.9,0.9C19.9,3.5,20.3,3.9,20.8,3.9z M64.5,49.3
	c-0.5,0-0.9,0.4-0.9,0.9v1.9c0,0.5,0.4,0.9,0.9,0.9s0.9-0.4,0.9-0.9v-1.9C65.5,49.7,65,49.3,64.5,49.3z M64.5,55
	c-0.5,0-0.9,0.4-0.9,0.9v1.9c0,0.5,0.4,0.9,0.9,0.9s0.9-0.4,0.9-0.9v-1.9C65.5,55.4,65,55,64.5,55z M37,13.2c0,0.5,0.4,0.9,0.9,0.9
	s0.9-0.4,0.9-0.9c0-0.5-0.4-0.9-0.9-0.9S37,12.7,37,13.2z M64.5,60.6c-0.5,0-0.9,0.4-0.9,0.9v0.8c0,0.2-0.1,0.4-0.2,0.6
	c-0.3,0.5-0.1,1,0.3,1.3c0.1,0.1,0.3,0.1,0.5,0.1c0.3,0,0.6-0.2,0.8-0.5c0.3-0.5,0.4-1,0.4-1.5v-0.8C65.5,61.1,65,60.6,64.5,60.6z
	 M60.8,63.5h-1.9c-0.5,0-0.9,0.4-0.9,0.9c0,0.5,0.4,0.9,0.9,0.9h1.9c0.5,0,0.9-0.4,0.9-0.9C61.8,63.9,61.4,63.5,60.8,63.5z M62.4,2
	h-1.9C60,2,59.6,2.5,59.6,3c0,0.5,0.4,0.9,0.9,0.9h1.9c0.5,0,0.9-0.4,0.9-0.9C63.4,2.5,63,2,62.4,2z M64.5,37.9
	c-0.5,0-0.9,0.4-0.9,0.9v1.9c0,0.5,0.4,0.9,0.9,0.9s0.9-0.4,0.9-0.9v-1.9C65.5,38.4,65,37.9,64.5,37.9z M64.5,43.6
	c-0.5,0-0.9,0.4-0.9,0.9v1.9c0,0.5,0.4,0.9,0.9,0.9s0.9-0.4,0.9-0.9v-1.9C65.5,44,65,43.6,64.5,43.6z M64.5,9.6
	c-0.5,0-0.9,0.4-0.9,0.9v1.9c0,0.5,0.4,0.9,0.9,0.9s0.9-0.4,0.9-0.9v-1.9C65.5,10,65,9.6,64.5,9.6z M65.4,4.7
	c-0.1-0.5-0.5-0.9-1-0.8c-0.5,0.1-0.9,0.5-0.8,1c0,0,0,0.1,0,0.1v1.7c0,0.5,0.4,0.9,0.9,0.9s0.9-0.4,0.9-0.9V5.1
	C65.5,4.9,65.5,4.8,65.4,4.7z M64.5,15.2c-0.5,0-0.9,0.4-0.9,0.9v1.9c0,0.5,0.4,0.9,0.9,0.9s0.9-0.4,0.9-0.9v-1.9
	C65.5,15.7,65,15.2,64.5,15.2z M64.5,20.9c-0.5,0-0.9,0.4-0.9,0.9v1.9c0,0.5,0.4,0.9,0.9,0.9s0.9-0.4,0.9-0.9v-1.9
	C65.5,21.3,65,20.9,64.5,20.9z M64.5,26.6c-0.5,0-0.9,0.4-0.9,0.9v1.9c0,0.5,0.4,0.9,0.9,0.9s0.9-0.4,0.9-0.9v-1.9
	C65.5,27,65,26.6,64.5,26.6z M64.5,32.3c-0.5,0-0.9,0.4-0.9,0.9v1.9c0,0.5,0.4,0.9,0.9,0.9s0.9-0.4,0.9-0.9v-1.9
	C65.5,32.7,65,32.3,64.5,32.3z M43.5,39.1l1.9,0l0-0.9l-1.9,0L43.5,39.1z M43.5,41l1.9,0l0-0.9l-1.9,0L43.5,41z M43.5,37.2l1.9,0
	l0-0.9l-1.9,0L43.5,37.2z M43.5,42.9l1.9,0l0-0.9l-1.9,0L43.5,42.9z M49.5,63.5h-1.9c-0.5,0-0.9,0.4-0.9,0.9c0,0.5,0.4,0.9,0.9,0.9
	h1.9c0.5,0,0.9-0.4,0.9-0.9C50.4,63.9,50,63.5,49.5,63.5z M20.8,18.3L20.8,18.3c-0.3,0-0.8,0.2-1,1.1l-0.9,3
	c-0.3,0.9-0.8,2.3-1.1,3.2l-1.4,4.2c-0.2,0.6-0.1,1.2,0.2,1.6c0.3,0.4,0.9,0.7,1.5,0.7h5.5c0.6,0,1.2-0.3,1.5-0.7
	c0.3-0.4,0.4-1,0.2-1.6l-1.4-4.1c-0.3-0.9-0.8-2.3-1.1-3.2l-1-3.1C21.5,18.5,21.1,18.3,20.8,18.3z M22.8,26l1.4,4.1
	c0.1,0.2,0.1,0.5,0,0.6C24,30.9,23.8,31,23.5,31H18c-0.3,0-0.5-0.1-0.6-0.2c-0.1-0.2-0.1-0.4,0-0.6l1.4-4.2c0.3-0.9,0.8-2.3,1.1-3.2
	l0.9-2.9l0.9,2.9C22,23.7,22.5,25.2,22.8,26z M55.2,63.5h-1.9c-0.5,0-0.9,0.4-0.9,0.9c0,0.5,0.4,0.9,0.9,0.9h1.9
	c0.5,0,0.9-0.4,0.9-0.9C56.1,63.9,55.7,63.5,55.2,63.5z M59.1,57.4V32.6c0-1.1-0.9-2-2-2H31.7c-1.1,0-2,0.9-2,2l-5.9-17
	c-0.4-1.1-1.6-2-2.8-2h-0.5c-1.2,0-2.4,0.9-2.8,2l-5,14.5V11.9c0-0.6,0.5-1.1,1.1-1.1h31.6c0.6,0,1.1,0.5,1.1,1.1v18.7h1.1V11.9
	c0-1.2-1-2.3-2.3-2.3H13.8c-1.2,0-2.3,1-2.3,2.3v0.6h-0.7c-1.2,0-2.3,1-2.3,2.3v31.8c0,1.2,1,2.3,2.3,2.3h18.8v8.7c0,1.1,0.9,2,2,2
	h25.4C58.2,59.5,59.1,58.5,59.1,57.4z M29.7,42.9l-2.1-6.3c-0.4-1.1-1.6-2-2.8-2h-8c-1.2,0-2.4,0.9-2.8,2l-1.9,5.6
	c-0.2,0.7-0.6,1.9-0.6,2.3c0,0.8,1.2,1.1,2.3,1.1h14.3c0.6,0,1.2-0.3,1.5-0.7c0,0,0-0.1,0-0.1v2.7H10.9c-0.6,0-1.1-0.5-1.1-1.1V14.7
	c0-0.6,0.5-1.1,1.1-1.1h0.7v18.2c0,0.4,0,1.2,0.6,1.3c0.6,0.1,0.9-0.7,1-1l5.6-16.1c0.2-0.6,1-1.2,1.7-1.2H21c0.7,0,1.5,0.6,1.7,1.2
	l7,20V42.9z M28.7,44.3c-0.1,0.2-0.3,0.2-0.6,0.2H13.8c-0.5,0-0.9-0.1-1.1-0.2c0.1-0.3,0.2-1,0.5-1.8l1.9-5.6c0.2-0.6,1-1.2,1.7-1.2
	h8c0.7,0,1.5,0.6,1.7,1.2l2.3,6.7C28.9,44,28.8,44.2,28.7,44.3z M58.1,57.4c0,0.6-0.5,1-1,1H31.7c-0.6,0-1-0.5-1-1V32.6
	c0-0.6,0.5-1,1-1h11.8v0l1.9,0v0h11.7c0.6,0,1,0.5,1,1V57.4z M45.4,43.9l-1.9,0l0,0.9l1.9,0L45.4,43.9z M40,13.2
	c0,0.5,0.4,0.9,0.9,0.9c0.5,0,0.9-0.4,0.9-0.9c0-0.5-0.4-0.9-0.9-0.9C40.4,12.3,40,12.7,40,13.2z M43.5,35.3l1.9,0l0-0.9l-1.9,0
	L43.5,35.3z M43,13.2c0,0.5,0.4,0.9,0.9,0.9s0.9-0.4,0.9-0.9c0-0.5-0.4-0.9-0.9-0.9S43,12.7,43,13.2z M45.4,33.4l0-0.9l-1.9,0l0,0.9
	L45.4,33.4z M42.6,44.8v7.1h3.8v-7.1h-2.8H42.6z M44.5,48.4c0.4,0,0.7,0.3,0.7,0.7c0,0.4-0.3,0.7-0.7,0.7s-0.7-0.3-0.7-0.7
	C43.8,48.7,44.1,48.4,44.5,48.4z"/>
</svg>
