<?xml version="1.0" encoding="utf-8"?>
<!-- Generator: Adobe Illustrator 22.1.0, SVG Export Plug-In . SVG Version: 6.00 Build 0)  -->
<svg version="1.1" id="Layer_1" xmlns="http://www.w3.org/2000/svg" xmlns:xlink="http://www.w3.org/1999/xlink" x="0px" y="0px"
	 viewBox="0 0 67.15123 67.521538" style="enable-background:new 0 0 67.15123 67.521538;" xml:space="preserve">
<style type="text/css">
	.st0{fill:#017BB9;}
</style>
<path class="st0" d="M5.848106,62.013638c-0.317505-0.089478-0.58197-0.324585-0.706543-0.630676
	c-0.187683-0.457886-0.710449-0.678894-1.171387-0.491211c-0.459229,0.187683-0.679382,0.712219-0.491638,1.171875
	c0.332886,0.81311,1.036743,1.441162,1.882751,1.679749c0.081177,0.022766,0.163208,0.033325,0.243896,0.033325
	c0.39209,0,0.752563-0.258789,0.863953-0.654358C6.603783,62.644314,6.325768,62.148708,5.848106,62.013638z M7.119102,3.671169
	H6.140221c-0.402588,0-0.791626,0.081543-1.156494,0.242432c-0.453918,0.200439-0.65918,0.730713-0.459229,1.18457
	c0.148254,0.335938,0.477173,0.536011,0.822327,0.536011C5.467918,5.633694,5.591148,5.609158,5.709129,5.5574
	C5.8442,5.497829,5.988914,5.467556,6.140221,5.467556h0.978882c0.496033,0,0.898193-0.402222,0.898193-0.898193
	C8.017296,4.073269,7.615135,3.671169,7.119102,3.671169z M4.164024,53.658779c0.496033,0,0.898193-0.401733,0.898193-0.898193
	v-1.796387c0-0.49646-0.402161-0.898193-0.898193-0.898193s-0.898193,0.401733-0.898193,0.898193v1.796387
	C3.265831,53.257046,3.667992,53.658779,4.164024,53.658779z M4.164024,59.048c0.496033,0,0.898193-0.401733,0.898193-0.898193
	V56.35342c0-0.496521-0.402161-0.898254-0.898193-0.898254s-0.898193,0.401733-0.898193,0.898254v1.796387
	C3.265831,58.646267,3.667992,59.048,4.164024,59.048z M21.765282,62.053982h-1.796387
	c-0.496033,0-0.898193,0.401733-0.898193,0.898193s0.402161,0.898193,0.898193,0.898193h1.796387
	c0.496033,0,0.898193-0.401733,0.898193-0.898193S22.261314,62.053982,21.765282,62.053982z M32.543663,62.053982h-1.796387
	c-0.496033,0-0.898254,0.401733-0.898254,0.898193s0.402222,0.898193,0.898254,0.898193h1.796387
	c0.496033,0,0.898193-0.401733,0.898193-0.898193S33.039696,62.053982,32.543663,62.053982z M10.9869,62.053982H9.190514
	c-0.496033,0-0.898193,0.401733-0.898193,0.898193s0.402161,0.898193,0.898193,0.898193H10.9869
	c0.496033,0,0.898193-0.401733,0.898193-0.898193S11.482933,62.053982,10.9869,62.053982z M27.154442,62.053982h-1.796387
	c-0.496033,0-0.898193,0.401733-0.898193,0.898193s0.402161,0.898193,0.898193,0.898193h1.796387
	c0.496033,0,0.898193-0.401733,0.898193-0.898193S27.650475,62.053982,27.154442,62.053982z M37.93325,62.053982h-1.796387
	c-0.49646,0-0.898193,0.401733-0.898193,0.898193s0.401733,0.898193,0.898193,0.898193h1.796387
	c0.49646,0,0.898193-0.401733,0.898193-0.898193S38.42971,62.053982,37.93325,62.053982z M4.164024,48.269619
	c0.496033,0,0.898193-0.401733,0.898193-0.898193v-1.796387c0-0.49646-0.402161-0.898193-0.898193-0.898193
	s-0.898193,0.401733-0.898193,0.898193v1.796387C3.265831,47.867886,3.667992,48.269619,4.164024,48.269619z M16.37606,62.053982
	h-1.796387c-0.496033,0-0.898193,0.401733-0.898193,0.898193s0.402161,0.898193,0.898193,0.898193h1.796387
	c0.496033,0,0.898193-0.401733,0.898193-0.898193S16.872093,62.053982,16.37606,62.053982z M43.04702,5.467556h1.796387
	c0.49646,0,0.898193-0.402222,0.898193-0.898193c0-0.496094-0.401733-0.898193-0.898193-0.898193H43.04702
	c-0.49646,0-0.898193,0.4021-0.898193,0.898193C42.148827,5.065334,42.55056,5.467556,43.04702,5.467556z M32.268639,5.467556
	h1.796387c0.496521,0,0.898254-0.402222,0.898254-0.898193c0-0.496094-0.401733-0.898193-0.898254-0.898193h-1.796387
	c-0.496033,0-0.898193,0.4021-0.898193,0.898193C31.370445,5.065334,31.772606,5.467556,32.268639,5.467556z M37.65786,5.467556
	h1.796387c0.49646,0,0.898193-0.402222,0.898193-0.898193c0-0.496094-0.401733-0.898193-0.898193-0.898193H37.65786
	c-0.49646,0-0.898193,0.4021-0.898193,0.898193C36.759666,5.065334,37.1614,5.467556,37.65786,5.467556z M26.879478,5.467556
	h1.796387c0.496033,0,0.898193-0.402222,0.898193-0.898193c0-0.496094-0.402161-0.898193-0.898193-0.898193h-1.796387
	c-0.496033,0-0.898193,0.4021-0.898193,0.898193C25.981285,5.065334,26.383446,5.467556,26.879478,5.467556z M53.825401,5.467556
	h1.796387c0.49646,0,0.898193-0.402222,0.898193-0.898193c0-0.496094-0.401733-0.898193-0.898193-0.898193h-1.796387
	c-0.49646,0-0.898193,0.4021-0.898193,0.898193C52.927208,5.065334,53.328941,5.467556,53.825401,5.467556z M16.101097,5.467556
	h1.796387c0.496033,0,0.898193-0.402222,0.898193-0.898193c0-0.496094-0.402161-0.898193-0.898193-0.898193h-1.796387
	c-0.496033,0-0.898193,0.4021-0.898193,0.898193C15.202904,5.065334,15.605064,5.467556,16.101097,5.467556z M43.322472,62.053982
	h-1.796387c-0.49646,0-0.898193,0.401733-0.898193,0.898193s0.401733,0.898193,0.898193,0.898193h1.796387
	c0.49646,0,0.898193-0.401733,0.898193-0.898193S43.818932,62.053982,43.322472,62.053982z M48.436241,5.467556h1.796387
	c0.49646,0,0.898193-0.402222,0.898193-0.898193c0-0.496094-0.401733-0.898193-0.898193-0.898193h-1.796387
	c-0.49646,0-0.898193,0.4021-0.898193,0.898193C47.538048,5.065334,47.939781,5.467556,48.436241,5.467556z M4.164024,10.544949
	c0.496033,0,0.898193-0.402344,0.898193-0.898193V7.850246c0-0.495972-0.402161-0.898193-0.898193-0.898193
	S3.265831,7.354275,3.265831,7.850246v1.796509C3.265831,10.142605,3.667992,10.544949,4.164024,10.544949z M10.711937,5.467556
	h1.796387c0.496033,0,0.898193-0.402222,0.898193-0.898193c0-0.496094-0.402161-0.898193-0.898193-0.898193h-1.796387
	c-0.496033,0-0.898193,0.4021-0.898193,0.898193C9.813744,5.065334,10.215904,5.467556,10.711937,5.467556z M4.164024,32.101589
	c0.496033,0,0.898193-0.4021,0.898193-0.898193v-1.796387c0-0.496094-0.402161-0.898193-0.898193-0.898193
	s-0.898193,0.4021-0.898193,0.898193v1.796387C3.265831,31.69949,3.667992,32.101589,4.164024,32.101589z M4.164024,37.491238
	c0.496033,0,0.898193-0.401733,0.898193-0.898193v-1.796387c0-0.496094-0.402161-0.898193-0.898193-0.898193
	s-0.898193,0.4021-0.898193,0.898193v1.796387C3.265831,37.089504,3.667992,37.491238,4.164024,37.491238z M4.164024,26.712429
	c0.496033,0,0.898193-0.4021,0.898193-0.898193v-1.796387c0-0.496094-0.402161-0.898193-0.898193-0.898193
	s-0.898193,0.4021-0.898193,0.898193v1.796387C3.265831,26.310329,3.667992,26.712429,4.164024,26.712429z M4.164024,42.880398
	c0.496033,0,0.898193-0.401733,0.898193-0.898193v-1.796387c0-0.49646-0.402161-0.898193-0.898193-0.898193
	s-0.898193,0.401733-0.898193,0.898193v1.796387C3.265831,42.478664,3.667992,42.880398,4.164024,42.880398z M4.164024,15.934109
	c0.496033,0,0.898193-0.402222,0.898193-0.898193v-1.796387c0-0.496094-0.402161-0.898193-0.898193-0.898193
	s-0.898193,0.4021-0.898193,0.898193v1.796387C3.265831,15.531887,3.667992,15.934109,4.164024,15.934109z M4.164024,21.323294
	c0.496033,0,0.898193-0.402246,0.898193-0.898218v-1.796387c0-0.496094-0.402161-0.898193-0.898193-0.898193
	s-0.898193,0.4021-0.898193,0.898193v1.796387C3.265831,20.921047,3.667992,21.323294,4.164024,21.323294z M21.490257,5.467556
	h1.796448c0.495972,0,0.898193-0.402222,0.898193-0.898193c0-0.496094-0.402222-0.898193-0.898193-0.898193h-1.796448
	c-0.495972,0-0.898193,0.4021-0.898193,0.898193C20.592064,5.065334,20.994286,5.467556,21.490257,5.467556z M62.987206,48.537136
	c-0.49646,0-0.898193,0.401733-0.898193,0.898193v1.796387c0,0.49646,0.401733,0.898193,0.898193,0.898193
	s0.898193-0.401733,0.898193-0.898193v-1.796387C63.885399,48.938869,63.483665,48.537136,62.987206,48.537136z
	 M62.987206,53.926357c-0.49646,0-0.898193,0.401733-0.898193,0.898193v1.796387c0,0.49646,0.401733,0.898193,0.898193,0.898193
	s0.898193-0.401733,0.898193-0.898193v-1.796387C63.885399,54.328091,63.483665,53.926357,62.987206,53.926357z
	 M36.874046,14.234646c0,0.476196,0.386047,0.862305,0.862305,0.862305s0.862305-0.386108,0.862305-0.862305
	c0-0.476318-0.386047-0.862305-0.862305-0.862305S36.874046,13.758327,36.874046,14.234646z M62.987206,59.315517
	c-0.49646,0-0.898193,0.401733-0.898193,0.898193v0.762268c0,0.191223-0.048279,0.372742-0.14386,0.537659
	c-0.24823,0.42981-0.100891,0.978882,0.328918,1.227112c0.141235,0.081604,0.295593,0.120178,0.448242,0.120178
	c0.310486,0,0.612244-0.161377,0.77887-0.449097c0.25177-0.435913,0.384216-0.932373,0.384216-1.435852v-0.762268
	C63.885399,59.717251,63.483665,59.315517,62.987206,59.315517z M59.490013,62.053982h-1.796387
	c-0.49646,0-0.898193,0.401733-0.898193,0.898193s0.401733,0.898193,0.898193,0.898193h1.796387
	c0.49646,0,0.898193-0.401733,0.898193-0.898193S59.986473,62.053982,59.490013,62.053982z M61.011009,3.671169h-1.796387
	c-0.496521,0-0.898254,0.4021-0.898254,0.898193c0,0.495972,0.401733,0.898193,0.898254,0.898193h1.796387
	c0.49646,0,0.898193-0.402222,0.898193-0.898193C61.909203,4.073269,61.507469,3.671169,61.011009,3.671169z M62.987206,37.758755
	c-0.49646,0-0.898193,0.401733-0.898193,0.898193v1.796387c0,0.496521,0.401733,0.898254,0.898193,0.898254
	s0.898193-0.401733,0.898193-0.898254v-1.796387C63.885399,38.160488,63.483665,37.758755,62.987206,37.758755z
	 M62.987206,43.147976c-0.49646,0-0.898193,0.401733-0.898193,0.898193v1.796387c0,0.49646,0.401733,0.898193,0.898193,0.898193
	s0.898193-0.401733,0.898193-0.898193v-1.796387C63.885399,43.549709,63.483665,43.147976,62.987206,43.147976z
	 M62.987206,10.812771c-0.49646,0-0.898193,0.402222-0.898193,0.898193v1.796387c0,0.496094,0.401733,0.898193,0.898193,0.898193
	s0.898193-0.4021,0.898193-0.898193v-1.796387C63.885399,11.214993,63.483665,10.812771,62.987206,10.812771z M63.867882,6.225857
	c-0.053528-0.493042-0.507874-0.849121-0.989441-0.796143c-0.493835,0.053589-0.849976,0.496582-0.796448,0.98999
	c0.004395,0.041138,0.007019,0.083252,0.007019,0.125732v1.572754c0,0.496094,0.401733,0.898193,0.898193,0.898193
	s0.898193-0.4021,0.898193-0.898193V6.545437C63.885399,6.43716,63.879234,6.330105,63.867882,6.225857z M62.987206,16.201931
	c-0.49646,0-0.898193,0.402344-0.898193,0.898315v1.796387c0,0.495972,0.401733,0.898193,0.898193,0.898193
	s0.898193-0.402222,0.898193-0.898193v-1.796387C63.885399,16.604275,63.483665,16.201931,62.987206,16.201931z
	 M62.987206,21.591213c-0.49646,0-0.898193,0.402222-0.898193,0.898193v1.796387c0,0.495972,0.401733,0.898193,0.898193,0.898193
	s0.898193-0.402222,0.898193-0.898193v-1.796387C63.885399,21.993435,63.483665,21.591213,62.987206,21.591213z
	 M62.987206,26.980373c-0.49646,0-0.898193,0.402222-0.898193,0.898193v1.796509c0,0.49585,0.401733,0.898218,0.898193,0.898218
	s0.898193-0.402369,0.898193-0.898218v-1.796509C63.885399,27.382595,63.483665,26.980373,62.987206,26.980373z
	 M62.987206,32.369656c-0.49646,0-0.898193,0.4021-0.898193,0.898193v1.796387c0,0.496338,0.401733,0.898132,0.898193,0.898132
	s0.898193-0.401794,0.898193-0.898132v-1.796387C63.885399,32.771755,63.483665,32.369656,62.987206,32.369656z
	 M43.053429,38.886745l1.796448-0.001709l-0.000916-0.898193l-1.796387,0.001709L43.053429,38.886745z M43.055199,40.683193
	l1.796387-0.00177l-0.000854-0.898193L43.054344,39.785L43.055199,40.683193z M43.05172,37.090359l1.796387-0.001709
	l-0.000916-0.898193l-1.796387,0.001709L43.05172,37.090359z M43.056969,42.47958l1.796387-0.00177l-0.000854-0.898193
	l-1.796448,0.00177L43.056969,42.47958z M48.711632,62.053982h-1.796387c-0.49646,0-0.898193,0.401733-0.898193,0.898193
	s0.401733,0.898193,0.898193,0.898193h1.796387c0.49646,0,0.898193-0.401733,0.898193-0.898193
	S49.208092,62.053982,48.711632,62.053982z M21.444481,19.120022h-0.001038c-0.303589,0.000488-0.717285,0.177612-0.964539,1.018433
	l-0.893555,2.869873c-0.273315,0.827881-0.72821,2.195312-1.007812,3.030518l-1.322327,3.949829
	c-0.188354,0.563354-0.121033,1.130127,0.184631,1.55481c0.305664,0.424805,0.821594,0.668457,1.41571,0.668457h5.209167
	c0.594116,0,1.109497-0.243652,1.414673-0.668457c0.305176-0.424927,0.37085-0.991699,0.180969-1.55481l-1.305664-3.865845
	c-0.281677-0.834473-0.738098-2.200928-1.014587-3.036865L22.40847,20.12698
	C22.161766,19.296658,21.74807,19.120022,21.444481,19.120022z M23.342735,26.464748l1.305664,3.865601
	c0.079834,0.236328,0.066772,0.446045-0.037048,0.589966c-0.103271,0.143921-0.297302,0.223267-0.546631,0.223267h-5.209167
	c-0.249817,0-0.444946-0.07959-0.548767-0.224365c-0.104309-0.144409-0.117859-0.354736-0.038574-0.591553l1.322388-3.949707
	c0.279602-0.836304,0.735474-2.205811,1.011963-3.043335l0.843506-2.707642l0.87738,2.787109
	C22.602501,24.258938,23.06002,25.628445,23.342735,26.464748z M54.100853,62.053982h-1.796387
	c-0.496521,0-0.898254,0.401733-0.898254,0.898193s0.401733,0.898193,0.898254,0.898193h1.796387
	c0.49646,0,0.898193-0.401733,0.898193-0.898193S54.597313,62.053982,54.100853,62.053982z M57.891502,56.269619V32.646023
	c0-1.059326-0.86145-1.920898-1.920837-1.920898H31.839256c-1.057373,0-1.916931,0.858398-1.920227,1.915039L24.322411,16.51907
	c-0.364136-1.050049-1.52063-1.872681-2.632202-1.872681h-0.495056c-1.111633,0-2.268127,0.822632-2.632202,1.872681
	l-4.782959,13.778076V13.007351c0-0.589111,0.479431-1.068237,1.068359-1.068237h29.994385
	c0.588928,0,1.068298,0.479126,1.068298,1.068237v17.717285h1.068298V13.007351c0-1.177979-0.958252-2.136597-2.136597-2.136597
	H14.848351c-1.178406,0-2.136658,0.958618-2.136658,2.136597v0.534058h-0.646606c-1.178162,0-2.136658,0.958496-2.136658,2.136597
	V45.85812c0,1.178162,0.958496,2.136658,2.136658,2.136658h17.853333v8.274841c0,1.059326,0.86145,1.920837,1.920837,1.920837
	h24.131409C57.030052,58.190456,57.891502,57.328945,57.891502,56.269619z M29.918419,42.508327l-2.032715-5.953247
	c-0.359375-1.052856-1.512756-1.877808-2.625427-1.877808h-7.589355c-1.113708,0-2.264954,0.826416-2.620728,1.881714
	l-1.798096,5.330383c-0.217529,0.643982-0.540405,1.761902-0.540405,2.202148c0,0.771729,1.10376,1.046692,2.136658,1.046692
	H28.46682c0.594666,0,1.110046-0.243652,1.414185-0.668518c0.015564-0.021729,0.023132-0.047729,0.037415-0.07019v2.526978
	H12.065086c-0.589233,0-1.068359-0.479187-1.068359-1.068359V15.678005c0-0.589111,0.479126-1.068359,1.068359-1.068359h0.646606
	v17.251709c0,0.332764,0,1.112671,0.599854,1.213867c0.601501,0.098633,0.85553-0.635376,0.964539-0.949951L19.5718,16.869656
	c0.213867-0.615234,0.972351-1.154907,1.623352-1.154907h0.495056c0.651001,0,1.409424,0.539673,1.623291,1.154907
	l6.604919,19.025269V42.508327z M29.011925,43.847927c-0.102234,0.143188-0.295776,0.221924-0.545105,0.221924H14.848351
	c-0.493469,0-0.86438-0.08136-1.046448-0.15155c0.057373-0.324158,0.225891-0.985901,0.462158-1.687256l1.798157-5.330383
	c0.207581-0.61554,0.95929-1.155151,1.608704-1.155151h7.589355c0.649963,0,1.404297,0.539612,1.614502,1.154907l2.17157,6.359863
	C29.126671,43.495815,29.114708,43.704739,29.011925,43.847927z M56.931114,56.269619
	c0,0.529419-0.430969,0.960388-0.960449,0.960388H31.839256c-0.52948,0-0.960449-0.430969-0.960449-0.960388V32.646023
	c0-0.529419,0.430969-0.960449,0.960449-0.960449H43.04641v0.015625l1.796448-0.001709v-0.013916h11.127808
	c0.52948,0,0.960449,0.43103,0.960449,0.960449V56.269619z M44.855125,43.376003l-1.796387,0.00177l0.000854,0.898193
	l1.796387-0.00177L44.855125,43.376003z M39.69735,14.234646c0,0.476196,0.386047,0.862305,0.862305,0.862305
	c0.476196,0,0.862305-0.386108,0.862305-0.862305c0-0.476318-0.386108-0.862305-0.862305-0.862305
	C40.083397,13.372341,39.69735,13.758327,39.69735,14.234646z M43.04995,35.293972l1.796387-0.001709l-0.000854-0.898193
	l-1.796387,0.001709L43.04995,35.293972z M42.520592,14.234646c0,0.476196,0.386047,0.862305,0.862305,0.862305
	s0.862305-0.386108,0.862305-0.862305c0-0.476318-0.386047-0.862305-0.862305-0.862305S42.520592,13.758327,42.520592,14.234646z
	 M44.844566,33.495876l-0.000854-0.898193l-1.796387,0.001709l0.000854,0.898193L44.844566,33.495876z M42.149132,44.275967
	v6.728577h3.592773v-6.728577h-2.682312H42.149132z M43.951134,47.6777c0.372498,0,0.674438,0.301941,0.674438,0.674438
	c0,0.372437-0.301941,0.674377-0.674438,0.674377s-0.674438-0.301941-0.674438-0.674377
	C43.276695,47.979641,43.578636,47.6777,43.951134,47.6777z"/>
</svg>
