<?xml version="1.0" encoding="utf-8"?>
<!-- Generator: Adobe Illustrator 22.1.0, SVG Export Plug-In . SVG Version: 6.00 Build 0)  -->
<svg version="1.1" id="Layer_1" xmlns="http://www.w3.org/2000/svg" xmlns:xlink="http://www.w3.org/1999/xlink" x="0px" y="0px"
	 viewBox="0 0 67 49" style="enable-background:new 0 0 67 49;" xml:space="preserve">
<style type="text/css">
	.st0{fill:#EE0000;}
</style>
<title>Cost-icon</title>
<desc>Created with Sketch.</desc>
<g>
	<path class="st0" d="M52,16.7999992c-0.7000008-9-8.2000008-16-17.4000015-16c-5.8999996,0-11.3999996,3-14.6000004,8
		c-0.3999996,0-0.7999992-0.1000004-1.2999992-0.1000004c-7.3999996,0-13.5,6-13.5,13.5s6,13.4999981,13.5,13.4999981h3.5
		c0.7999992,0,1.5-0.7000008,1.5-1.5s-0.7000008-1.5-1.5-1.5h-3.5c-5.8000002,0-10.3999996-4.7000008-10.3999996-10.3999996
		s4.6999998-10.3999996,10.3999996-10.3999996c0.6000004,0,1.2000008,0.1000004,1.7999992,0.1999998
		c0.6000004,0.1000004,1.2999992-0.1999998,1.6000004-0.8000002c2.6000004-4.5,7.3999996-7.3000002,12.5-7.3000002
		C42.5,3.9999971,49,10.4999971,49,18.3999977c0,0.7999992,0.7000008,1.5,1.5,1.5c3.5,0,6.4000015,2.8999996,6.4000015,6.3999996
		S54,32.6999969,50.5,32.6999969c-0.7999992,0-1.5,0.7000008-1.5,1.5s0.7000008,1.5,1.5,1.5c5.2000008,0,9.5-4.2999992,9.5-9.5
		C60,21.5,56.5,17.5,52,16.7999992z"/>
	<path class="st0" d="M45.0999985,39c1.5999985-1.9000015,2.5-4.4000015,2.5-7c0-6.2000008-5-11.2000008-11.2000008-11.2000008
		s-11.2000008,5-11.2000008,11.2000008s5,11.2000008,11.2000008,11.2000008c2.4000015,0,4.7000008-0.7999992,6.5-2.0999985
		l6.7999992,6.5999985C49.9999962,48,50.3999977,48.1000023,50.7999954,48.1000023c0.4000015,0,0.7999992-0.2000008,1.0999985-0.5
		c0.5999985-0.5999985,0.5999985-1.5999985,0-2.2000008L45.0999985,39z M28.2999992,32
		c0-4.5,3.7000008-8.2000008,8.2000008-8.2000008S44.7000008,27.5,44.7000008,32S41,40.2000008,36.5,40.2000008
		S28.2999992,36.5,28.2999992,32z"/>
</g>
<g>
	<path class="st0" d="M38.1200104,31.5034981c0.4750404,0.1471539,0.8809509,0.4009705,1.2167397,0.7614479
		c0.3357887,0.3604813,0.5570107,0.7821884,0.6626854,1.2651329c0.1066628,0.4829407,0.078022,0.9708214-0.0859222,1.4616661
		c-0.1965332,0.5402222-0.5323219,0.9708214-1.0073624,1.2898216s-1.0063782,0.4868927-1.5969696,0.5036812v1.1792107
		c0,0.114563-0.036541,0.2083855-0.1096268,0.2824554c-0.07407,0.0740738-0.1678925,0.1106148-0.2834435,0.1106148h-0.7861404
		c-0.114563,0-0.2083855-0.036541-0.2824554-0.1106148c-0.073082-0.07407-0.1106148-0.1678925-0.1106148-0.2824554v-1.1792107
		c-0.7861366,0-1.4982071-0.2459145-2.1366959-0.7367592c-0.081974-0.0819702-0.1313553-0.1807327-0.1476479-0.2952957
		c-0.0162964-0.114563,0.0246887-0.2212257,0.1229553-0.3189964l0.8350258-0.8355217
		c0.0661697-0.0493813,0.1432037-0.0819702,0.234066-0.0977745c0.0898705-0.0167885,0.1757927,0.0079002,0.2577667,0.0730858
		c0.2459145,0.1639442,0.5234337,0.2459145,0.8345299,0.2459145h1.6463509c0.196537,0,0.3644295-0.0691338,0.5036812-0.2083855
		c0.1392555-0.1392555,0.2083893-0.3160362,0.2083893-0.5283737c0-0.1471558-0.0483932-0.2864075-0.1471558-0.4177589
		c-0.0977745-0.1313553-0.2212257-0.2212257-0.3683777-0.270607l-2.5302658-0.7367592
		c-0.5570107-0.1639442-1.0231667-0.458252-1.4004326-0.8848991c-0.3767738-0.4256611-0.5975075-0.9165058-0.6631813-1.4735184
		c-0.0325928-0.5244217,0.0656738-1.0113144,0.2948036-1.4616661c0.229126-0.4503517,0.5570107-0.8108292,0.9826736-1.0814362
		c0.4256592-0.2696171,0.9006996-0.4049206,1.4251251-0.4049206h0.0483894v-1.1792088
		c0-0.114563,0.0375328-0.2083874,0.1106148-0.2824574c0.07407-0.0740719,0.1678925-0.1106129,0.2824554-0.1106129h0.7861404
		c0.115551,0,0.2093735,0.036541,0.2834435,0.1106129c0.0730858,0.07407,0.1096268,0.1678944,0.1096268,0.2824574v1.1792088
		c0.7861404,0,1.4912949,0.2459145,2.1134911,0.7367592c0.0977745,0.0819721,0.155056,0.1807327,0.1718445,0.2952957
		c0.0158005,0.114563-0.0246925,0.2123356-0.1224632,0.2943077l-0.8355217,0.8602104
		c-0.0661697,0.0493813-0.1432037,0.0819721-0.2340622,0.0977745c-0.0898743,0.0167885-0.1757965,0-0.2577667-0.0483932
		c-0.2449303-0.1807327-0.5234375-0.2706051-0.8355217-0.2706051h-1.6453629c-0.1965332,0-0.3644295,0.0691319-0.5036812,0.2083855
		c-0.1392555,0.1392536-0.2093735,0.3160362-0.2093735,0.5283718c0,0.1471558,0.0493813,0.2864075,0.14814,0.4177608
		c0.0977745,0.1313515,0.2212257,0.2212257,0.3683815,0.2706051L38.1200104,31.5034981z"/>
</g>
</svg>
