<?xml version="1.0" encoding="UTF-8"?>
<svg width="67px" height="49px" viewBox="0 0 67 49" version="1.1" xmlns="http://www.w3.org/2000/svg" xmlns:xlink="http://www.w3.org/1999/xlink">
    <!-- Generator: Sketch 63.1 (92452) - https://sketch.com -->
    <title>Cost-icon</title>
    <desc>Created with Sketch.</desc>
    <g id="Post-summit-dashboard,-August-19" stroke="none" stroke-width="1" fill="none" fill-rule="evenodd">
        <g id="RHCS-Landing-Icons-2" transform="translate(-236.000000, -632.000000)" fill="#ED1C24" fill-rule="nonzero">
            <g id="Cost-icon" transform="translate(236.000000, 632.000000)">
                <path d="M52.7326007,38.6666667 C52.5054945,38.4444444 52.1648352,38.2222222 51.7106227,38.2222222 L50.6886447,38.2222222 C52.3919414,36.1111111 53.3003663,33.6666667 53.3003663,30.8888889 C53.3003663,28.6666667 52.7326007,26.6666667 51.7106227,24.8888889 C50.5750916,23.1111111 49.0989011,21.6666667 47.2820513,20.5555556 C45.4652015,19.4444444 43.4212454,19 41.1501832,19 C38.8791209,19 36.8351648,19.5555556 35.018315,20.5555556 C33.2014652,21.6666667 31.7252747,23.1111111 30.5897436,24.8888889 C29.4542125,26.6666667 29,28.6666667 29,30.8888889 C29,33.1111111 29.5677656,35.1111111 30.5897436,36.8888889 C31.7252747,38.6666667 33.2014652,40.1111111 35.018315,41.2222222 C36.8351648,42.3333333 38.8791209,42.7777778 41.1501832,42.7777778 C43.989011,42.7777778 46.4871795,41.8888889 48.6446886,40.2222222 L48.6446886,41.1111111 C48.6446886,41.4444444 48.7582418,41.7777778 49.0989011,42.1111111 L55.9120879,48.5555556 C56.1391941,48.7777778 56.4798535,49 56.9340659,49 C57.2747253,49 57.6153846,48.8888889 57.956044,48.5555556 L59.5457875,47 C59.7728938,46.7777778 60,46.4444444 60,46 C60,45.6666667 59.8864469,45.3333333 59.5457875,45 L52.7326007,38.6666667 Z M48.4175824,35 C47.6227106,36.2222222 46.6007326,37.2222222 45.3516484,38 C44.1025641,38.7777778 42.6263736,39.1111111 41.03663,39.1111111 C39.4468864,39.1111111 38.0842491,38.7777778 36.7216117,38 C35.4725275,37.2222222 34.4505495,36.2222222 33.6556777,35 C32.8608059,33.7777778 32.5201465,32.3333333 32.5201465,30.7777778 C32.5201465,29.2222222 32.8608059,27.8888889 33.6556777,26.5555556 C34.4505495,25.3333333 35.4725275,24.3333333 36.7216117,23.5555556 C37.970696,22.7777778 39.4468864,22.4444444 41.03663,22.4444444 C42.6263736,22.4444444 43.989011,22.7777778 45.3516484,23.5555556 C46.6007326,24.3333333 47.6227106,25.3333333 48.4175824,26.5555556 C49.2124542,27.7777778 49.5531136,29.2222222 49.5531136,30.7777778 C49.5531136,32.4444444 49.2124542,33.7777778 48.4175824,35 Z" id="Shape"></path>
                <path d="M42.0273829,30.8888889 C42.4742614,31 42.9211399,31.3333333 43.2562988,31.6666667 C43.5914576,32 43.8148969,32.4444444 43.9266165,33 C44.0383361,33.4444444 44.0383361,34 43.8148969,34.4444444 C43.5914576,35 43.2562988,35.4444444 42.8094203,35.7777778 C42.3625418,36.1111111 41.8039437,36.2222222 41.2453456,36.3333333 L41.2453456,37.5555556 C41.2453456,37.6666667 41.2453456,37.7777778 41.133626,37.8888889 C41.0219064,38 41.0219064,38 40.9101867,38 L40.1281494,38 C40.0164298,38 39.9047101,38 39.9047101,37.8888889 C39.7929905,37.7777778 39.7929905,37.6666667 39.7929905,37.5555556 L39.7929905,36.3333333 C39.0109532,36.3333333 38.3406355,36.1111111 37.6703177,35.5555556 C37.5585981,35.4444444 37.5585981,35.3333333 37.5585981,35.2222222 C37.5585981,35.1111111 37.5585981,35 37.6703177,34.8888889 L38.4523551,34 C38.5640747,34 38.5640747,33.8888889 38.6757943,33.8888889 C38.7875139,33.8888889 38.8992336,33.8888889 38.8992336,34 C39.1226728,34.1111111 39.4578317,34.2222222 39.6812709,34.2222222 L41.2453456,34.2222222 C41.4687848,34.2222222 41.5805045,34.1111111 41.6922241,34 C41.8039437,33.8888889 41.9156633,33.6666667 41.9156633,33.4444444 C41.9156633,33.3333333 41.9156633,33.1111111 41.8039437,33 C41.6922241,32.8888889 41.5805045,32.7777778 41.4687848,32.7777778 L39.0109532,32 C38.4523551,31.7777778 38.0054766,31.5555556 37.6703177,31.1111111 C37.3351589,30.6666667 37.1117196,30.2222222 37,29.6666667 C37,29.1111111 37.1117196,28.6666667 37.3351589,28.2222222 C37.5585981,27.7777778 37.893757,27.4444444 38.3406355,27.1111111 C38.7875139,26.8888889 39.2343924,26.6666667 39.6812709,26.6666667 L39.6812709,26.6666667 L39.6812709,25.4444444 C39.6812709,25.3333333 39.6812709,25.2222222 39.7929905,25.1111111 C39.9047101,25 39.9047101,25 40.0164298,25 L40.7984671,25 C40.9101867,25 41.0219064,25 41.0219064,25.1111111 C41.133626,25.2222222 41.133626,25.3333333 41.133626,25.4444444 L41.133626,26.6666667 C41.9156633,26.6666667 42.585981,26.8888889 43.1445791,27.4444444 C43.2562988,27.5555556 43.2562988,27.6666667 43.3680184,27.7777778 C43.479738,27.8888889 43.3680184,28 43.2562988,28.1111111 L42.4742614,29 C42.3625418,29 42.3625418,29.1111111 42.2508222,29.1111111 C42.1391026,29.1111111 42.0273829,29.1111111 42.0273829,29.1111111 C41.8039437,28.8888889 41.4687848,28.8888889 41.2453456,28.8888889 L39.6812709,28.8888889 C39.4578317,28.8888889 39.346112,29 39.2343924,29.1111111 C39.1226728,29.2222222 39.0109532,29.4444444 39.0109532,29.6666667 C39.0109532,29.7777778 39.0109532,30 39.1226728,30.1111111 C39.2343924,30.2222222 39.346112,30.3333333 39.4578317,30.3333333 L42.0273829,30.8888889 Z" id="Fill-4_11_"></path>
                <path d="M57.0450751,19.2738501 L57.0450751,19.2738501 C56.0383973,7.69013297 45.7479132,-0.914914064 34.115192,0.0779759786 C27.5158598,0.629581558 21.5876461,4.15985726 18.0083472,9.56559194 C17.4490818,9.56559194 17.0016694,9.56559194 16.442404,9.56559194 C7.38230384,9.56559194 0,16.8467856 0,25.782796 C0,34.7188064 7.38230384,42 16.442404,42 L29.4173623,42 C28.7462437,41.2277522 28.0751252,40.3451833 27.5158598,39.3522932 C27.2921536,39.0213299 27.0684474,38.5800454 26.9565943,38.2490821 L16.5542571,38.2490821 C9.50751252,38.2490821 3.80300501,32.6227052 3.80300501,25.782796 C3.80300501,18.9428868 9.39565943,13.0958676 16.442404,13.0958676 C17.2253756,13.0958676 17.8964942,13.2061888 18.5676127,13.3165099 C19.3505843,13.426831 20.1335559,13.0958676 20.4691152,12.433941 C25.278798,4.15985726 35.9048414,1.18118714 44.4056761,5.92499512 C49.8864775,9.01398636 53.2420701,14.7506844 53.3539232,20.9286669 C53.3539232,21.9215569 54.1368948,22.8041258 55.2554257,22.8041258 C59.6176962,22.5834836 63.3088481,25.782796 63.5325543,30.0853195 C63.7562604,33.9465585 60.9599332,37.3665131 57.2687813,38.1387609 L60.2888147,41.00711 C64.2036728,39.2419721 67,35.380733 67,30.8575673 C66.8881469,25.0105482 62.7495826,20.1564191 57.0450751,19.2738501 Z" id="Path"></path>
            </g>
        </g>
    </g>
</svg>