<?xml version="1.0" encoding="utf-8"?>
<!-- Generator: Adobe Illustrator 23.0.1, SVG Export Plug-In . SVG Version: 6.00 Build 0)  -->
<svg version="1.1" id="Layer_1" xmlns="http://www.w3.org/2000/svg" xmlns:xlink="http://www.w3.org/1999/xlink" x="0px" y="0px"
	 viewBox="0 0 1500 850" style="enable-background:new 0 0 1500 850;" xml:space="preserve">
<style type="text/css">
	.st0{fill-rule:evenodd;clip-rule:evenodd;fill:#1A1A1A;}
	.st1{fill:#090A0A;}
</style>
<title>BG</title>
<desc>Created with Sketch.</desc>
<g id="Background-Downstream">
	<g id="Login-Regular---Full-Feature">
		<g id="BG">
			<rect id="Rectangle" class="st0" width="1500" height="850"/>
			<g id="Red-Hat-Hat-RGB-grey" transform="translate(235.000000, 13.000000)">
				<path id="Shape" class="st1" d="M501.3,506.6c76.3,0,186.7-15.9,186.7-106.8c0-6.7-0.6-14-1.8-20.8L641,181.3
					C630.7,138,621.5,117.8,545.2,80C486.1,49.4,357.3,0,318.9,0c-36,0-46.4,45.8-88.5,45.8c-40.9,0-70.8-34.2-109.2-34.2
					c-36.6,0-60.4,25-78.7,76.3c0,0-51.2,144.7-58,166c-1.2,3.7-1.2,7.9-1.2,11.6C-17.3,321.7,204.2,506,501.3,506.6 M699.6,437.1
					c10.4,50.1,10.4,55.5,10.4,61.7c0,85.5-95.8,133.1-222.1,133.1c-285.5,0-535-167.3-535-277.7c0-15.3,3.1-30.5,9.2-44.6
					c-102.5,4.9-235.5,23.2-235.5,140.4c0,192.3,455.1,429.1,815.1,429.1c276.4,0,345.9-125.1,345.9-224
					C887.5,577.5,820.4,489.6,699.6,437.1"/>
			</g>
		</g>
	</g>
</g>
</svg>
