<?xml version="1.0" encoding="utf-8"?>
<!-- Generator: Adobe Illustrator 22.1.0, SVG Export Plug-In . SVG Version: 6.00 Build 0)  -->
<svg version="1.1" id="Layer_1" xmlns="http://www.w3.org/2000/svg" xmlns:xlink="http://www.w3.org/1999/xlink" x="0px" y="0px"
	 viewBox="0 0 67.15123 67.521538" style="enable-background:new 0 0 67.15123 67.521538;" xml:space="preserve">
<style type="text/css">
	.st0{fill:#047BB9;}
</style>
<path class="st0" d="M24.643854,18.510845V6.063765c0-0.570357-0.461525-1.031882-1.031881-1.031882H11.163884
	c-0.570357,0-1.031882,0.461525-1.031882,1.031882v12.447081c0,0.570356,0.461525,1.031881,1.031882,1.031881h12.448089
	C24.182329,19.542727,24.643854,19.081202,24.643854,18.510845z M22.58009,17.478962H12.195766V7.095647H22.58009V17.478962z
	 M30.026974,13.319187h20.559048c2.786282,0,5.0536,2.26732,5.0536,5.053602c0,2.786285-2.267319,5.053604-5.0536,5.053604
	h-0.720757v-2.054821l-5.34634,3.087082l5.34634,3.087206v-2.055702h0.720757c3.92498,0,7.117367-3.192387,7.117367-7.117369
	s-3.192387-7.117367-7.117367-7.117367H30.026974c-0.570356,0-1.031881,0.461525-1.031881,1.031882
	C28.995092,12.857661,29.456617,13.319187,30.026974,13.319187z M20.970482,35.598373h-0.721197
	c-2.786283,0-5.053603-2.267323-5.053603-5.053604c0-2.787292,2.26732-5.054611,5.053603-5.054611h20.560053
	c0.570358,0,1.031883-0.461525,1.031883-1.031883c0-0.570356-0.461525-1.031881-1.031883-1.031881H20.249285
	c-3.924982,0-7.117368,3.193394-7.117368,7.118376s3.192386,7.117367,7.117368,7.117367h0.721197v2.055073l5.34634-3.087082
	l-5.34634-3.087204V35.598373z M56.473995,34.761982H31.207996c-0.570356,0-1.031883,0.461525-1.031883,1.031883v25.26701
	c0,0.570354,0.461527,1.031879,1.031883,1.031879h25.265999c0.570358,0,1.031883-0.461525,1.031883-1.031879v-25.26701
	C57.505878,35.223507,57.044353,34.761982,56.473995,34.761982z M55.442116,60.028992H32.23988V36.825748h23.202236V60.028992z
	 M42.696754,53.864906c0.194489,0.195492,0.458504,0.302307,0.729576,0.302307c0.056431,0,0.113869-0.005035,0.1703-0.014107
	c0.329517-0.055424,0.611671-0.266033,0.75779-0.566326l5.317619-10.919411c0.248901-0.511909,0.036278-1.129627-0.476643-1.379536
	c-0.511909-0.249912-1.129627-0.035271-1.379536,0.476639l-4.683781,9.617466l-2.62505-2.62606
	c-0.40308-0.40308-1.056068-0.40308-1.459148,0c-0.403076,0.40308-0.403076,1.056068,0,1.459148L42.696754,53.864906z"/>
</svg>
