<svg version="1.1" id="Layer_1" xmlns="http://www.w3.org/2000/svg" xmlns:xlink="http://www.w3.org/1999/xlink" x="0px" y="0px"
	 viewBox="0 0 67.2 67.5" style="enable-background:new 0 0 67.2 67.5;" xml:space="preserve">
<style type="text/css">
	.st0{fill:#0066CC;stroke:#0066CC;stroke-miterlimit:10;}
	.st1{fill:#0066CC;stroke:#0066CC;stroke-width:0.75;stroke-miterlimit:10;}
</style>
<path class="st0" d="M30.9,52.1c-1.1,0-2.5-0.7-3.2-1.6l-9.3-12c-0.8-1-0.7-2.6,0.2-3.5l1.3-1.3c0.4-0.4,1-0.7,1.6-0.7
	c0.7,0,1.3,0.3,1.7,0.8l6.7,8.1c0.3,0.4,0.8,0.4,1.1-0.1L45,18.1c0.4-0.7,1.2-1.2,2.1-1.2c0.4,0,0.8,0.1,1.2,0.3l1.3,0.7
	c1.1,0.7,1.5,2.1,0.9,3.3L34,50.3C33.4,51.3,32,52.1,30.9,52.1z M21.4,34.2c-0.3,0-0.5,0.1-0.7,0.3l-1.3,1.3
	c-0.5,0.5-0.5,1.3-0.1,1.8l9.3,12c0.5,0.6,1.5,1.2,2.3,1.2c0.7,0,1.6-0.6,2-1.2l16.4-29c0.3-0.6,0.1-1.3-0.4-1.6l-1.3-0.7
	c-0.5-0.3-1.3-0.1-1.6,0.4L31.9,42.5c-0.4,0.6-1,1-1.6,1h0c-0.5,0-1.1-0.3-1.5-0.7l-6.7-8.1C22,34.4,21.7,34.2,21.4,34.2z"/>
<path class="st1" d="M11,12.1C20.5,2,35.4-0.6,47.8,5.4L46,7.9c-0.1,0.1-0.1,0.3-0.1,0.4c0.1,0.1,0.2,0.3,0.3,0.3l9.1,1.9
	c0.2,0,0.4,0,0.5-0.2l0,0c0.1-0.1,0.1-0.3,0-0.5l-4.6-8.2c-0.1-0.1-0.2-0.2-0.4-0.2c-0.2,0-0.3,0.1-0.4,0.2l-1.9,2.7
	c-13-6.5-28.7-3.7-38.7,6.9C0,21.7-1.8,37.8,5.5,50.3c0.1,0.2,0.4,0.4,0.6,0.4c0.1,0,0.3,0,0.4-0.1c0.4-0.2,0.5-0.7,0.3-1
	C-0.2,37.6,1.5,22.2,11,12.1z"/>
<path class="st1" d="M59.2,12.8c-0.3-0.3-0.7-0.4-1-0.1c-0.3,0.3-0.4,0.7-0.1,1c10.6,13.3,8.6,32.9-4.5,43.7
	c-10.8,9-26.1,9.7-37.6,2l2.2-2.3c0.1-0.1,0.2-0.3,0.1-0.4c0-0.2-0.2-0.3-0.3-0.3l-8.8-3c-0.2-0.1-0.4,0-0.5,0.1l0,0
	c-0.1,0.1-0.2,0.3-0.1,0.5l3.5,8.7c0.1,0.1,0.2,0.3,0.4,0.3c0.2,0,0.3,0,0.4-0.1l2.1-2.3c5.6,3.8,12.1,5.7,18.5,5.7
	c7.5,0,14.9-2.6,21.1-7.7C68.2,47.3,70.3,26.7,59.2,12.8z"/>
</svg>
