<?xml version="1.0" encoding="utf-8"?>
<!-- Generator: Adobe Illustrator 22.1.0, SVG Export Plug-In . SVG Version: 6.00 Build 0)  -->
<svg version="1.1" id="Layer_1" xmlns="http://www.w3.org/2000/svg" xmlns:xlink="http://www.w3.org/1999/xlink" x="0px" y="0px"
	 viewBox="0 0 67.15123 67.521538" style="enable-background:new 0 0 67.15123 67.521538;" xml:space="preserve">
<style type="text/css">
	.st0{fill:#047BB9;stroke:#047BB9;stroke-miterlimit:10;}
	.st1{fill:#047BB9;stroke:#047BB9;stroke-width:0.75;stroke-miterlimit:10;}
</style>
<path class="st0" d="M31.049311,49.791477c-0.971872,0-2.227365-0.638515-2.858412-1.453281L19.95196,37.700115
	c-0.692558-0.894112-0.605253-2.272301,0.194353-3.07169l1.118891-1.119106c0.38287-0.382927,0.884295-0.593803,1.412003-0.593803
	c0.579403,0,1.132469,0.259357,1.516975,0.711754l5.878185,7.156258c0.305925,0.359474,0.697357,0.331284,0.943624-0.077709
	l12.46949-21.000502c0.382324-0.635572,1.084209-1.030443,1.831409-1.030443c0.378616,0,0.749817,0.10116,1.074665,0.292349
	l1.111366,0.655313c1.001209,0.58922,1.349506,1.891283,0.776482,2.902309L33.763378,48.148586
	C33.24123,49.069908,32.049156,49.791477,31.049311,49.791477z M22.677206,34.006161
	c-0.236452,0-0.463797,0.097446-0.640917,0.274296l-1.118837,1.11911c-0.41777,0.418041-0.46516,1.165733-0.103338,1.632748
	l8.238939,10.638081c0.425241,0.54903,1.358015,1.030441,1.996258,1.030441c0.611361,0,1.43627-0.509113,1.765097-1.090099
	l14.515972-25.623468c0.281227-0.496624,0.110264-1.135904-0.380741-1.425089l-1.11142-0.655313
	c-0.470779-0.277185-1.139126-0.104101-1.417622,0.360294L31.950891,41.267609
	c-0.33123,0.551212-0.846994,0.867008-1.414946,0.867008h-0.000275c-0.481136,0-0.940733-0.228981-1.294374-0.644897
	l-5.877913-7.155766C23.183701,34.122532,22.94005,34.006161,22.677206,34.006161z"/>
<path class="st1" d="M13.499243,14.476324c8.396776-8.943954,21.574018-11.290919,32.472771-5.933856l-1.55965,2.146624
	c-0.082623,0.113606-0.1022,0.263532-0.05159,0.395786c0.051003,0.131864,0.165737,0.229366,0.304356,0.256727l8.063934,1.659845
	c0.160057,0.032697,0.323734-0.030739,0.421726-0.162357l0.000786-0.001028c0.095642-0.131717,0.106411-0.306213,0.026138-0.446642
	l-4.022179-7.223661c-0.069603-0.124766-0.196571-0.205235-0.338615-0.212871
	c-0.142635-0.008957-0.278706,0.055506-0.362503,0.170727L46.75243,7.468177
	c-11.452251-5.73978-25.362818-3.3076-34.206482,6.112954C3.7714,22.927088,2.175529,37.167267,8.664348,48.210365
	c0.121976,0.206902,0.340378,0.322464,0.564458,0.322464c0.112382,0,0.226723-0.028732,0.330784-0.090012
	c0.311304-0.183258,0.415365-0.583599,0.232499-0.895195C3.594897,37.001236,5.119403,23.402121,13.499243,14.476324z"/>
<path class="st1" d="M56.07177,15.096396c-0.224766-0.282522-0.636604-0.328826-0.918835-0.104061
	c-0.282227,0.225059-0.328827,0.636606-0.104061,0.918786c9.336952,11.718718,7.559391,29.053768-3.961971,38.643631
	c-9.567986,7.96291-23.031958,8.59462-33.23772,1.722939l1.904922-2.048141c0.095741-0.10284,0.133333-0.24929,0.098972-0.386684
	c-0.034754-0.137051-0.136759-0.247673-0.271265-0.291527l-7.804811-2.62009
	c-0.154966-0.051735-0.325107-0.008518-0.438272,0.110329l-0.000784,0.000927
	c-0.111012,0.119236-0.14273,0.291138-0.079882,0.440231l3.121846,7.65596c0.054037,0.132206,0.170336,0.227409,0.310422,0.252129
	c0.140576,0.026089,0.283404-0.021488,0.38032-0.125793l1.876043-2.017063c4.959124,3.390568,10.664789,5.078163,16.364775,5.078163
	c6.607075,0,13.204948-2.266102,18.611839-6.766346C63.987396,45.518482,65.848068,27.366747,56.07177,15.096396z"/>
</svg>
